STARTFONT 2.1
FONT -FontForge-Amatic SC-Bold-R-Normal--40-380-75-75-P-126-ISO10646-1
SIZE 38 75 75
FONTBOUNDINGBOX 60 57 -18 -11
COMMENT "Generated by fontforge, http://fontforge.sourceforge.net"
COMMENT "Copyright 2015 The Amatic SC Project Authors (https://github.com/googlefonts/AmaticSC)"
STARTPROPERTIES 40
FOUNDRY "FontForge"
FAMILY_NAME "Amatic SC"
WEIGHT_NAME "Bold"
SLANT "R"
SETWIDTH_NAME "Normal"
ADD_STYLE_NAME ""
PIXEL_SIZE 40
POINT_SIZE 380
RESOLUTION_X 75
RESOLUTION_Y 75
SPACING "P"
AVERAGE_WIDTH 126
CHARSET_REGISTRY "ISO10646"
CHARSET_ENCODING "1"
FONTNAME_REGISTRY ""
CHARSET_COLLECTIONS "ISO8859-2 ISO8859-5 ISO8859-9 ISO8859-8 ISO8859-4 ISO10646-1"
FONT_NAME "AmaticSC-Bold"
FACE_NAME "Amatic SC Bold"
COPYRIGHT "Copyright 2015 The Amatic SC Project Authors (https://github.com/googlefonts/AmaticSC)"
FONT_VERSION "2.505"
FONT_ASCENT 32
FONT_DESCENT 8
UNDERLINE_POSITION -4
UNDERLINE_THICKNESS 2
X_HEIGHT 26
CAP_HEIGHT 30
DEFAULT_CHAR 1
RAW_ASCENT 800
RAW_DESCENT 200
NORM_SPACE 7
RELATIVE_WEIGHT 70
RELATIVE_SETWIDTH 50
SUPERSCRIPT_X 0
SUPERSCRIPT_Y 14
SUPERSCRIPT_SIZE 24
SUBSCRIPT_X 0
SUBSCRIPT_Y 3
SUBSCRIPT_SIZE 24
AVG_LOWERCASE_WIDTH 132
AVG_UPPERCASE_WIDTH 137
ENDPROPERTIES
CHARS 839
STARTCHAR NULL.dup1
ENCODING 0
SWIDTH 0 0
DWIDTH 0 0
BBX 1 1 0 0
BITMAP
00
ENDCHAR
STARTCHAR nonmarkingreturn
ENCODING 13
SWIDTH 183 0
DWIDTH 7 0
BBX 1 1 0 0
BITMAP
00
ENDCHAR
STARTCHAR space
ENCODING 32
SWIDTH 183 0
DWIDTH 7 0
BBX 1 1 0 0
BITMAP
00
ENDCHAR
STARTCHAR exclam
ENCODING 33
SWIDTH 207 0
DWIDTH 8 0
BBX 4 32 2 -1
BITMAP
30
70
70
70
70
70
70
70
70
70
70
60
60
60
60
60
60
60
60
60
60
60
60
60
20
00
00
00
00
60
F0
60
ENDCHAR
STARTCHAR quotedbl
ENCODING 34
SWIDTH 333 0
DWIDTH 13 0
BBX 6 8 4 23
BITMAP
C8
CC
CC
C8
C8
88
88
88
ENDCHAR
STARTCHAR numbersign
ENCODING 35
SWIDTH 421 0
DWIDTH 17 0
BBX 13 32 2 -1
BITMAP
0410
0430
0C30
0C30
0C30
0C30
0C30
0C60
0C60
0C60
7FF8
7FF8
1860
1860
1840
18C0
18C0
FFF0
FFF0
18C0
30C0
30C0
30C0
30C0
30C0
3080
7180
7180
7180
7180
6180
6180
ENDCHAR
STARTCHAR dollar
ENCODING 36
SWIDTH 413 0
DWIDTH 17 0
BBX 10 38 3 -5
BITMAP
0800
0C00
0FC0
1FC0
3C00
6C00
6C00
CC00
CC00
CC00
EC00
6C00
6C00
3400
3C00
1C00
0C00
0E00
0600
0700
0780
0580
04C0
06C0
06C0
06C0
06C0
06C0
06C0
06C0
0780
0780
7F00
3E00
0600
0600
0600
0600
ENDCHAR
STARTCHAR percent
ENCODING 37
SWIDTH 576 0
DWIDTH 23 0
BBX 20 31 1 0
BITMAP
1C0400
3E0E00
660C00
630C00
630C00
631C00
631C00
C31C00
C31800
C33800
433800
633800
633000
637000
677000
3E7180
1C63E0
00E660
00E660
00CC30
00CC30
01CC30
01CC30
018C30
018C30
038C30
038C30
038660
030660
0307C0
000380
ENDCHAR
STARTCHAR ampersand
ENCODING 38
SWIDTH 483 0
DWIDTH 19 0
BBX 16 30 2 0
BITMAP
0F00
1F80
19C0
18C0
18C0
18C0
18C0
1980
1980
1B00
0F00
0E00
1C00
1C00
3C00
3C00
6C06
6C3F
4618
C618
C618
C318
C310
C130
C1B0
C0B0
60E0
7070
3FFF
1F0F
ENDCHAR
STARTCHAR quotesingle
ENCODING 39
SWIDTH 263 0
DWIDTH 11 0
BBX 2 8 4 23
BITMAP
C0
C0
C0
C0
C0
C0
C0
80
ENDCHAR
STARTCHAR parenleft
ENCODING 40
SWIDTH 291 0
DWIDTH 12 0
BBX 7 40 3 -7
BITMAP
08
1C
18
38
38
30
30
60
60
60
60
60
60
C0
C0
C0
C0
C0
C0
40
40
60
60
60
60
60
60
60
20
30
30
30
30
18
18
18
1C
0C
0E
06
ENDCHAR
STARTCHAR parenright
ENCODING 41
SWIDTH 306 0
DWIDTH 12 0
BBX 7 39 2 -6
BITMAP
20
70
70
38
38
18
18
1C
0C
0C
0C
0C
0C
0C
04
06
06
06
06
04
0C
0C
0C
0C
0C
0C
08
18
18
18
18
30
30
30
70
60
E0
C0
C0
ENDCHAR
STARTCHAR asterisk
ENCODING 42
SWIDTH 456 0
DWIDTH 18 0
BBX 15 16 1 15
BITMAP
1860
1860
0CE0
0CC0
06C0
07C0
0380
FFFE
FFFE
0380
0780
06C0
0EE0
0C60
1C60
1870
ENDCHAR
STARTCHAR plus
ENCODING 43
SWIDTH 439 0
DWIDTH 18 0
BBX 11 13 3 7
BITMAP
0C00
0C00
0C00
0C00
0C00
0E00
FFE0
7FE0
0E00
0E00
0E00
0E00
0E00
ENDCHAR
STARTCHAR comma
ENCODING 44
SWIDTH 199 0
DWIDTH 8 0
BBX 3 7 3 -4
BITMAP
E0
E0
E0
60
40
C0
80
ENDCHAR
STARTCHAR hyphen
ENCODING 45
SWIDTH 377 0
DWIDTH 15 0
BBX 9 3 3 13
BITMAP
3F00
FF80
7E00
ENDCHAR
STARTCHAR period
ENCODING 46
SWIDTH 289 0
DWIDTH 12 0
BBX 3 3 4 0
BITMAP
60
E0
60
ENDCHAR
STARTCHAR slash
ENCODING 47
SWIDTH 368 0
DWIDTH 15 0
BBX 9 32 3 -1
BITMAP
0080
0180
0180
0100
0100
0300
0300
0200
0200
0600
0600
0400
0400
0C00
0C00
0800
0800
1800
1800
1000
1000
3000
3000
2000
2000
6000
6000
4000
4000
C000
8000
8000
ENDCHAR
STARTCHAR zero
ENCODING 48
SWIDTH 321 0
DWIDTH 13 0
BBX 9 31 2 0
BITMAP
7800
5C00
CC00
C600
C600
C200
C300
C300
C300
C300
C100
C100
C180
C180
C180
C180
C180
C180
C180
C180
C180
C180
E180
6180
6180
6180
6300
2300
3300
3E00
1C00
ENDCHAR
STARTCHAR one
ENCODING 49
SWIDTH 269 0
DWIDTH 11 0
BBX 10 31 0 0
BITMAP
FC00
7800
1800
0800
0800
0C00
0C00
0C00
0C00
0C00
0C00
0C00
0C00
0C00
0C00
0C00
0C00
0C00
0C00
0C00
0400
0400
0600
0600
0600
0600
0600
0600
0600
0FC0
1FC0
ENDCHAR
STARTCHAR two
ENCODING 50
SWIDTH 343 0
DWIDTH 14 0
BBX 9 31 2 0
BITMAP
1C00
3E00
3300
3300
3100
0180
0180
0180
0180
0180
0300
0300
0300
0300
0300
0300
0600
0600
0600
0C00
0C00
0C00
1800
1800
3000
3000
3000
6000
6000
EE00
FF00
ENDCHAR
STARTCHAR three
ENCODING 51
SWIDTH 334 0
DWIDTH 13 0
BBX 10 32 1 -1
BITMAP
3C00
7E00
E600
C600
0300
0300
0300
0300
0300
0300
0700
0600
0C00
0E00
0700
0300
0380
0180
0180
0180
0180
0180
00C0
00C0
00C0
00C0
00C0
0180
0180
1180
1F00
0E00
ENDCHAR
STARTCHAR four
ENCODING 52
SWIDTH 303 0
DWIDTH 12 0
BBX 8 32 3 -1
BITMAP
40
40
40
40
40
40
40
48
48
C8
C8
C8
C8
C8
C8
C8
D8
D8
D8
DE
FF
08
08
0C
0C
0C
0C
0C
0C
0C
0C
0C
ENDCHAR
STARTCHAR five
ENCODING 53
SWIDTH 330 0
DWIDTH 13 0
BBX 9 32 2 -1
BITMAP
7C00
F800
6000
6000
6000
6000
6000
6000
6000
6000
6000
7800
7E00
3F00
0700
0300
0300
0180
0180
0180
0180
0180
0180
0180
0180
0180
0180
0180
0300
0300
1E00
1C00
ENDCHAR
STARTCHAR six
ENCODING 54
SWIDTH 283 0
DWIDTH 11 0
BBX 7 31 2 0
BITMAP
18
38
60
60
60
60
C0
C0
C0
C0
C0
C0
F0
F8
CC
CC
CC
C6
C6
C6
C6
C6
C6
C6
C6
E6
62
66
66
3E
1C
ENDCHAR
STARTCHAR seven
ENCODING 55
SWIDTH 300 0
DWIDTH 12 0
BBX 8 31 1 0
BITMAP
FF
7F
03
03
03
03
02
02
02
02
02
02
06
06
06
06
04
04
04
0C
0C
0C
0C
08
18
18
18
18
30
30
30
ENDCHAR
STARTCHAR eight
ENCODING 56
SWIDTH 314 0
DWIDTH 13 0
BBX 8 33 2 -2
BITMAP
38
7C
CC
CC
C4
44
64
64
6C
2C
2C
3C
1C
18
18
18
1C
1C
14
36
26
26
22
23
63
63
63
63
63
63
33
3E
1C
ENDCHAR
STARTCHAR nine
ENCODING 57
SWIDTH 281 0
DWIDTH 11 0
BBX 7 33 1 0
BITMAP
18
7E
66
C6
C6
C6
C6
C6
C6
C6
46
66
3E
0E
06
06
06
06
06
06
06
06
06
06
06
06
06
06
06
04
04
0C
04
ENDCHAR
STARTCHAR colon
ENCODING 58
SWIDTH 289 0
DWIDTH 12 0
BBX 3 18 4 3
BITMAP
60
E0
60
00
00
00
00
00
00
00
00
00
00
00
00
C0
E0
E0
ENDCHAR
STARTCHAR semicolon
ENCODING 59
SWIDTH 298 0
DWIDTH 12 0
BBX 3 21 5 1
BITMAP
60
E0
E0
00
00
00
00
00
00
00
00
00
00
00
E0
E0
E0
20
60
40
80
ENDCHAR
STARTCHAR less
ENCODING 60
SWIDTH 378 0
DWIDTH 15 0
BBX 9 29 3 -1
BITMAP
0200
0600
0600
0E00
0C00
1C00
1C00
1800
3800
3000
7000
6000
6000
E000
C000
E000
6000
7000
3000
3000
3800
1800
1C00
0C00
0E00
0600
0700
0380
0180
ENDCHAR
STARTCHAR equal
ENCODING 61
SWIDTH 431 0
DWIDTH 17 0
BBX 11 6 3 12
BITMAP
FFC0
FFE0
0000
0000
FFC0
FFE0
ENDCHAR
STARTCHAR greater
ENCODING 62
SWIDTH 378 0
DWIDTH 15 0
BBX 9 29 3 -1
BITMAP
2000
7000
3000
3800
3800
1C00
1C00
0C00
0E00
0600
0700
0300
0300
0300
0380
0300
0300
0600
0600
0C00
0C00
1800
3800
3000
7000
6000
6000
C000
C000
ENDCHAR
STARTCHAR question
ENCODING 63
SWIDTH 266 0
DWIDTH 11 0
BBX 6 31 2 0
BITMAP
38
7C
EC
CC
CC
EC
4C
0C
0C
0C
0C
0C
0C
18
18
18
18
10
10
10
30
30
30
30
30
30
00
00
30
38
30
ENDCHAR
STARTCHAR at
ENCODING 64
SWIDTH 571 0
DWIDTH 23 0
BBX 19 37 2 -2
BITMAP
01E000
0FF800
1C1C00
380E00
700700
600300
600380
E00180
C1E180
C3F1C0
C738C0
C618C0
C618C0
C61CC0
C60CC0
C60CE0
C60CE0
C60CE0
C60CE0
C60EE0
C60EE0
C60EE0
C60EC0
C60EC0
E61FC0
E33B80
63F000
61E000
600000
600000
700000
300080
380180
180700
1C1E00
0FF800
01C000
ENDCHAR
STARTCHAR A
ENCODING 65
SWIDTH 350 0
DWIDTH 14 0
BBX 11 31 1 0
BITMAP
0300
0300
0700
0700
0780
0F80
0D80
0D80
0D80
0D80
1980
1980
1980
19C0
19C0
39C0
30C0
30C0
30C0
30C0
30C0
70C0
7FC0
7FC0
60C0
60C0
60E0
C0E0
C0E0
C0E0
40C0
ENDCHAR
STARTCHAR B
ENCODING 66
SWIDTH 314 0
DWIDTH 13 0
BBX 9 31 2 0
BITMAP
7000
FC00
E600
E600
E300
E300
E300
E300
E700
E600
E600
EC00
F800
F800
7C00
6600
6300
6300
6100
6180
6180
6180
6180
6180
6180
E180
E300
E300
EE00
FC00
7800
ENDCHAR
STARTCHAR C
ENCODING 67
SWIDTH 337 0
DWIDTH 13 0
BBX 11 31 2 0
BITMAP
0F00
3F80
7180
E000
E000
C000
C000
C000
C000
C000
C000
C000
C000
C000
C000
C000
C000
C000
C000
C000
C000
C000
C000
C000
E000
6000
6000
7040
38E0
1FC0
0F80
ENDCHAR
STARTCHAR D
ENCODING 68
SWIDTH 379 0
DWIDTH 15 0
BBX 11 31 2 0
BITMAP
FC00
FE00
CF00
C380
C180
41C0
40C0
40C0
40C0
60E0
60E0
6060
6060
6060
6060
6060
6060
60E0
60E0
60C0
60C0
60C0
61C0
6180
6180
6300
6700
6600
7E00
FC00
7000
ENDCHAR
STARTCHAR E
ENCODING 69
SWIDTH 278 0
DWIDTH 11 0
BBX 7 31 2 0
BITMAP
78
FC
F8
E0
E0
60
60
60
60
60
60
60
60
60
7C
7C
60
60
60
60
60
60
60
60
60
60
60
60
60
7E
7E
ENDCHAR
STARTCHAR F
ENCODING 70
SWIDTH 265 0
DWIDTH 11 0
BBX 6 31 2 0
BITMAP
7C
F8
E0
E0
60
60
60
60
60
60
60
60
60
7C
7C
60
60
60
60
60
60
60
70
70
70
70
70
70
70
70
30
ENDCHAR
STARTCHAR G
ENCODING 71
SWIDTH 371 0
DWIDTH 15 0
BBX 12 32 2 -1
BITMAP
0F00
1F00
3000
7000
6000
6000
E000
E000
C000
C000
C000
C000
C000
C000
C000
C000
C000
C000
C000
C000
C000
C000
C1E0
C3E0
C060
C060
6020
6030
6030
3070
1FF0
0FB0
ENDCHAR
STARTCHAR H
ENCODING 72
SWIDTH 330 0
DWIDTH 13 0
BBX 9 31 2 0
BITMAP
C200
C300
C300
C300
C300
C300
C300
C300
C300
C300
C300
C300
C300
C300
FF00
C300
C300
C300
C300
C300
E300
E300
E300
6300
6300
6300
6380
6380
6380
6380
2100
ENDCHAR
STARTCHAR I
ENCODING 73
SWIDTH 257 0
DWIDTH 10 0
BBX 8 31 1 0
BITMAP
3E
FC
30
30
30
30
30
30
30
30
30
30
38
38
18
18
18
18
18
18
18
18
18
18
18
18
18
18
18
FF
7E
ENDCHAR
STARTCHAR J
ENCODING 74
SWIDTH 268 0
DWIDTH 11 0
BBX 7 34 1 -3
BITMAP
FE
FC
18
18
18
18
18
18
18
18
18
18
18
18
18
18
18
18
0C
0C
0C
0C
0C
0C
0C
0C
0C
1C
1C
18
38
38
F0
60
ENDCHAR
STARTCHAR K
ENCODING 75
SWIDTH 356 0
DWIDTH 14 0
BBX 11 33 2 -1
BITMAP
0080
40C0
E1C0
E180
E380
6300
6700
6600
6600
6C00
6C00
7C00
7800
7800
7C00
6C00
6400
6600
6200
6200
6300
6300
6100
6180
6180
E180
E0C0
E0C0
E0C0
E0C0
E0E0
6060
0060
ENDCHAR
STARTCHAR L
ENCODING 76
SWIDTH 250 0
DWIDTH 10 0
BBX 7 32 2 -1
BITMAP
C0
E0
E0
E0
E0
E0
E0
E0
60
60
60
60
60
60
60
60
60
60
60
60
60
60
60
60
60
60
60
60
60
7C
7E
60
ENDCHAR
STARTCHAR M
ENCODING 77
SWIDTH 453 0
DWIDTH 18 0
BBX 13 32 2 -1
BITMAP
0018
C038
E038
E038
E038
F038
F038
F038
F078
D878
D878
D878
D878
CC78
CCD8
CCD8
CCD8
C4D8
C598
C798
C798
C798
C718
C718
C718
C718
C218
C018
C018
E018
4018
0018
ENDCHAR
STARTCHAR N
ENCODING 78
SWIDTH 412 0
DWIDTH 16 0
BBX 12 32 2 0
BITMAP
0030
4030
E030
E030
E030
F030
F030
F030
D830
D830
D830
D830
CC30
CC20
CC20
C620
C620
C620
C660
C360
C360
C360
C160
C160
41E0
41E0
60E0
60E0
60E0
6060
6060
E020
ENDCHAR
STARTCHAR O
ENCODING 79
SWIDTH 355 0
DWIDTH 14 0
BBX 10 32 2 -1
BITMAP
3C00
7E00
6300
E300
C180
C180
C180
C080
C0C0
C0C0
C0C0
C0C0
C0C0
C0C0
C0C0
C0C0
C0C0
C0C0
C0C0
C0C0
C0C0
C0C0
C0C0
C0C0
60C0
60C0
6080
6180
3180
3180
1F00
0E00
ENDCHAR
STARTCHAR P
ENCODING 80
SWIDTH 288 0
DWIDTH 12 0
BBX 8 31 2 0
BITMAP
F0
F8
FC
CE
C6
46
43
43
43
43
66
66
66
6C
7C
78
70
60
60
60
60
60
60
60
60
60
60
60
60
60
60
ENDCHAR
STARTCHAR Q
ENCODING 81
SWIDTH 398 0
DWIDTH 16 0
BBX 11 36 2 -5
BITMAP
1C00
3F00
6300
6180
E180
C1C0
C0C0
C0C0
C0C0
C0C0
C0C0
C0C0
C0C0
C0C0
C0C0
C0C0
C0C0
C0C0
C0C0
C0C0
C0C0
C0C0
C0C0
C0C0
C0C0
E0C0
6080
6180
3180
1F00
0300
0300
0300
0380
01E0
00E0
ENDCHAR
STARTCHAR R
ENCODING 82
SWIDTH 289 0
DWIDTH 12 0
BBX 9 31 2 0
BITMAP
E000
F800
D800
CC00
CC00
CC00
CC00
CC00
CC00
CC00
CC00
D800
F800
F800
D800
D800
D800
D800
C800
CC00
CC00
C400
C600
C600
C600
C300
C300
C300
C380
C380
C180
ENDCHAR
STARTCHAR S
ENCODING 83
SWIDTH 307 0
DWIDTH 12 0
BBX 8 32 2 -1
BITMAP
1C
3E
70
E0
C0
C0
C0
C0
E0
60
60
70
30
38
18
1C
0C
0E
06
06
07
07
03
03
03
03
07
07
06
0E
FC
F8
ENDCHAR
STARTCHAR T
ENCODING 84
SWIDTH 262 0
DWIDTH 10 0
BBX 9 31 0 0
BITMAP
7F80
FF00
0C00
0C00
0C00
0C00
0C00
0C00
0C00
0C00
0C00
0C00
0C00
0C00
0C00
0C00
0C00
0C00
0C00
0C00
0C00
0C00
0C00
0C00
0C00
0C00
0C00
0E00
0E00
0E00
0400
ENDCHAR
STARTCHAR U
ENCODING 85
SWIDTH 401 0
DWIDTH 16 0
BBX 11 32 2 -1
BITMAP
C040
C0E0
C0E0
C0E0
C060
C060
C060
E060
E060
E060
E060
E060
E060
E060
E060
E060
E060
E060
E060
6060
6060
6060
6060
7060
7060
3060
3060
3860
1860
1C60
0FC0
0780
ENDCHAR
STARTCHAR V
ENCODING 86
SWIDTH 350 0
DWIDTH 14 0
BBX 10 31 1 0
BITMAP
8040
C0C0
C0C0
C0C0
C0C0
60C0
60C0
60C0
60C0
6080
7180
3180
3180
3180
3180
3180
3980
1900
1B00
1B00
1B00
1B00
1B00
0F00
0F00
0E00
0E00
0E00
0600
0600
0400
ENDCHAR
STARTCHAR W
ENCODING 87
SWIDTH 494 0
DWIDTH 20 0
BBX 17 32 1 -1
BITMAP
400380
C00300
E00300
600300
618300
618300
618300
718300
738300
338300
33C700
33C600
33C600
33C600
33C600
3BE600
3BE600
1B6600
1E6C00
1E6C00
1E7C00
1E7C00
1E7C00
1E3C00
0E3C00
0E3C00
0E3800
0E3800
0E1800
0E1800
0E1800
0C0800
ENDCHAR
STARTCHAR X
ENCODING 88
SWIDTH 304 0
DWIDTH 12 0
BBX 9 31 1 0
BITMAP
0180
6180
6180
3180
3300
3300
3300
3300
1A00
1E00
1E00
1E00
0C00
0C00
0C00
0C00
0C00
1C00
1E00
1E00
1600
3600
3200
3300
2300
6300
6300
6100
6180
4180
C000
ENDCHAR
STARTCHAR Y
ENCODING 89
SWIDTH 265 0
DWIDTH 11 0
BBX 7 32 1 -1
BITMAP
86
C6
C6
C6
CE
EE
EE
6C
6C
6C
3C
3C
3C
38
18
18
18
18
18
18
18
18
18
18
18
18
18
18
18
1C
1C
18
ENDCHAR
STARTCHAR Z
ENCODING 90
SWIDTH 261 0
DWIDTH 10 0
BBX 7 31 1 0
BITMAP
FE
7E
06
06
06
0E
0E
0E
0C
0C
0C
0C
0C
1C
1C
18
18
18
18
18
30
30
30
30
30
60
60
60
60
FC
FE
ENDCHAR
STARTCHAR bracketleft
ENCODING 91
SWIDTH 315 0
DWIDTH 13 0
BBX 8 33 3 -2
BITMAP
3E
3F
30
30
30
30
30
30
30
20
60
60
60
60
60
60
60
60
60
60
60
60
40
40
40
40
C0
C0
C0
C0
C0
FC
7C
ENDCHAR
STARTCHAR backslash
ENCODING 92
SWIDTH 359 0
DWIDTH 14 0
BBX 8 31 3 0
BITMAP
80
C0
C0
E0
E0
60
60
70
70
70
70
38
38
38
38
3C
1C
1C
1C
1C
0E
0E
0E
0E
0E
07
07
07
03
03
01
ENDCHAR
STARTCHAR bracketright
ENCODING 93
SWIDTH 319 0
DWIDTH 13 0
BBX 8 33 2 -2
BITMAP
F8
FC
0C
0C
0C
0C
0C
0C
0C
0C
0C
0C
0C
0C
0C
0E
06
06
06
06
06
06
06
06
06
06
06
06
06
06
07
3F
78
ENDCHAR
STARTCHAR asciicircum
ENCODING 94
SWIDTH 363 0
DWIDTH 15 0
BBX 9 21 3 7
BITMAP
0C00
0C00
1C00
1400
1C00
1400
1400
1400
3600
3600
3600
3600
2200
6200
6300
6300
6100
4180
C180
C180
4080
ENDCHAR
STARTCHAR underscore
ENCODING 95
SWIDTH 526 0
DWIDTH 21 0
BBX 16 2 5 -2
BITMAP
FFFF
FFFF
ENDCHAR
STARTCHAR grave
ENCODING 96
SWIDTH 378 0
DWIDTH 15 0
BBX 8 4 5 27
BITMAP
C0
F0
3C
07
ENDCHAR
STARTCHAR a
ENCODING 97
SWIDTH 299 0
DWIDTH 12 0
BBX 11 27 0 0
BITMAP
0700
0700
0700
0700
0700
0500
0D80
0D80
0D80
0D80
0980
0980
1980
1980
19C0
19C0
18C0
30C0
30C0
3EC0
37C0
30C0
70C0
60E0
60E0
E060
6060
ENDCHAR
STARTCHAR b
ENCODING 98
SWIDTH 285 0
DWIDTH 11 0
BBX 7 28 2 -1
BITMAP
70
7C
6C
66
66
66
66
66
66
66
66
6E
7C
7C
7C
6E
66
66
66
66
66
66
E6
E6
E6
EC
F8
70
ENDCHAR
STARTCHAR c
ENCODING 99
SWIDTH 279 0
DWIDTH 11 0
BBX 8 28 2 -1
BITMAP
0F
3E
30
60
60
E0
E0
E0
C0
C0
C0
C0
C0
C0
C0
C0
C0
C0
C0
C0
C0
C0
C0
E0
60
70
3F
1F
ENDCHAR
STARTCHAR d
ENCODING 100
SWIDTH 346 0
DWIDTH 14 0
BBX 10 27 2 0
BITMAP
7000
FC00
EE00
E700
6300
6180
6180
6180
61C0
60C0
60C0
60C0
60C0
60C0
60C0
60C0
60C0
60C0
60C0
61C0
6180
6180
6180
6300
6700
7E00
7800
ENDCHAR
STARTCHAR e
ENCODING 101
SWIDTH 284 0
DWIDTH 11 0
BBX 6 28 3 -1
BITMAP
F0
FC
FC
C0
C0
C0
C0
C0
C0
C0
C0
F8
F8
C0
C0
C0
C0
C0
C0
C0
C0
C0
C0
C0
C0
C0
FC
FC
ENDCHAR
STARTCHAR f
ENCODING 102
SWIDTH 247 0
DWIDTH 10 0
BBX 8 27 2 0
BITMAP
7C
7F
64
60
60
60
60
60
60
60
60
E0
F8
F8
C0
C0
C0
C0
C0
C0
C0
C0
C0
C0
C0
C0
C0
ENDCHAR
STARTCHAR g
ENCODING 103
SWIDTH 346 0
DWIDTH 14 0
BBX 10 27 2 0
BITMAP
0F00
3E00
3000
7000
6000
6000
E000
E000
E000
E000
C000
C000
C000
C000
C780
C7C0
C0C0
C0C0
C0C0
E0C0
E0C0
E0C0
60C0
70C0
71C0
3F80
1F00
ENDCHAR
STARTCHAR h
ENCODING 104
SWIDTH 331 0
DWIDTH 13 0
BBX 9 27 2 0
BITMAP
4300
E300
E300
E300
E300
E300
E300
6300
6300
6300
6300
6300
E300
FF00
6F00
E380
E380
E380
E380
E380
E380
E380
E380
E380
6380
6380
6180
ENDCHAR
STARTCHAR i
ENCODING 105
SWIDTH 226 0
DWIDTH 9 0
BBX 7 27 1 0
BITMAP
7C
FC
30
30
30
30
30
30
30
30
30
30
30
30
30
30
30
30
30
38
38
38
18
18
18
FE
FE
ENDCHAR
STARTCHAR j
ENCODING 106
SWIDTH 254 0
DWIDTH 10 0
BBX 9 30 0 -3
BITMAP
7F00
7F80
0C00
0C00
0C00
0C00
0C00
0C00
0C00
0C00
0C00
0C00
0C00
0C00
0C00
0C00
0C00
0C00
0C00
0C00
0C00
0C00
0C00
0C00
0C00
0C00
0C00
1800
F800
E000
ENDCHAR
STARTCHAR k
ENCODING 107
SWIDTH 350 0
DWIDTH 14 0
BBX 10 27 3 0
BITMAP
C180
E180
C380
C700
C700
CE00
CC00
DC00
D800
F800
F800
F800
F800
D800
CC00
CC00
CC00
CC00
C600
C600
C600
C700
C300
C380
C180
C1C0
C0C0
ENDCHAR
STARTCHAR l
ENCODING 108
SWIDTH 268 0
DWIDTH 11 0
BBX 7 28 3 -1
BITMAP
C0
C0
C0
C0
C0
C0
C0
C0
C0
C0
C0
C0
C0
C0
C0
C0
C0
C0
C0
C0
C0
C0
C0
C0
C0
FC
FE
C6
ENDCHAR
STARTCHAR m
ENCODING 109
SWIDTH 561 0
DWIDTH 22 0
BBX 18 29 2 -2
BITMAP
200180
700380
300380
380380
780780
780780
6C0780
6C0F80
6C0D80
660D80
660D80
661D80
671980
631980
631980
633980
63B180
61B180
61B1C0
61F1C0
61E1C0
E1E180
E1E180
E0C180
E0C180
E001C0
E001C0
6001C0
0001C0
ENDCHAR
STARTCHAR n
ENCODING 110
SWIDTH 479 0
DWIDTH 19 0
BBX 13 27 3 0
BITMAP
6018
E018
F018
F018
F818
F818
D818
DC18
CC18
CC18
CE18
C618
C618
C718
C318
C318
C318
C198
C198
C098
C098
C0F8
C0F0
C070
C070
C070
C070
ENDCHAR
STARTCHAR o
ENCODING 111
SWIDTH 360 0
DWIDTH 14 0
BBX 10 28 2 -1
BITMAP
3C00
7E00
6300
6180
C080
C0C0
C0C0
C0C0
C0C0
C0C0
C0C0
C0C0
C0C0
C0C0
C0C0
C0C0
C0C0
C0C0
C0C0
C0C0
E0C0
E0C0
60C0
61C0
6180
3380
3F00
1E00
ENDCHAR
STARTCHAR p
ENCODING 112
SWIDTH 281 0
DWIDTH 11 0
BBX 7 28 3 -1
BITMAP
F8
FC
CC
CC
C6
C6
C6
CE
CE
CE
CC
DC
F8
F0
C0
C0
C0
C0
C0
C0
C0
C0
C0
C0
C0
C0
C0
C0
ENDCHAR
STARTCHAR q
ENCODING 113
SWIDTH 358 0
DWIDTH 14 0
BBX 10 36 2 -9
BITMAP
1C00
3F00
6380
6180
60C0
60C0
C0C0
C0C0
C0C0
C0C0
C0C0
C0C0
C0C0
C0C0
C0C0
C0C0
C0C0
C0C0
C0C0
C0C0
C0C0
C0C0
C1C0
E180
6180
6180
2380
1F00
0600
0600
0600
0600
0200
0300
03C0
0180
ENDCHAR
STARTCHAR r
ENCODING 114
SWIDTH 295 0
DWIDTH 12 0
BBX 8 27 2 0
BITMAP
70
FC
CC
CE
C6
C6
C6
CE
CC
4C
7C
78
78
58
58
58
48
4C
4C
4C
4C
46
66
66
63
63
61
ENDCHAR
STARTCHAR s
ENCODING 115
SWIDTH 247 0
DWIDTH 10 0
BBX 7 28 1 -1
BITMAP
38
3C
60
60
60
C0
C0
40
60
60
70
30
38
18
1C
0C
0C
06
06
06
06
06
06
06
0C
0C
F8
70
ENDCHAR
STARTCHAR t
ENCODING 116
SWIDTH 256 0
DWIDTH 10 0
BBX 9 27 0 0
BITMAP
FF80
3F00
1800
0800
0800
0C00
0C00
0C00
0C00
0C00
0C00
0C00
0C00
0C00
0C00
0C00
0C00
0C00
0C00
0E00
0E00
0600
0600
0600
0600
0600
0400
ENDCHAR
STARTCHAR u
ENCODING 117
SWIDTH 361 0
DWIDTH 14 0
BBX 10 27 2 0
BITMAP
C0C0
C0C0
C0C0
C0C0
C0C0
C0C0
C0C0
C0C0
C0C0
C0C0
C0C0
C0C0
C0C0
C0C0
C0C0
C0C0
C0C0
C1C0
C180
C180
E180
6180
6180
6300
7300
3E00
1C00
ENDCHAR
STARTCHAR v
ENCODING 118
SWIDTH 352 0
DWIDTH 14 0
BBX 12 28 1 -1
BITMAP
C020
C070
E060
E060
6060
6060
7060
7040
30C0
30C0
3080
3080
1880
1880
1980
1980
1980
0980
0D80
0D80
0F00
0F00
0F00
0F00
0F00
0E00
0E00
0400
ENDCHAR
STARTCHAR w
ENCODING 119
SWIDTH 429 0
DWIDTH 17 0
BBX 14 28 1 -1
BITMAP
000C
C00C
E00C
610C
630C
638C
638C
639C
639C
629C
62DC
62D8
62D8
76D8
36D8
3658
3658
3658
3658
3678
3678
3E70
3C30
3C30
1C30
1C30
1830
0800
ENDCHAR
STARTCHAR x
ENCODING 120
SWIDTH 243 0
DWIDTH 10 0
BBX 8 27 1 0
BITMAP
C6
C6
E4
64
6C
6C
6C
3C
3C
38
38
18
18
18
18
18
18
38
3C
3C
3C
6E
66
66
66
67
63
ENDCHAR
STARTCHAR y
ENCODING 121
SWIDTH 283 0
DWIDTH 11 0
BBX 8 28 1 -1
BITMAP
01
C3
C3
C3
E7
67
66
76
3E
3E
1C
1C
1C
0C
0C
0C
0C
0C
0C
0C
0C
0C
0C
0C
0C
0C
0C
0C
ENDCHAR
STARTCHAR z
ENCODING 122
SWIDTH 292 0
DWIDTH 12 0
BBX 8 27 2 0
BITMAP
3F
3F
03
07
06
06
06
0C
0C
0C
1C
1C
18
18
38
38
30
70
70
70
60
E0
E0
E0
C0
FC
FC
ENDCHAR
STARTCHAR braceleft
ENCODING 123
SWIDTH 320 0
DWIDTH 13 0
BBX 9 31 2 -1
BITMAP
0300
0F80
1800
1800
1800
1000
1000
3000
1000
1800
1800
1800
1800
3000
F000
F000
3000
1800
1800
1800
1800
1800
1800
1800
1800
1800
1800
1800
1800
1F80
0F80
ENDCHAR
STARTCHAR bar
ENCODING 124
SWIDTH 174 0
DWIDTH 7 0
BBX 3 33 2 -2
BITMAP
40
E0
E0
E0
E0
E0
E0
E0
E0
E0
E0
E0
E0
E0
E0
E0
E0
E0
E0
60
60
60
60
60
60
60
60
60
60
60
60
60
40
ENDCHAR
STARTCHAR braceright
ENCODING 125
SWIDTH 315 0
DWIDTH 13 0
BBX 10 31 1 -1
BITMAP
3000
7C00
4E00
0600
0600
0600
0600
0600
0600
0600
0600
0600
0600
0600
0700
03C0
0380
0600
0600
0600
0600
0600
0600
0600
0600
0600
0600
0600
0600
FC00
7800
ENDCHAR
STARTCHAR asciitilde
ENCODING 126
SWIDTH 475 0
DWIDTH 19 0
BBX 13 4 3 21
BITMAP
3010
FF38
CFF0
C3F0
ENDCHAR
STARTCHAR uni00A0
ENCODING 160
SWIDTH 183 0
DWIDTH 7 0
BBX 1 1 0 0
BITMAP
00
ENDCHAR
STARTCHAR exclamdown
ENCODING 161
SWIDTH 217 0
DWIDTH 9 0
BBX 3 31 3 -4
BITMAP
E0
E0
E0
00
00
00
00
40
40
40
40
40
40
40
C0
C0
C0
C0
C0
C0
C0
C0
C0
C0
C0
C0
C0
C0
C0
C0
C0
ENDCHAR
STARTCHAR cent
ENCODING 162
SWIDTH 413 0
DWIDTH 17 0
BBX 11 29 3 -1
BITMAP
0800
1800
1800
0800
1E00
3B80
6980
6800
6C00
6C00
CC00
CC00
CC00
CC00
C400
C400
E400
6400
6440
7660
3EC0
1F80
0700
0600
0600
0600
0600
0600
0600
ENDCHAR
STARTCHAR sterling
ENCODING 163
SWIDTH 396 0
DWIDTH 16 0
BBX 14 32 2 1
BITMAP
0C00
1E00
3300
3300
3180
2080
6000
6000
6000
6000
2000
2000
3000
7F80
FE00
3000
1000
1800
1800
1800
0800
0C00
0C00
0C00
0C00
0C00
0C00
0C00
0C00
1C00
7FFC
71F8
ENDCHAR
STARTCHAR currency
ENCODING 164
SWIDTH 492 0
DWIDTH 20 0
BBX 15 23 2 4
BITMAP
000E
030C
67FC
7E78
3C38
1C18
3818
3008
300C
300C
300C
300C
300C
300C
300C
300C
3018
3018
3818
3838
7C7C
EFEE
4304
ENDCHAR
STARTCHAR yen
ENCODING 165
SWIDTH 483 0
DWIDTH 19 0
BBX 16 37 1 0
BITMAP
0004
0006
C00E
E00C
701C
301C
3818
1C18
0C38
0E30
0E30
0770
0770
03E0
01E0
01E0
1FFF
3FFF
00C0
00C0
3FFF
1FFF
00C0
00C0
00C0
00C0
00C0
00C0
00C0
01C0
01C0
01C0
01C0
01C0
01C0
0180
0180
ENDCHAR
STARTCHAR brokenbar
ENCODING 166
SWIDTH 174 0
DWIDTH 7 0
BBX 3 33 2 -2
BITMAP
40
C0
E0
E0
E0
E0
E0
E0
E0
E0
E0
60
60
60
40
00
00
00
40
60
60
60
60
60
60
60
60
60
60
60
60
60
40
ENDCHAR
STARTCHAR section
ENCODING 167
SWIDTH 264 0
DWIDTH 11 0
BBX 7 29 2 0
BITMAP
30
78
C0
C0
C0
C0
C0
60
70
70
F8
D8
DC
CC
CC
C6
E6
6C
3C
38
18
0C
0C
0C
0C
0C
1C
78
70
ENDCHAR
STARTCHAR dieresis
ENCODING 168
SWIDTH 352 0
DWIDTH 14 0
BBX 9 3 2 27
BITMAP
E180
E180
E180
ENDCHAR
STARTCHAR copyright
ENCODING 169
SWIDTH 633 0
DWIDTH 25 0
BBX 19 36 3 0
BITMAP
03E000
0FF800
1C1C00
380E00
300700
700300
60C380
63F180
633980
E71DC0
C60CC0
CE00C0
CE00E0
CE00E0
CC0060
CC0060
CC0060
CC0060
CC0060
CC0060
CC0060
CC0060
CC0060
CC0060
CC0060
CE0060
C60060
E60C60
E30CC0
63FCC0
60F1C0
700180
300380
380700
1FFE00
03F800
ENDCHAR
STARTCHAR ordfeminine
ENCODING 170
SWIDTH 299 0
DWIDTH 12 0
BBX 7 15 2 15
BITMAP
1C
1C
1C
1C
1C
3C
24
24
26
66
7E
7E
66
C6
C6
ENDCHAR
STARTCHAR guillemotleft
ENCODING 171
SWIDTH 447 0
DWIDTH 18 0
BBX 14 31 2 -1
BITMAP
0200
0310
0638
0630
0630
0C70
0C60
1C60
18C0
18C0
3980
3180
7180
7300
6300
E700
C700
6300
6300
6180
3180
38C0
18C0
1CE0
0C60
0E70
0630
0338
0398
019C
018C
ENDCHAR
STARTCHAR logicalnot
ENCODING 172
SWIDTH 536 0
DWIDTH 21 0
BBX 16 7 2 9
BITMAP
3FFF
FFFF
0003
0003
0003
0003
0003
ENDCHAR
STARTCHAR uni00AD
ENCODING 173
SWIDTH 283 0
DWIDTH 11 0
BBX 5 2 3 14
BITMAP
38
F8
ENDCHAR
STARTCHAR registered
ENCODING 174
SWIDTH 592 0
DWIDTH 24 0
BBX 20 42 2 -4
BITMAP
006000
03FC00
0F0E00
1C0700
180380
380180
31C1C0
77F0C0
6738C0
6618C0
6618C0
E61C60
E61C60
C61C60
C61C60
C61C60
C63860
C77860
C7F060
C7E060
C76060
C76060
C77070
C73070
C73070
C73070
C73860
C31860
C31860
C31C60
E31C60
E30C60
E30E60
638EE0
6386C0
7102C0
3001C0
300180
180380
0E0F00
07FE00
01F800
ENDCHAR
STARTCHAR macron
ENCODING 175
SWIDTH 439 0
DWIDTH 18 0
BBX 11 2 3 28
BITMAP
FFC0
FFE0
ENDCHAR
STARTCHAR degree
ENCODING 176
SWIDTH 431 0
DWIDTH 17 0
BBX 11 11 3 20
BITMAP
0C00
3F80
60C0
6040
C060
C060
4060
4040
60C0
3F80
1E00
ENDCHAR
STARTCHAR plusminus
ENCODING 177
SWIDTH 439 0
DWIDTH 18 0
BBX 11 17 3 3
BITMAP
0C00
0C00
0C00
0C00
0C00
0E00
FFE0
7FE0
0E00
0E00
0E00
0E00
0E00
0000
0000
FFE0
FFE0
ENDCHAR
STARTCHAR uni00B2
ENCODING 178
SWIDTH 264 0
DWIDTH 11 0
BBX 6 18 1 13
BITMAP
38
6C
4C
0C
0C
0C
0C
0C
08
18
18
18
30
30
20
60
7C
FC
ENDCHAR
STARTCHAR uni00B3
ENCODING 179
SWIDTH 270 0
DWIDTH 11 0
BBX 6 18 1 13
BITMAP
70
D8
D8
18
0C
08
18
38
1C
0C
0C
0C
0C
0C
0C
4C
78
30
ENDCHAR
STARTCHAR acute
ENCODING 180
SWIDTH 343 0
DWIDTH 14 0
BBX 7 6 4 26
BITMAP
06
0E
1C
38
E0
80
ENDCHAR
STARTCHAR uni00B5
ENCODING 181
SWIDTH 361 0
DWIDTH 14 0
BBX 10 32 2 -5
BITMAP
C0C0
C0C0
C0C0
C0C0
C0C0
C0C0
C0C0
C0C0
C0C0
C0C0
C0C0
C0C0
C0C0
C0C0
C0C0
C0C0
C0C0
C1C0
C180
C180
E180
E180
E180
E300
F300
FE00
DC00
C000
C000
C000
C000
C000
ENDCHAR
STARTCHAR paragraph
ENCODING 182
SWIDTH 478 0
DWIDTH 19 0
BBX 17 37 0 -1
BITMAP
003E00
07FF80
1C6600
386600
706600
606600
607600
607600
E07600
603600
603600
703600
383600
1FF600
01F600
003600
003600
003600
003600
003600
003600
003600
007600
007600
007600
007600
007600
006600
006600
006600
006600
006600
006600
006600
006600
006600
000600
ENDCHAR
STARTCHAR periodcentered
ENCODING 183
SWIDTH 289 0
DWIDTH 12 0
BBX 3 3 4 13
BITMAP
60
E0
60
ENDCHAR
STARTCHAR cedilla
ENCODING 184
SWIDTH 378 0
DWIDTH 15 0
BBX 5 9 4 -9
BITMAP
40
40
70
38
08
08
08
18
F0
ENDCHAR
STARTCHAR uni00B9
ENCODING 185
SWIDTH 238 0
DWIDTH 10 0
BBX 6 17 1 14
BITMAP
F0
F0
30
30
30
30
30
30
30
30
30
30
30
10
10
3C
7C
ENDCHAR
STARTCHAR ordmasculine
ENCODING 186
SWIDTH 292 0
DWIDTH 12 0
BBX 7 16 2 15
BITMAP
78
FC
C6
C6
C6
C6
C6
C6
C6
C6
C6
C6
C6
6E
7C
10
ENDCHAR
STARTCHAR guillemotright
ENCODING 187
SWIDTH 456 0
DWIDTH 18 0
BBX 14 31 2 -1
BITMAP
0100
0300
6380
7180
3180
30C0
38C0
18E0
1860
0C60
0C70
0630
0638
0338
0318
031C
038C
0318
0718
0618
0630
0C70
0C60
18E0
18C0
31C0
3380
6300
6700
C600
C600
ENDCHAR
STARTCHAR onequarter
ENCODING 188
SWIDTH 653 0
DWIDTH 26 0
BBX 23 32 1 -1
BITMAP
600000
F00300
300600
300600
300600
300600
300C00
300C00
300C00
300C00
301C00
301800
301800
301800
103800
1030C0
7C30C0
3870C0
0070C4
0070CC
0060CC
00E0CC
00E0CC
00E0CC
00C0FE
00C0FE
01C00C
01C00C
01C00C
01800C
01800C
018004
ENDCHAR
STARTCHAR onehalf
ENCODING 189
SWIDTH 661 0
DWIDTH 26 0
BBX 23 31 1 0
BITMAP
F00300
F00300
300700
300600
300600
300600
300E00
300C00
300C00
300C00
301C00
301800
301800
101838
10386C
3C306C
7C3004
003004
00700C
00700C
00600C
00E00C
00E00C
00E008
00C018
00C018
01C030
01C030
01C020
01807E
01807C
ENDCHAR
STARTCHAR threequarters
ENCODING 190
SWIDTH 653 0
DWIDTH 26 0
BBX 23 32 1 -1
BITMAP
700400
D80600
D80600
180E00
0C0C00
080C00
180C00
381C00
1C1800
0C1800
0C1800
0C3800
0C3000
0C3000
0C3040
4C70C0
7870C0
3060C0
0060C4
00E0CC
00E0CC
00C0CC
00C0CC
01C0CC
01C0FE
01C0FE
01800C
01800C
03800C
03800C
03000C
010004
ENDCHAR
STARTCHAR questiondown
ENCODING 191
SWIDTH 266 0
DWIDTH 11 0
BBX 6 31 2 -4
BITMAP
38
38
18
00
00
18
18
18
18
18
10
10
30
30
30
30
30
60
60
60
60
60
E0
E0
C4
CC
EC
6C
6C
7C
18
ENDCHAR
STARTCHAR Agrave
ENCODING 192
SWIDTH 350 0
DWIDTH 14 0
BBX 11 35 1 0
BITMAP
3000
7C00
1E00
0380
0300
0300
0700
0700
0780
0F80
0D80
0D80
0D80
0D80
1980
1980
1980
19C0
19C0
39C0
30C0
30C0
30C0
30C0
30C0
70C0
7FC0
7FC0
60C0
60C0
60E0
C0E0
C0E0
C0E0
40C0
ENDCHAR
STARTCHAR Aacute
ENCODING 193
SWIDTH 350 0
DWIDTH 14 0
BBX 13 37 1 0
BITMAP
0010
0078
00F0
01C0
0380
0200
0300
0300
0700
0700
0780
0F80
0D80
0D80
0D80
0D80
1980
1980
1980
19C0
19C0
39C0
30C0
30C0
30C0
30C0
30C0
70C0
7FC0
7FC0
60C0
60C0
60E0
C0E0
C0E0
C0E0
40C0
ENDCHAR
STARTCHAR Acircumflex
ENCODING 194
SWIDTH 350 0
DWIDTH 14 0
BBX 11 40 1 0
BITMAP
0180
0180
03C0
03C0
0640
0660
0C60
0420
0000
0300
0300
0700
0700
0780
0F80
0D80
0D80
0D80
0D80
1980
1980
1980
19C0
19C0
39C0
30C0
30C0
30C0
30C0
30C0
70C0
7FC0
7FC0
60C0
60C0
60E0
C0E0
C0E0
C0E0
40C0
ENDCHAR
STARTCHAR Atilde
ENCODING 195
SWIDTH 350 0
DWIDTH 14 0
BBX 11 35 1 0
BITMAP
0C20
3E60
33E0
31C0
0300
0300
0700
0700
0780
0F80
0D80
0D80
0D80
0D80
1980
1980
1980
19C0
19C0
39C0
30C0
30C0
30C0
30C0
30C0
70C0
7FC0
7FC0
60C0
60C0
60E0
C0E0
C0E0
C0E0
40C0
ENDCHAR
STARTCHAR Adieresis
ENCODING 196
SWIDTH 350 0
DWIDTH 14 0
BBX 12 35 1 0
BITMAP
1C30
1C70
1C30
0000
0300
0300
0700
0700
0780
0F80
0D80
0D80
0D80
0D80
1980
1980
1980
19C0
19C0
39C0
30C0
30C0
30C0
30C0
30C0
70C0
7FC0
7FC0
60C0
60C0
60E0
C0E0
C0E0
C0E0
40C0
ENDCHAR
STARTCHAR Aring
ENCODING 197
SWIDTH 350 0
DWIDTH 14 0
BBX 11 38 1 0
BITMAP
0300
0FC0
0C60
0860
0860
0840
0FC0
0780
0300
0700
0700
0780
0F80
0D80
0D80
0D80
0D80
1980
1980
1980
19C0
19C0
39C0
30C0
30C0
30C0
30C0
30C0
70C0
7FC0
7FC0
60C0
60C0
60E0
C0E0
C0E0
C0E0
40C0
ENDCHAR
STARTCHAR AE
ENCODING 198
SWIDTH 491 0
DWIDTH 20 0
BBX 16 32 2 -1
BITMAP
00FC
00FC
01C0
01C0
01C0
03C0
03C0
03C0
06C0
06C0
06C0
0CC0
0CC0
0CC0
0CC0
18C0
18F8
1FFC
38C0
30C0
30C0
30C0
70C0
60C0
60C0
60C0
60C0
E0C0
C0C0
C0CE
C0FF
0080
ENDCHAR
STARTCHAR Ccedilla
ENCODING 199
SWIDTH 337 0
DWIDTH 13 0
BBX 11 40 2 -9
BITMAP
0F00
3F80
7180
E000
E000
C000
C000
C000
C000
C000
C000
C000
C000
C000
C000
C000
C000
C000
C000
C000
C000
C000
C000
C000
E000
6000
6000
7040
38E0
1FC0
0F80
0800
0800
0E00
0F00
0100
0100
0300
0300
1E00
ENDCHAR
STARTCHAR Egrave
ENCODING 200
SWIDTH 278 0
DWIDTH 11 0
BBX 10 36 -1 0
BITMAP
6000
F800
3C00
0700
0000
0F00
1F80
1F00
1C00
1C00
0C00
0C00
0C00
0C00
0C00
0C00
0C00
0C00
0C00
0F80
0F80
0C00
0C00
0C00
0C00
0C00
0C00
0C00
0C00
0C00
0C00
0C00
0C00
0C00
0FC0
0FC0
ENDCHAR
STARTCHAR Eacute
ENCODING 201
SWIDTH 278 0
DWIDTH 11 0
BBX 9 38 2 0
BITMAP
0100
0780
0F00
1C00
3800
2000
0000
7800
FC00
F800
E000
E000
6000
6000
6000
6000
6000
6000
6000
6000
6000
7C00
7C00
6000
6000
6000
6000
6000
6000
6000
6000
6000
6000
6000
6000
6000
7E00
7E00
ENDCHAR
STARTCHAR Ecircumflex
ENCODING 202
SWIDTH 278 0
DWIDTH 11 0
BBX 7 40 2 0
BITMAP
18
1C
3C
3C
64
66
C6
42
00
78
FC
F8
E0
E0
60
60
60
60
60
60
60
60
60
7C
7C
60
60
60
60
60
60
60
60
60
60
60
60
60
7E
7E
ENDCHAR
STARTCHAR Edieresis
ENCODING 203
SWIDTH 278 0
DWIDTH 11 0
BBX 9 35 1 0
BITMAP
E180
E180
E180
0000
3C00
7E00
7C00
7000
7000
3000
3000
3000
3000
3000
3000
3000
3000
3000
3E00
3E00
3000
3000
3000
3000
3000
3000
3000
3000
3000
3000
3000
3000
3000
3F00
3F00
ENDCHAR
STARTCHAR Igrave
ENCODING 204
SWIDTH 257 0
DWIDTH 10 0
BBX 11 36 -2 0
BITMAP
6000
F800
3C00
0700
0000
07C0
1F80
0600
0600
0600
0600
0600
0600
0600
0600
0600
0600
0700
0700
0300
0300
0300
0300
0300
0300
0300
0300
0300
0300
0300
0300
0300
0300
0300
1FE0
0FC0
ENDCHAR
STARTCHAR Iacute
ENCODING 205
SWIDTH 257 0
DWIDTH 10 0
BBX 9 38 1 0
BITMAP
0100
0780
0F00
1C00
3800
2000
0000
3E00
FC00
3000
3000
3000
3000
3000
3000
3000
3000
3000
3000
3800
3800
1800
1800
1800
1800
1800
1800
1800
1800
1800
1800
1800
1800
1800
1800
1800
FF00
7E00
ENDCHAR
STARTCHAR Icircumflex
ENCODING 206
SWIDTH 257 0
DWIDTH 10 0
BBX 8 40 1 0
BITMAP
18
1C
3C
3C
64
66
C6
42
00
3E
FC
30
30
30
30
30
30
30
30
30
30
38
38
18
18
18
18
18
18
18
18
18
18
18
18
18
18
18
FF
7E
ENDCHAR
STARTCHAR Idieresis
ENCODING 207
SWIDTH 257 0
DWIDTH 10 0
BBX 9 35 0 0
BITMAP
E180
E180
E180
0000
1F00
7E00
1800
1800
1800
1800
1800
1800
1800
1800
1800
1800
1C00
1C00
0C00
0C00
0C00
0C00
0C00
0C00
0C00
0C00
0C00
0C00
0C00
0C00
0C00
0C00
0C00
7F80
3F00
ENDCHAR
STARTCHAR Eth
ENCODING 208
SWIDTH 421 0
DWIDTH 17 0
BBX 13 31 0 0
BITMAP
1F80
1FC0
19E0
18F0
1870
1830
1838
1818
1818
1818
1818
1818
1818
1818
3F18
FF98
7C18
0C18
0C18
0C18
0C18
0C38
0C30
0C30
0C70
0C60
0CE0
0DC0
0F80
1F00
0E00
ENDCHAR
STARTCHAR Ntilde
ENCODING 209
SWIDTH 412 0
DWIDTH 16 0
BBX 12 35 2 0
BITMAP
1840
3E60
37E0
33F0
4030
E030
E030
E030
F030
F030
F030
D830
D830
D830
D830
CC30
CC20
CC20
C620
C620
C620
C660
C360
C360
C360
C160
C160
41E0
41E0
60E0
60E0
60E0
6060
6060
E020
ENDCHAR
STARTCHAR Ograve
ENCODING 210
SWIDTH 355 0
DWIDTH 14 0
BBX 11 37 1 -1
BITMAP
C000
F000
7C00
0600
0000
1E00
3F00
3180
7180
60C0
60C0
60C0
6040
6060
6060
6060
6060
6060
6060
6060
6060
6060
6060
6060
6060
6060
6060
6060
6060
3060
3060
3040
30C0
18C0
18C0
0F80
0700
ENDCHAR
STARTCHAR Oacute
ENCODING 211
SWIDTH 355 0
DWIDTH 14 0
BBX 10 39 2 -1
BITMAP
00C0
01C0
0380
0F00
1C00
1000
0000
3C00
7E00
6300
E300
C180
C180
C180
C080
C0C0
C0C0
C0C0
C0C0
C0C0
C0C0
C0C0
C0C0
C0C0
C0C0
C0C0
C0C0
C0C0
C0C0
C0C0
C0C0
60C0
60C0
6080
6180
3180
3180
1F00
0E00
ENDCHAR
STARTCHAR Ocircumflex
ENCODING 212
SWIDTH 355 0
DWIDTH 14 0
BBX 10 41 2 -1
BITMAP
0400
0E00
0E00
1A00
1B00
3300
3100
2100
0000
3C00
7E00
6300
E300
C180
C180
C180
C080
C0C0
C0C0
C0C0
C0C0
C0C0
C0C0
C0C0
C0C0
C0C0
C0C0
C0C0
C0C0
C0C0
C0C0
C0C0
C0C0
60C0
60C0
6080
6180
3180
3180
1F00
0E00
ENDCHAR
STARTCHAR Otilde
ENCODING 213
SWIDTH 355 0
DWIDTH 14 0
BBX 11 37 1 -1
BITMAP
3080
7DC0
EFC0
4780
0000
1E00
3F00
3180
7180
60C0
60C0
60C0
6040
6060
6060
6060
6060
6060
6060
6060
6060
6060
6060
6060
6060
6060
6060
6060
6060
3060
3060
3040
30C0
18C0
18C0
0F80
0700
ENDCHAR
STARTCHAR Odieresis
ENCODING 214
SWIDTH 355 0
DWIDTH 14 0
BBX 10 36 2 -1
BITMAP
6180
E1C0
6180
0000
3C00
7E00
6300
E300
C180
C180
C180
C080
C0C0
C0C0
C0C0
C0C0
C0C0
C0C0
C0C0
C0C0
C0C0
C0C0
C0C0
C0C0
C0C0
C0C0
C0C0
C0C0
60C0
60C0
6080
6180
3180
3180
1F00
0E00
ENDCHAR
STARTCHAR multiply
ENCODING 215
SWIDTH 404 0
DWIDTH 16 0
BBX 10 10 3 8
BITMAP
4000
C180
E380
7F00
3E00
1E00
3F00
7380
61C0
0180
ENDCHAR
STARTCHAR Oslash
ENCODING 216
SWIDTH 356 0
DWIDTH 14 0
BBX 10 41 2 -5
BITMAP
0180
0180
0180
0100
0100
3D00
7F00
6300
E380
C380
C380
C780
C7C0
C4C0
C4C0
C4C0
C4C0
CCC0
CCC0
C8C0
C8C0
C8C0
C8C0
D8C0
D0C0
D0C0
D0C0
D0C0
F0C0
70C0
60C0
6080
6180
3180
7180
7F00
4E00
4000
4000
4000
C000
ENDCHAR
STARTCHAR Ugrave
ENCODING 217
SWIDTH 401 0
DWIDTH 16 0
BBX 11 36 2 -1
BITMAP
C000
F000
3C00
0600
C040
C0E0
C0E0
C0E0
C060
C060
C060
E060
E060
E060
E060
E060
E060
E060
E060
E060
E060
E060
E060
6060
6060
6060
6060
7060
7060
3060
3060
3860
1860
1C60
0FC0
0780
ENDCHAR
STARTCHAR Uacute
ENCODING 218
SWIDTH 401 0
DWIDTH 16 0
BBX 11 38 2 -1
BITMAP
0060
00E0
01C0
0380
0E00
0800
C040
C0E0
C0E0
C0E0
C060
C060
C060
E060
E060
E060
E060
E060
E060
E060
E060
E060
E060
E060
E060
6060
6060
6060
6060
7060
7060
3060
3060
3860
1860
1C60
0FC0
0780
ENDCHAR
STARTCHAR Ucircumflex
ENCODING 219
SWIDTH 401 0
DWIDTH 16 0
BBX 11 41 2 -1
BITMAP
0200
0700
0500
0D80
0D80
1980
1880
1080
0000
C040
C0E0
C0E0
C0E0
C060
C060
C060
E060
E060
E060
E060
E060
E060
E060
E060
E060
E060
E060
E060
6060
6060
6060
6060
7060
7060
3060
3060
3860
1860
1C60
0FC0
0780
ENDCHAR
STARTCHAR Udieresis
ENCODING 220
SWIDTH 401 0
DWIDTH 16 0
BBX 11 36 2 -1
BITMAP
30C0
30E0
30E0
0000
C040
C0E0
C0E0
C0E0
C060
C060
C060
E060
E060
E060
E060
E060
E060
E060
E060
E060
E060
E060
E060
6060
6060
6060
6060
7060
7060
3060
3060
3860
1860
1C60
0FC0
0780
ENDCHAR
STARTCHAR Yacute
ENCODING 221
SWIDTH 265 0
DWIDTH 11 0
BBX 10 38 1 -1
BITMAP
00C0
01C0
03C0
0700
0C00
1000
8600
C600
C600
C600
CE00
EE00
EE00
6C00
6C00
6C00
3C00
3C00
3C00
3800
1800
1800
1800
1800
1800
1800
1800
1800
1800
1800
1800
1800
1800
1800
1800
1C00
1C00
1800
ENDCHAR
STARTCHAR Thorn
ENCODING 222
SWIDTH 262 0
DWIDTH 10 0
BBX 7 31 2 0
BITMAP
C0
C0
C0
C0
F0
F8
DC
CC
C6
C6
C6
C6
C6
C6
C6
C6
CC
DC
D8
F0
E0
C0
C0
C0
C0
C0
E0
E0
E0
E0
40
ENDCHAR
STARTCHAR germandbls
ENCODING 223
SWIDTH 323 0
DWIDTH 13 0
BBX 9 32 2 -1
BITMAP
3800
7C00
C600
C600
C600
C600
C600
C600
C600
C600
CE00
CC00
CC00
D800
D800
CC00
C600
C300
C300
C300
C300
C180
C180
C180
C300
C300
C300
C600
CE00
CC00
C000
C000
ENDCHAR
STARTCHAR agrave
ENCODING 224
SWIDTH 299 0
DWIDTH 12 0
BBX 11 33 0 0
BITMAP
6000
7800
1E00
0380
0000
0000
0700
0700
0700
0700
0700
0500
0D80
0D80
0D80
0D80
0980
0980
1980
1980
19C0
19C0
18C0
30C0
30C0
3EC0
37C0
30C0
70C0
60E0
60E0
E060
6060
ENDCHAR
STARTCHAR aacute
ENCODING 225
SWIDTH 299 0
DWIDTH 12 0
BBX 13 35 0 0
BITMAP
0018
0038
0070
01E0
0380
0200
0000
0000
0700
0700
0700
0700
0700
0500
0D80
0D80
0D80
0D80
0980
0980
1980
1980
19C0
19C0
18C0
30C0
30C0
3EC0
37C0
30C0
70C0
60E0
60E0
E060
6060
ENDCHAR
STARTCHAR acircumflex
ENCODING 226
SWIDTH 299 0
DWIDTH 12 0
BBX 11 36 0 0
BITMAP
0300
0380
0780
0680
04C0
0CC0
0CC0
0840
0000
0700
0700
0700
0700
0700
0500
0D80
0D80
0D80
0D80
0980
0980
1980
1980
19C0
19C0
18C0
30C0
30C0
3EC0
37C0
30C0
70C0
60E0
60E0
E060
6060
ENDCHAR
STARTCHAR atilde
ENCODING 227
SWIDTH 299 0
DWIDTH 12 0
BBX 12 33 0 0
BITMAP
0C20
1E70
33E0
11E0
0000
0000
0700
0700
0700
0700
0700
0500
0D80
0D80
0D80
0D80
0980
0980
1980
1980
19C0
19C0
18C0
30C0
30C0
3EC0
37C0
30C0
70C0
60E0
60E0
E060
6060
ENDCHAR
STARTCHAR adieresis
ENCODING 228
SWIDTH 299 0
DWIDTH 12 0
BBX 12 33 0 0
BITMAP
1860
3870
1860
0000
0000
0000
0700
0700
0700
0700
0700
0500
0D80
0D80
0D80
0D80
0980
0980
1980
1980
19C0
19C0
18C0
30C0
30C0
3EC0
37C0
30C0
70C0
60E0
60E0
E060
6060
ENDCHAR
STARTCHAR aring
ENCODING 229
SWIDTH 299 0
DWIDTH 12 0
BBX 11 37 0 0
BITMAP
0700
0FC0
0CC0
1860
1840
0840
0FC0
0780
0000
0000
0700
0700
0700
0700
0700
0500
0D80
0D80
0D80
0D80
0980
0980
1980
1980
19C0
19C0
18C0
30C0
30C0
3EC0
37C0
30C0
70C0
60E0
60E0
E060
6060
ENDCHAR
STARTCHAR ae
ENCODING 230
SWIDTH 438 0
DWIDTH 18 0
BBX 16 32 2 -1
BITMAP
00FC
00FC
01C0
01C0
01C0
03C0
03C0
03C0
06C0
06C0
06C0
0CC0
0CC0
0CC0
0CC0
18C0
18F8
1FFC
38C0
30C0
30C0
30C0
70C0
60C0
60C0
60C0
60C0
E0C0
C0C0
C0CE
C0FF
0080
ENDCHAR
STARTCHAR ccedilla
ENCODING 231
SWIDTH 279 0
DWIDTH 11 0
BBX 8 36 2 -9
BITMAP
0F
3E
30
60
60
E0
E0
E0
C0
C0
C0
C0
C0
C0
C0
C0
C0
C0
C0
C0
C0
C0
C0
E0
60
70
3F
1F
08
1C
0E
02
03
02
06
1C
ENDCHAR
STARTCHAR egrave
ENCODING 232
SWIDTH 284 0
DWIDTH 11 0
BBX 10 33 -1 -1
BITMAP
6000
F800
3C00
0700
0000
0F00
0FC0
0FC0
0C00
0C00
0C00
0C00
0C00
0C00
0C00
0C00
0F80
0F80
0C00
0C00
0C00
0C00
0C00
0C00
0C00
0C00
0C00
0C00
0C00
0C00
0C00
0FC0
0FC0
ENDCHAR
STARTCHAR eacute
ENCODING 233
SWIDTH 284 0
DWIDTH 11 0
BBX 8 35 3 -1
BITMAP
03
07
0F
1C
30
40
00
F0
FC
FC
C0
C0
C0
C0
C0
C0
C0
C0
F8
F8
C0
C0
C0
C0
C0
C0
C0
C0
C0
C0
C0
C0
C0
FC
FC
ENDCHAR
STARTCHAR ecircumflex
ENCODING 234
SWIDTH 284 0
DWIDTH 11 0
BBX 7 36 2 -1
BITMAP
18
38
38
6C
6C
C4
C6
84
78
7E
7E
60
60
60
60
60
60
60
60
7C
7C
60
60
60
60
60
60
60
60
60
60
60
60
60
7E
7E
ENDCHAR
STARTCHAR edieresis
ENCODING 235
SWIDTH 284 0
DWIDTH 11 0
BBX 9 33 1 -1
BITMAP
C380
E380
C380
0000
0000
3C00
3F00
3F00
3000
3000
3000
3000
3000
3000
3000
3000
3E00
3E00
3000
3000
3000
3000
3000
3000
3000
3000
3000
3000
3000
3000
3000
3F00
3F00
ENDCHAR
STARTCHAR igrave
ENCODING 236
SWIDTH 226 0
DWIDTH 9 0
BBX 10 33 -2 0
BITMAP
6000
F800
3C00
0700
0000
0000
0F80
1F80
0600
0600
0600
0600
0600
0600
0600
0600
0600
0600
0600
0600
0600
0600
0600
0600
0600
0700
0700
0700
0300
0300
0300
1FC0
1FC0
ENDCHAR
STARTCHAR iacute
ENCODING 237
SWIDTH 226 0
DWIDTH 9 0
BBX 9 35 1 0
BITMAP
0180
0380
0700
0E00
1800
2000
0000
0000
7C00
FC00
3000
3000
3000
3000
3000
3000
3000
3000
3000
3000
3000
3000
3000
3000
3000
3000
3000
3800
3800
3800
1800
1800
1800
FE00
FE00
ENDCHAR
STARTCHAR icircumflex
ENCODING 238
SWIDTH 226 0
DWIDTH 9 0
BBX 7 36 1 0
BITMAP
10
38
38
68
6C
CC
C4
84
00
7C
FC
30
30
30
30
30
30
30
30
30
30
30
30
30
30
30
30
30
38
38
38
18
18
18
FE
FE
ENDCHAR
STARTCHAR idieresis
ENCODING 239
SWIDTH 226 0
DWIDTH 9 0
BBX 10 33 -1 0
BITMAP
6180
E1C0
6180
0000
0000
0000
1F00
3F00
0C00
0C00
0C00
0C00
0C00
0C00
0C00
0C00
0C00
0C00
0C00
0C00
0C00
0C00
0C00
0C00
0C00
0E00
0E00
0E00
0600
0600
0600
3F80
3F80
ENDCHAR
STARTCHAR eth
ENCODING 240
SWIDTH 287 0
DWIDTH 11 0
BBX 8 31 2 0
BITMAP
60
70
18
18
1F
FF
FC
0C
0C
0C
0E
06
0E
3E
6E
66
66
46
C6
C6
C6
C6
C6
C6
C6
C6
C6
C6
C6
7C
38
ENDCHAR
STARTCHAR ntilde
ENCODING 241
SWIDTH 479 0
DWIDTH 19 0
BBX 13 32 3 0
BITMAP
0860
3E60
33E0
31C0
0000
6018
E018
F018
F018
F818
F818
D818
DC18
CC18
CC18
CE18
C618
C618
C718
C318
C318
C318
C198
C198
C098
C098
C0F8
C0F0
C070
C070
C070
C070
ENDCHAR
STARTCHAR ograve
ENCODING 242
SWIDTH 360 0
DWIDTH 14 0
BBX 12 33 0 -1
BITMAP
6000
F800
3C00
0700
0000
0F00
1F80
18C0
1860
3020
3030
3030
3030
3030
3030
3030
3030
3030
3030
3030
3030
3030
3030
3030
3030
3830
3830
1830
1870
1860
0CE0
0FC0
0780
ENDCHAR
STARTCHAR oacute
ENCODING 243
SWIDTH 360 0
DWIDTH 14 0
BBX 10 35 2 -1
BITMAP
00C0
01C0
03C0
0700
0C00
1000
0000
3C00
7E00
6300
6180
C080
C0C0
C0C0
C0C0
C0C0
C0C0
C0C0
C0C0
C0C0
C0C0
C0C0
C0C0
C0C0
C0C0
C0C0
C0C0
E0C0
E0C0
60C0
61C0
6180
3380
3F00
1E00
ENDCHAR
STARTCHAR ocircumflex
ENCODING 244
SWIDTH 360 0
DWIDTH 14 0
BBX 10 36 2 -1
BITMAP
0C00
1C00
1C00
3600
3600
6600
6300
4200
3C00
7E00
6300
6180
C080
C0C0
C0C0
C0C0
C0C0
C0C0
C0C0
C0C0
C0C0
C0C0
C0C0
C0C0
C0C0
C0C0
C0C0
C0C0
E0C0
E0C0
60C0
61C0
6180
3380
3F00
1E00
ENDCHAR
STARTCHAR otilde
ENCODING 245
SWIDTH 360 0
DWIDTH 14 0
BBX 10 33 2 -1
BITMAP
6100
F980
DF80
CF00
0000
3C00
7E00
6300
6180
C080
C0C0
C0C0
C0C0
C0C0
C0C0
C0C0
C0C0
C0C0
C0C0
C0C0
C0C0
C0C0
C0C0
C0C0
C0C0
E0C0
E0C0
60C0
61C0
6180
3380
3F00
1E00
ENDCHAR
STARTCHAR odieresis
ENCODING 246
SWIDTH 360 0
DWIDTH 14 0
BBX 10 33 2 -1
BITMAP
C380
C380
C380
0000
0000
3C00
7E00
6300
6180
C080
C0C0
C0C0
C0C0
C0C0
C0C0
C0C0
C0C0
C0C0
C0C0
C0C0
C0C0
C0C0
C0C0
C0C0
C0C0
E0C0
E0C0
60C0
61C0
6180
3380
3F00
1E00
ENDCHAR
STARTCHAR divide
ENCODING 247
SWIDTH 439 0
DWIDTH 18 0
BBX 11 11 3 7
BITMAP
0600
0E00
0400
0000
FFE0
7FE0
0000
0000
0400
0E00
0600
ENDCHAR
STARTCHAR oslash
ENCODING 248
SWIDTH 365 0
DWIDTH 15 0
BBX 10 37 2 -6
BITMAP
0100
0100
0100
0300
3F00
7F00
6300
6380
C280
C2C0
C6C0
C6C0
C4C0
C4C0
C4C0
C4C0
CCC0
CCC0
C8C0
C8C0
C8C0
C8C0
C8C0
D8C0
F8C0
70C0
70C0
71C0
7180
3380
3F00
3E00
2000
2000
2000
2000
2000
ENDCHAR
STARTCHAR ugrave
ENCODING 249
SWIDTH 361 0
DWIDTH 14 0
BBX 11 33 1 0
BITMAP
C000
F000
3C00
0600
0000
0000
6060
6060
6060
6060
6060
6060
6060
6060
6060
6060
6060
6060
6060
6060
6060
6060
6060
60E0
60C0
60C0
70C0
30C0
30C0
3180
3980
1F00
0E00
ENDCHAR
STARTCHAR uacute
ENCODING 250
SWIDTH 361 0
DWIDTH 14 0
BBX 11 35 2 0
BITMAP
0040
01E0
03C0
0700
0E00
0800
0000
0000
C0C0
C0C0
C0C0
C0C0
C0C0
C0C0
C0C0
C0C0
C0C0
C0C0
C0C0
C0C0
C0C0
C0C0
C0C0
C0C0
C0C0
C1C0
C180
C180
E180
6180
6180
6300
7300
3E00
1C00
ENDCHAR
STARTCHAR ucircumflex
ENCODING 251
SWIDTH 361 0
DWIDTH 14 0
BBX 10 36 2 0
BITMAP
0C00
0C00
1E00
1600
3200
3300
6300
2300
0000
C0C0
C0C0
C0C0
C0C0
C0C0
C0C0
C0C0
C0C0
C0C0
C0C0
C0C0
C0C0
C0C0
C0C0
C0C0
C0C0
C0C0
C1C0
C180
C180
E180
6180
6180
6300
7300
3E00
1C00
ENDCHAR
STARTCHAR udieresis
ENCODING 252
SWIDTH 361 0
DWIDTH 14 0
BBX 10 33 2 0
BITMAP
C180
E380
E180
0000
0000
0000
C0C0
C0C0
C0C0
C0C0
C0C0
C0C0
C0C0
C0C0
C0C0
C0C0
C0C0
C0C0
C0C0
C0C0
C0C0
C0C0
C0C0
C1C0
C180
C180
E180
6180
6180
6300
7300
3E00
1C00
ENDCHAR
STARTCHAR yacute
ENCODING 253
SWIDTH 283 0
DWIDTH 11 0
BBX 11 35 1 -1
BITMAP
0040
01E0
03C0
0700
0E00
0800
0000
0100
C300
C300
C300
E700
6700
6600
7600
3E00
3E00
1C00
1C00
1C00
0C00
0C00
0C00
0C00
0C00
0C00
0C00
0C00
0C00
0C00
0C00
0C00
0C00
0C00
0C00
ENDCHAR
STARTCHAR thorn
ENCODING 254
SWIDTH 284 0
DWIDTH 11 0
BBX 8 31 2 0
BITMAP
C0
E0
E0
E0
E0
E0
E0
F8
FC
EE
E6
E6
E3
E3
63
63
66
66
6E
7C
78
60
60
60
60
60
60
60
60
60
60
ENDCHAR
STARTCHAR ydieresis
ENCODING 255
SWIDTH 283 0
DWIDTH 11 0
BBX 9 33 1 -1
BITMAP
E180
E380
E180
0000
0000
0100
C300
C300
C300
E700
6700
6600
7600
3E00
3E00
1C00
1C00
1C00
0C00
0C00
0C00
0C00
0C00
0C00
0C00
0C00
0C00
0C00
0C00
0C00
0C00
0C00
0C00
ENDCHAR
STARTCHAR Amacron
ENCODING 256
SWIDTH 350 0
DWIDTH 14 0
BBX 12 34 1 0
BITMAP
7FF0
7FF0
0000
0300
0300
0700
0700
0780
0F80
0D80
0D80
0D80
0D80
1980
1980
1980
19C0
19C0
39C0
30C0
30C0
30C0
30C0
30C0
70C0
7FC0
7FC0
60C0
60C0
60E0
C0E0
C0E0
C0E0
40C0
ENDCHAR
STARTCHAR amacron
ENCODING 257
SWIDTH 299 0
DWIDTH 12 0
BBX 13 31 0 0
BITMAP
7FF0
3FF8
0000
0000
0700
0700
0700
0700
0700
0500
0D80
0D80
0D80
0D80
0980
0980
1980
1980
19C0
19C0
18C0
30C0
30C0
3EC0
37C0
30C0
70C0
60E0
60E0
E060
6060
ENDCHAR
STARTCHAR Abreve
ENCODING 258
SWIDTH 350 0
DWIDTH 14 0
BBX 11 38 1 0
BITMAP
0420
0C60
0C60
0660
07C0
0380
0000
0300
0300
0700
0700
0780
0F80
0D80
0D80
0D80
0D80
1980
1980
1980
19C0
19C0
39C0
30C0
30C0
30C0
30C0
30C0
70C0
7FC0
7FC0
60C0
60C0
60E0
C0E0
C0E0
C0E0
40C0
ENDCHAR
STARTCHAR abreve
ENCODING 259
SWIDTH 299 0
DWIDTH 12 0
BBX 11 35 0 0
BITMAP
0840
08C0
0CC0
0CC0
0FC0
0780
0000
0000
0700
0700
0700
0700
0700
0500
0D80
0D80
0D80
0D80
0980
0980
1980
1980
19C0
19C0
18C0
30C0
30C0
3EC0
37C0
30C0
70C0
60E0
60E0
E060
6060
ENDCHAR
STARTCHAR Aogonek
ENCODING 260
SWIDTH 350 0
DWIDTH 14 0
BBX 11 38 1 -7
BITMAP
0300
0300
0700
0700
0780
0F80
0D80
0D80
0D80
0D80
1980
1980
1980
19C0
19C0
39C0
30C0
30C0
30C0
30C0
30C0
70C0
7FC0
7FC0
60C0
60C0
60E0
C0E0
C0E0
C0E0
40C0
0180
0300
0600
0600
0600
0780
0300
ENDCHAR
STARTCHAR aogonek
ENCODING 261
SWIDTH 299 0
DWIDTH 12 0
BBX 11 34 0 -7
BITMAP
0700
0700
0700
0700
0700
0500
0D80
0D80
0D80
0D80
0980
0980
1980
1980
19C0
19C0
18C0
30C0
30C0
3EC0
37C0
30C0
70C0
60E0
60E0
E060
6060
00C0
0180
0300
0200
0200
03C0
0380
ENDCHAR
STARTCHAR Cacute
ENCODING 262
SWIDTH 337 0
DWIDTH 13 0
BBX 11 37 2 0
BITMAP
0040
01E0
03C0
0700
0E00
0800
0F00
3F80
7180
E000
E000
C000
C000
C000
C000
C000
C000
C000
C000
C000
C000
C000
C000
C000
C000
C000
C000
C000
C000
C000
E000
6000
6000
7040
38E0
1FC0
0F80
ENDCHAR
STARTCHAR cacute
ENCODING 263
SWIDTH 279 0
DWIDTH 11 0
BBX 10 35 2 -1
BITMAP
0080
03C0
0780
0E00
1C00
1000
0000
0F00
3E00
3000
6000
6000
E000
E000
E000
C000
C000
C000
C000
C000
C000
C000
C000
C000
C000
C000
C000
C000
C000
C000
E000
6000
7000
3F00
1F00
ENDCHAR
STARTCHAR Ccircumflex
ENCODING 264
SWIDTH 337 0
DWIDTH 13 0
BBX 11 40 2 0
BITMAP
0600
0600
0F00
0F00
1900
1980
3180
1080
0000
0F00
3F80
7180
E000
E000
C000
C000
C000
C000
C000
C000
C000
C000
C000
C000
C000
C000
C000
C000
C000
C000
C000
C000
C000
E000
6000
6000
7040
38E0
1FC0
0F80
ENDCHAR
STARTCHAR ccircumflex
ENCODING 265
SWIDTH 279 0
DWIDTH 11 0
BBX 8 36 2 -1
BITMAP
18
38
3C
2C
64
66
C6
46
0F
3E
30
60
60
E0
E0
E0
C0
C0
C0
C0
C0
C0
C0
C0
C0
C0
C0
C0
C0
C0
C0
E0
60
70
3F
1F
ENDCHAR
STARTCHAR Cdotaccent
ENCODING 266
SWIDTH 337 0
DWIDTH 13 0
BBX 11 35 2 0
BITMAP
0C00
1C00
0C00
0000
0F00
3F80
7180
E000
E000
C000
C000
C000
C000
C000
C000
C000
C000
C000
C000
C000
C000
C000
C000
C000
C000
C000
C000
C000
E000
6000
6000
7040
38E0
1FC0
0F80
ENDCHAR
STARTCHAR cdotaccent
ENCODING 267
SWIDTH 279 0
DWIDTH 11 0
BBX 8 32 2 -1
BITMAP
18
38
38
00
0F
3E
30
60
60
E0
E0
E0
C0
C0
C0
C0
C0
C0
C0
C0
C0
C0
C0
C0
C0
C0
C0
E0
60
70
3F
1F
ENDCHAR
STARTCHAR Ccaron
ENCODING 268
SWIDTH 337 0
DWIDTH 13 0
BBX 11 40 2 0
BITMAP
2300
3200
3200
3E00
1E00
1E00
0C00
0400
0000
0F00
3F80
7180
E000
E000
C000
C000
C000
C000
C000
C000
C000
C000
C000
C000
C000
C000
C000
C000
C000
C000
C000
C000
C000
E000
6000
6000
7040
38E0
1FC0
0F80
ENDCHAR
STARTCHAR ccaron
ENCODING 269
SWIDTH 279 0
DWIDTH 11 0
BBX 8 37 2 -1
BITMAP
46
64
6C
6C
3C
38
18
08
00
0F
3E
30
60
60
E0
E0
E0
C0
C0
C0
C0
C0
C0
C0
C0
C0
C0
C0
C0
C0
C0
C0
E0
60
70
3F
1F
ENDCHAR
STARTCHAR Dcaron
ENCODING 270
SWIDTH 379 0
DWIDTH 15 0
BBX 11 40 2 0
BITMAP
6200
7200
3600
3600
1E00
1C00
0C00
0C00
0000
FC00
FE00
CF00
C380
C180
41C0
40C0
40C0
40C0
60E0
60E0
6060
6060
6060
6060
6060
6060
60E0
60E0
60C0
60C0
60C0
61C0
6180
6180
6300
6700
6600
7E00
FC00
7000
ENDCHAR
STARTCHAR dcaron
ENCODING 271
SWIDTH 346 0
DWIDTH 14 0
BBX 10 36 2 0
BITMAP
8C00
CC00
C800
7800
7800
7800
3000
1000
0000
7000
FC00
EE00
E700
6300
6180
6180
6180
61C0
60C0
60C0
60C0
60C0
60C0
60C0
60C0
60C0
60C0
60C0
61C0
6180
6180
6180
6300
6700
7E00
7800
ENDCHAR
STARTCHAR Dcroat
ENCODING 272
SWIDTH 421 0
DWIDTH 17 0
BBX 13 31 0 0
BITMAP
1F80
1FC0
19E0
18F0
1870
1830
1838
1818
1818
1818
1818
1818
1818
1818
3F18
FF98
7C18
0C18
0C18
0C18
0C18
0C38
0C30
0C30
0C70
0C60
0CE0
0DC0
0F80
1F00
0E00
ENDCHAR
STARTCHAR dcroat
ENCODING 273
SWIDTH 421 0
DWIDTH 17 0
BBX 11 27 2 0
BITMAP
3C00
3E00
3B00
3980
30C0
30C0
30E0
3060
3060
3060
3860
3860
FE60
FE60
3860
3860
3860
3860
3860
3860
3860
3860
38C0
38C0
3980
3F00
1E00
ENDCHAR
STARTCHAR Emacron
ENCODING 274
SWIDTH 278 0
DWIDTH 11 0
BBX 11 35 -1 0
BITMAP
FFE0
FFE0
0000
0000
0F00
1F80
1F00
1C00
1C00
0C00
0C00
0C00
0C00
0C00
0C00
0C00
0C00
0C00
0F80
0F80
0C00
0C00
0C00
0C00
0C00
0C00
0C00
0C00
0C00
0C00
0C00
0C00
0C00
0FC0
0FC0
ENDCHAR
STARTCHAR emacron
ENCODING 275
SWIDTH 284 0
DWIDTH 11 0
BBX 11 31 0 -1
BITMAP
FFC0
FFE0
0000
1E00
1F80
1F80
1800
1800
1800
1800
1800
1800
1800
1800
1F00
1F00
1800
1800
1800
1800
1800
1800
1800
1800
1800
1800
1800
1800
1800
1F80
1F80
ENDCHAR
STARTCHAR Ebreve
ENCODING 276
SWIDTH 278 0
DWIDTH 11 0
BBX 7 39 2 0
BITMAP
42
C6
E6
66
7C
38
00
00
78
FC
F8
E0
E0
60
60
60
60
60
60
60
60
60
7C
7C
60
60
60
60
60
60
60
60
60
60
60
60
60
7E
7E
ENDCHAR
STARTCHAR ebreve
ENCODING 277
SWIDTH 284 0
DWIDTH 11 0
BBX 7 36 2 -1
BITMAP
84
C6
CE
CC
7C
38
00
00
78
7E
7E
60
60
60
60
60
60
60
60
7C
7C
60
60
60
60
60
60
60
60
60
60
60
60
60
7E
7E
ENDCHAR
STARTCHAR Edotaccent
ENCODING 278
SWIDTH 278 0
DWIDTH 11 0
BBX 7 36 2 0
BITMAP
30
70
30
00
00
78
FC
F8
E0
E0
60
60
60
60
60
60
60
60
60
7C
7C
60
60
60
60
60
60
60
60
60
60
60
60
60
7E
7E
ENDCHAR
STARTCHAR edotaccent
ENCODING 279
SWIDTH 284 0
DWIDTH 11 0
BBX 6 32 3 -1
BITMAP
60
70
60
00
F0
FC
FC
C0
C0
C0
C0
C0
C0
C0
C0
F8
F8
C0
C0
C0
C0
C0
C0
C0
C0
C0
C0
C0
C0
C0
FC
FC
ENDCHAR
STARTCHAR Eogonek
ENCODING 280
SWIDTH 278 0
DWIDTH 11 0
BBX 8 38 2 -7
BITMAP
78
FC
F8
E0
E0
60
60
60
60
60
60
60
60
60
7C
7C
60
60
60
60
60
60
60
60
60
60
60
60
60
7E
7F
06
0C
18
18
18
1E
0C
ENDCHAR
STARTCHAR eogonek
ENCODING 281
SWIDTH 284 0
DWIDTH 11 0
BBX 7 34 3 -7
BITMAP
F0
FC
FC
C0
C0
C0
C0
C0
C0
C0
C0
F8
F8
C0
C0
C0
C0
C0
C0
C0
C0
C0
C0
C0
C0
C0
FE
FC
18
30
30
30
3C
1C
ENDCHAR
STARTCHAR Ecaron
ENCODING 282
SWIDTH 278 0
DWIDTH 11 0
BBX 7 40 2 0
BITMAP
8C
CC
C8
78
78
78
30
10
00
78
FC
F8
E0
E0
60
60
60
60
60
60
60
60
60
7C
7C
60
60
60
60
60
60
60
60
60
60
60
60
60
7E
7E
ENDCHAR
STARTCHAR ecaron
ENCODING 283
SWIDTH 284 0
DWIDTH 11 0
BBX 7 37 2 -1
BITMAP
C4
CC
6C
6C
68
38
38
18
00
78
7E
7E
60
60
60
60
60
60
60
60
7C
7C
60
60
60
60
60
60
60
60
60
60
60
60
60
7E
7E
ENDCHAR
STARTCHAR Gcircumflex
ENCODING 284
SWIDTH 371 0
DWIDTH 15 0
BBX 12 41 2 -1
BITMAP
0600
0E00
0E00
1B00
1B00
1100
3180
1180
0000
0F00
1F00
3000
7000
6000
6000
E000
E000
C000
C000
C000
C000
C000
C000
C000
C000
C000
C000
C000
C000
C000
C000
C1E0
C3E0
C060
C060
6020
6030
6030
3070
1FF0
0FB0
ENDCHAR
STARTCHAR gcircumflex
ENCODING 285
SWIDTH 346 0
DWIDTH 14 0
BBX 10 35 2 0
BITMAP
0C00
0E00
1E00
1A00
3300
3300
3300
2100
0F00
3E00
3000
7000
6000
6000
E000
E000
E000
E000
C000
C000
C000
C000
C780
C7C0
C0C0
C0C0
C0C0
E0C0
E0C0
E0C0
60C0
70C0
71C0
3F80
1F00
ENDCHAR
STARTCHAR Gbreve
ENCODING 286
SWIDTH 371 0
DWIDTH 15 0
BBX 12 40 2 -1
BITMAP
2100
3180
3180
3B80
1F00
0E00
0000
0000
0F00
1F00
3000
7000
6000
6000
E000
E000
C000
C000
C000
C000
C000
C000
C000
C000
C000
C000
C000
C000
C000
C000
C1E0
C3E0
C060
C060
6020
6030
6030
3070
1FF0
0FB0
ENDCHAR
STARTCHAR gbreve
ENCODING 287
SWIDTH 346 0
DWIDTH 14 0
BBX 10 35 2 0
BITMAP
2100
6300
3300
3300
3F00
1E00
0000
0000
0F00
3E00
3000
7000
6000
6000
E000
E000
E000
E000
C000
C000
C000
C000
C780
C7C0
C0C0
C0C0
C0C0
E0C0
E0C0
E0C0
60C0
70C0
71C0
3F80
1F00
ENDCHAR
STARTCHAR Gdotaccent
ENCODING 288
SWIDTH 371 0
DWIDTH 15 0
BBX 12 36 2 -1
BITMAP
1800
1C00
1C00
0000
0F00
1F00
3000
7000
6000
6000
E000
E000
C000
C000
C000
C000
C000
C000
C000
C000
C000
C000
C000
C000
C000
C000
C1E0
C3E0
C060
C060
6020
6030
6030
3070
1FF0
0FB0
ENDCHAR
STARTCHAR gdotaccent
ENCODING 289
SWIDTH 346 0
DWIDTH 14 0
BBX 10 31 2 0
BITMAP
0C00
1C00
0C00
0000
0F00
3E00
3000
7000
6000
6000
E000
E000
E000
E000
C000
C000
C000
C000
C780
C7C0
C0C0
C0C0
C0C0
E0C0
E0C0
E0C0
60C0
70C0
71C0
3F80
1F00
ENDCHAR
STARTCHAR Gcommaaccent
ENCODING 290
SWIDTH 371 0
DWIDTH 15 0
BBX 12 42 2 -11
BITMAP
0F00
1F00
3000
7000
6000
6000
E000
E000
C000
C000
C000
C000
C000
C000
C000
C000
C000
C000
C000
C000
C000
C000
C1E0
C3E0
C060
C060
6020
6030
6030
3070
1FF0
0FB0
0000
0000
0200
0300
0600
0600
0C00
0C00
1800
1000
ENDCHAR
STARTCHAR gcommaaccent
ENCODING 291
SWIDTH 346 0
DWIDTH 14 0
BBX 10 36 2 0
BITMAP
0100
0300
0600
0600
0C00
0800
1800
0000
0000
0F00
3E00
3000
7000
6000
6000
E000
E000
E000
E000
C000
C000
C000
C000
C780
C7C0
C0C0
C0C0
C0C0
E0C0
E0C0
E0C0
60C0
70C0
71C0
3F80
1F00
ENDCHAR
STARTCHAR Hcircumflex
ENCODING 292
SWIDTH 330 0
DWIDTH 13 0
BBX 9 40 2 0
BITMAP
0C00
0E00
1E00
1E00
3200
3300
2300
2100
0000
C200
C300
C300
C300
C300
C300
C300
C300
C300
C300
C300
C300
C300
C300
FF00
C300
C300
C300
C300
C300
E300
E300
E300
6300
6300
6300
6380
6380
6380
6380
2100
ENDCHAR
STARTCHAR hcircumflex
ENCODING 293
SWIDTH 331 0
DWIDTH 13 0
BBX 9 36 2 0
BITMAP
0C00
1C00
1E00
1600
3200
3300
6300
2300
0000
4300
E300
E300
E300
E300
E300
E300
6300
6300
6300
6300
6300
E300
FF00
6F00
E380
E380
E380
E380
E380
E380
E380
E380
E380
6380
6380
6180
ENDCHAR
STARTCHAR Hbar
ENCODING 294
SWIDTH 330 0
DWIDTH 13 0
BBX 10 32 2 -1
BITMAP
6100
6100
4100
4100
4100
4100
FF80
7FC0
6100
6100
6180
6180
6180
6180
6180
7F80
7380
6180
2180
2180
2180
2180
2180
2180
2180
2180
3180
3180
3180
3180
3180
0080
ENDCHAR
STARTCHAR hbar
ENCODING 295
SWIDTH 331 0
DWIDTH 13 0
BBX 11 27 1 0
BITMAP
2180
7180
7180
7180
7180
7180
7FE0
FF80
3180
3180
3180
3180
7180
7F80
3780
71C0
71C0
71C0
71C0
71C0
71C0
71C0
71C0
71C0
31C0
31C0
30C0
ENDCHAR
STARTCHAR Itilde
ENCODING 296
SWIDTH 257 0
DWIDTH 10 0
BBX 10 36 -1 0
BITMAP
3080
F980
CF80
C700
0000
0F80
3F00
0C00
0C00
0C00
0C00
0C00
0C00
0C00
0C00
0C00
0C00
0E00
0E00
0600
0600
0600
0600
0600
0600
0600
0600
0600
0600
0600
0600
0600
0600
0600
3FC0
1F80
ENDCHAR
STARTCHAR itilde
ENCODING 297
SWIDTH 226 0
DWIDTH 9 0
BBX 10 33 -1 0
BITMAP
3080
7DC0
EFC0
4780
0000
0000
1F00
3F00
0C00
0C00
0C00
0C00
0C00
0C00
0C00
0C00
0C00
0C00
0C00
0C00
0C00
0C00
0C00
0C00
0C00
0E00
0E00
0E00
0600
0600
0600
3F80
3F80
ENDCHAR
STARTCHAR Imacron
ENCODING 298
SWIDTH 257 0
DWIDTH 10 0
BBX 11 35 -2 0
BITMAP
FFE0
FFE0
0000
0000
07C0
1F80
0600
0600
0600
0600
0600
0600
0600
0600
0600
0600
0700
0700
0300
0300
0300
0300
0300
0300
0300
0300
0300
0300
0300
0300
0300
0300
0300
1FE0
0FC0
ENDCHAR
STARTCHAR imacron
ENCODING 299
SWIDTH 226 0
DWIDTH 9 0
BBX 11 31 -1 0
BITMAP
FFC0
FFE0
0000
0000
1F00
3F00
0C00
0C00
0C00
0C00
0C00
0C00
0C00
0C00
0C00
0C00
0C00
0C00
0C00
0C00
0C00
0C00
0C00
0E00
0E00
0E00
0600
0600
0600
3F80
3F80
ENDCHAR
STARTCHAR Ibreve
ENCODING 300
SWIDTH 257 0
DWIDTH 10 0
BBX 8 39 1 0
BITMAP
42
C6
E6
66
7C
38
00
00
3E
FC
30
30
30
30
30
30
30
30
30
30
38
38
18
18
18
18
18
18
18
18
18
18
18
18
18
18
18
FF
7E
ENDCHAR
STARTCHAR ibreve
ENCODING 301
SWIDTH 226 0
DWIDTH 9 0
BBX 7 35 1 0
BITMAP
84
8E
CC
CC
FC
78
00
00
7C
FC
30
30
30
30
30
30
30
30
30
30
30
30
30
30
30
30
30
38
38
38
18
18
18
FE
FE
ENDCHAR
STARTCHAR Iogonek
ENCODING 302
SWIDTH 257 0
DWIDTH 10 0
BBX 8 38 1 -7
BITMAP
3E
FC
30
30
30
30
30
30
30
30
30
30
38
38
18
18
18
18
18
18
18
18
18
18
18
18
18
18
18
FF
7E
0C
18
30
20
60
3C
38
ENDCHAR
STARTCHAR iogonek
ENCODING 303
SWIDTH 226 0
DWIDTH 9 0
BBX 10 33 1 -6
BITMAP
7C00
FC00
3000
3000
3000
3000
3000
3000
3000
3000
3000
3000
3000
3000
3000
3000
3000
3000
3000
3800
3800
3800
1800
1800
1800
FEC0
FF80
0300
0600
0400
0400
0780
0700
ENDCHAR
STARTCHAR Idotaccent
ENCODING 304
SWIDTH 257 0
DWIDTH 10 0
BBX 8 35 1 0
BITMAP
30
70
30
00
3E
FC
30
30
30
30
30
30
30
30
30
30
38
38
18
18
18
18
18
18
18
18
18
18
18
18
18
18
18
FF
7E
ENDCHAR
STARTCHAR dotlessi
ENCODING 305
SWIDTH 226 0
DWIDTH 9 0
BBX 7 27 1 0
BITMAP
7C
FC
30
30
30
30
30
30
30
30
30
30
30
30
30
30
30
30
30
38
38
38
18
18
18
FE
FE
ENDCHAR
STARTCHAR IJ
ENCODING 306
SWIDTH 525 0
DWIDTH 21 0
BBX 17 34 1 -3
BITMAP
3E1F80
FC3F80
300600
300600
300600
300600
300600
300600
300600
300600
300600
300600
380200
380200
180300
180300
180300
180300
180300
180300
180300
180300
180300
180300
180300
180300
180300
180300
180700
FF0700
7E0700
000E00
001C00
001800
ENDCHAR
STARTCHAR ij
ENCODING 307
SWIDTH 480 0
DWIDTH 19 0
BBX 17 30 1 -3
BITMAP
7C7F00
FC7F80
300C00
300C00
300C00
300C00
300C00
300C00
300C00
300C00
300C00
300C00
300C00
300C00
300C00
300C00
300C00
300C00
300C00
380C00
380C00
380C00
180C00
180C00
180C00
FE0C00
FE0C00
001800
00F800
00E000
ENDCHAR
STARTCHAR Jcircumflex
ENCODING 308
SWIDTH 268 0
DWIDTH 11 0
BBX 7 43 1 -3
BITMAP
08
1C
1C
34
36
66
62
42
00
FE
FC
18
18
18
18
18
18
18
18
18
18
18
18
18
18
18
18
0C
0C
0C
0C
0C
0C
0C
0C
0C
1C
1C
18
38
38
F0
60
ENDCHAR
STARTCHAR jcircumflex
ENCODING 309
SWIDTH 254 0
DWIDTH 10 0
BBX 9 38 0 -3
BITMAP
0C00
0E00
1E00
1E00
3200
3300
2300
2100
7F00
7F80
0C00
0C00
0C00
0C00
0C00
0C00
0C00
0C00
0C00
0C00
0C00
0C00
0C00
0C00
0C00
0C00
0C00
0C00
0C00
0C00
0C00
0C00
0C00
0C00
0C00
1800
F800
E000
ENDCHAR
STARTCHAR Kcommaaccent
ENCODING 310
SWIDTH 356 0
DWIDTH 14 0
BBX 11 43 2 -11
BITMAP
0080
40C0
E1C0
E180
E380
6300
6700
6600
6600
6C00
6C00
7C00
7800
7800
7C00
6C00
6400
6600
6200
6200
6300
6300
6100
6180
6180
E180
E0C0
E0C0
E0C0
E0C0
E0E0
6060
0060
0000
0000
0200
0200
0600
0600
0C00
0800
1800
1000
ENDCHAR
STARTCHAR kcommaaccent
ENCODING 311
SWIDTH 350 0
DWIDTH 14 0
BBX 10 38 3 -11
BITMAP
C180
E180
C380
C700
C700
CE00
CC00
DC00
D800
F800
F800
F800
F800
D800
CC00
CC00
CC00
CC00
C600
C600
C600
C700
C300
C380
C180
C1C0
C0C0
0000
0000
0000
0400
0400
0C00
1C00
1800
3000
2000
2000
ENDCHAR
STARTCHAR kgreenlandic
ENCODING 312
SWIDTH 412 0
DWIDTH 16 0
BBX 11 27 3 0
BITMAP
60C0
71C0
61C0
6380
6300
6700
6600
6E00
6C00
7C00
FC00
FC00
FC00
EC00
EC00
E600
E600
E600
E700
E300
E300
E380
E180
E1C0
E1C0
E0E0
4060
ENDCHAR
STARTCHAR Lacute
ENCODING 313
SWIDTH 250 0
DWIDTH 10 0
BBX 7 38 2 -1
BITMAP
06
0E
1C
38
60
80
C0
E0
E0
E0
E0
E0
E0
E0
60
60
60
60
60
60
60
60
60
60
60
60
60
60
60
60
60
60
60
60
60
7C
7E
60
ENDCHAR
STARTCHAR lacute
ENCODING 314
SWIDTH 268 0
DWIDTH 11 0
BBX 7 35 3 -1
BITMAP
06
0E
1E
38
60
C0
00
C0
C0
C0
C0
C0
C0
C0
C0
C0
C0
C0
C0
C0
C0
C0
C0
C0
C0
C0
C0
C0
C0
C0
C0
C0
FC
FE
C6
ENDCHAR
STARTCHAR Lcommaaccent
ENCODING 315
SWIDTH 250 0
DWIDTH 10 0
BBX 7 42 2 -11
BITMAP
C0
E0
E0
E0
E0
E0
E0
E0
60
60
60
60
60
60
60
60
60
60
60
60
60
60
60
60
60
60
60
60
60
7C
7E
60
00
00
08
08
18
38
30
60
40
40
ENDCHAR
STARTCHAR lcommaaccent
ENCODING 316
SWIDTH 268 0
DWIDTH 11 0
BBX 7 38 3 -11
BITMAP
C0
C0
C0
C0
C0
C0
C0
C0
C0
C0
C0
C0
C0
C0
C0
C0
C0
C0
C0
C0
C0
C0
C0
C0
C0
FC
FE
C6
00
00
10
18
30
30
60
60
C0
80
ENDCHAR
STARTCHAR Lcaron
ENCODING 317
SWIDTH 250 0
DWIDTH 10 0
BBX 9 41 0 -1
BITMAP
C400
CC00
6C00
6C00
6800
3800
3800
1800
0000
3000
3800
3800
3800
3800
3800
3800
3800
3800
1800
1800
1800
1800
1800
1800
1800
1800
1800
1800
1800
1800
1800
1800
1800
1800
1800
1800
1800
1800
1F00
1F80
1800
ENDCHAR
STARTCHAR lcaron
ENCODING 318
SWIDTH 268 0
DWIDTH 11 0
BBX 8 37 2 -1
BITMAP
8C
C8
D8
D8
78
70
30
30
00
60
60
60
60
60
60
60
60
60
60
60
60
60
60
60
60
60
60
60
60
60
60
60
60
60
7E
7F
63
ENDCHAR
STARTCHAR Ldot
ENCODING 319
SWIDTH 329 0
DWIDTH 13 0
BBX 11 32 2 -1
BITMAP
C000
E000
E000
E000
E000
E000
E000
E000
6000
6000
6000
6000
6000
6000
6000
60E0
60E0
60E0
6000
6000
6000
6000
6000
6000
6000
6000
6000
6000
6000
7C00
7E00
6000
ENDCHAR
STARTCHAR ldot
ENCODING 320
SWIDTH 338 0
DWIDTH 14 0
BBX 10 28 3 -1
BITMAP
C000
C000
C000
C000
C000
C000
C000
C000
C000
C000
C000
C180
C1C0
C1C0
C000
C000
C000
C000
C000
C000
C000
C000
C000
C000
C000
FC00
FE00
C600
ENDCHAR
STARTCHAR Lslash
ENCODING 321
SWIDTH 279 0
DWIDTH 11 0
BBX 9 31 1 0
BITMAP
3000
3000
3000
3000
3000
3000
3000
3000
3000
3000
3000
3000
3300
3F80
FF00
F000
3000
3000
3000
3000
3000
3000
3800
3800
3800
3800
1800
1800
1800
3F00
3F00
ENDCHAR
STARTCHAR lslash
ENCODING 322
SWIDTH 286 0
DWIDTH 11 0
BBX 9 28 1 -1
BITMAP
1800
1800
3800
3800
3800
3800
1800
1800
1800
1800
1800
1F80
3F00
F800
B000
3000
3000
3000
3000
3000
3000
3000
3000
3000
3000
3F00
3F80
3180
ENDCHAR
STARTCHAR Nacute
ENCODING 323
SWIDTH 412 0
DWIDTH 16 0
BBX 12 37 2 0
BITMAP
0030
0070
00E0
01C0
0700
0430
4030
E030
E030
E030
F030
F030
F030
D830
D830
D830
D830
CC30
CC20
CC20
C620
C620
C620
C660
C360
C360
C360
C160
C160
41E0
41E0
60E0
60E0
60E0
6060
6060
E020
ENDCHAR
STARTCHAR nacute
ENCODING 324
SWIDTH 479 0
DWIDTH 19 0
BBX 13 34 3 0
BITMAP
0010
0078
00F0
01C0
0380
0200
0000
6018
E018
F018
F018
F818
F818
D818
DC18
CC18
CC18
CE18
C618
C618
C718
C318
C318
C318
C198
C198
C098
C098
C0F8
C0F0
C070
C070
C070
C070
ENDCHAR
STARTCHAR Ncommaaccent
ENCODING 325
SWIDTH 412 0
DWIDTH 16 0
BBX 12 43 2 -11
BITMAP
0030
4030
E030
E030
E030
F030
F030
F030
D830
D830
D830
D830
CC30
CC20
CC20
C620
C620
C620
C660
C360
C360
C360
C160
C160
41E0
41E0
60E0
60E0
60E0
6060
6060
E020
0000
0000
0000
0100
0180
0300
0300
0600
0400
0C00
0800
ENDCHAR
STARTCHAR ncommaaccent
ENCODING 326
SWIDTH 479 0
DWIDTH 19 0
BBX 13 38 3 -11
BITMAP
6018
E018
F018
F018
F818
F818
D818
DC18
CC18
CC18
CE18
C618
C618
C718
C318
C318
C318
C198
C198
C098
C098
C0F8
C0F0
C070
C070
C070
C070
0000
0000
0000
0080
0180
0180
0300
0300
0600
0400
0800
ENDCHAR
STARTCHAR Ncaron
ENCODING 327
SWIDTH 412 0
DWIDTH 16 0
BBX 12 40 2 0
BITMAP
1880
1980
0D80
0D80
0D00
0700
0700
0300
0030
4030
E030
E030
E030
F030
F030
F030
D830
D830
D830
D830
CC30
CC20
CC20
C620
C620
C620
C660
C360
C360
C360
C160
C160
41E0
41E0
60E0
60E0
60E0
6060
6060
E020
ENDCHAR
STARTCHAR ncaron
ENCODING 328
SWIDTH 479 0
DWIDTH 19 0
BBX 13 36 3 0
BITMAP
08C0
0C80
0D80
0D80
0780
0700
0300
0100
0000
6018
E018
F018
F018
F818
F818
D818
DC18
CC18
CC18
CE18
C618
C618
C718
C318
C318
C318
C198
C198
C098
C098
C0F8
C0F0
C070
C070
C070
C070
ENDCHAR
STARTCHAR napostrophe
ENCODING 329
SWIDTH 479 0
DWIDTH 19 0
BBX 14 37 3 0
BITMAP
3000
3800
3800
3800
7000
6000
E000
8000
0000
0000
600C
700C
700C
780C
780C
7C0C
FC0C
EC0C
EE0C
E60C
E60C
E60C
E30C
E318
E318
E198
E198
E198
E098
E0D8
E0D8
E058
E078
E078
E078
6038
6030
ENDCHAR
STARTCHAR Eng
ENCODING 330
SWIDTH 465 0
DWIDTH 19 0
BBX 12 39 3 -7
BITMAP
0010
4030
6030
6030
7030
7030
7030
D830
D830
D830
D830
CC30
CC30
CC30
CE30
C630
C630
C630
C230
C330
4330
4330
4130
61B0
61B0
60B0
60B0
60F0
6070
6070
6070
6030
0030
0030
0030
0060
00E0
03C0
0380
ENDCHAR
STARTCHAR eng
ENCODING 331
SWIDTH 509 0
DWIDTH 20 0
BBX 14 37 3 -10
BITMAP
600C
700C
700C
780C
780C
FC0C
FC0C
EC0C
EE0C
EE0C
E60C
E60C
E70C
E31C
E31C
E39C
E19C
E19C
E19C
E0DC
E0D8
E0D8
E078
E078
E078
6038
6038
0038
0038
0038
0030
0030
0030
0030
00E0
01E0
01C0
ENDCHAR
STARTCHAR Omacron
ENCODING 332
SWIDTH 355 0
DWIDTH 14 0
BBX 11 36 1 -1
BITMAP
FFC0
FFE0
0000
0000
1E00
3F00
3180
7180
60C0
60C0
60C0
6040
6060
6060
6060
6060
6060
6060
6060
6060
6060
6060
6060
6060
6060
6060
6060
6060
3060
3060
3040
30C0
18C0
18C0
0F80
0700
ENDCHAR
STARTCHAR omacron
ENCODING 333
SWIDTH 360 0
DWIDTH 14 0
BBX 11 31 1 -1
BITMAP
FFC0
FFE0
0000
1E00
3F00
3180
30C0
6040
6060
6060
6060
6060
6060
6060
6060
6060
6060
6060
6060
6060
6060
6060
6060
7060
7060
3060
30E0
30C0
19C0
1F80
0F00
ENDCHAR
STARTCHAR Obreve
ENCODING 334
SWIDTH 355 0
DWIDTH 14 0
BBX 10 40 2 -1
BITMAP
2100
2380
3300
3300
3F00
1E00
0000
0000
3C00
7E00
6300
E300
C180
C180
C180
C080
C0C0
C0C0
C0C0
C0C0
C0C0
C0C0
C0C0
C0C0
C0C0
C0C0
C0C0
C0C0
C0C0
C0C0
C0C0
C0C0
60C0
60C0
6080
6180
3180
3180
1F00
0E00
ENDCHAR
STARTCHAR obreve
ENCODING 335
SWIDTH 360 0
DWIDTH 14 0
BBX 10 36 2 -1
BITMAP
4200
6700
6700
6600
3E00
3C00
0000
0000
3C00
7E00
6300
6180
C080
C0C0
C0C0
C0C0
C0C0
C0C0
C0C0
C0C0
C0C0
C0C0
C0C0
C0C0
C0C0
C0C0
C0C0
C0C0
E0C0
E0C0
60C0
61C0
6180
3380
3F00
1E00
ENDCHAR
STARTCHAR Ohungarumlaut
ENCODING 336
SWIDTH 355 0
DWIDTH 14 0
BBX 15 42 2 -1
BITMAP
0104
030E
071C
0638
0C70
1CE0
18C0
3180
4300
0000
3C00
7E00
6300
E300
C180
C180
C180
C080
C0C0
C0C0
C0C0
C0C0
C0C0
C0C0
C0C0
C0C0
C0C0
C0C0
C0C0
C0C0
C0C0
C0C0
C0C0
C0C0
60C0
60C0
6080
6180
3180
3180
1F00
0E00
ENDCHAR
STARTCHAR ohungarumlaut
ENCODING 337
SWIDTH 360 0
DWIDTH 14 0
BBX 15 38 2 -1
BITMAP
0204
030E
061C
0E38
1C70
18E0
31C0
2300
4200
0000
3C00
7E00
6300
6180
C080
C0C0
C0C0
C0C0
C0C0
C0C0
C0C0
C0C0
C0C0
C0C0
C0C0
C0C0
C0C0
C0C0
C0C0
C0C0
E0C0
E0C0
60C0
61C0
6180
3380
3F00
1E00
ENDCHAR
STARTCHAR OE
ENCODING 338
SWIDTH 569 0
DWIDTH 23 0
BBX 20 32 2 -1
BITMAP
0FC000
1FFFC0
303FE0
601800
601800
401800
C01800
C01C00
C01C00
C00C00
C00C00
C00C00
C00C00
C00C00
C00C00
C00F80
C00F80
C00C00
C00C00
C00C00
C00C00
C00C00
C00C00
400C00
400C00
600C00
200C00
300C00
1C0C00
0FFC00
03FFE0
000FF0
ENDCHAR
STARTCHAR oe
ENCODING 339
SWIDTH 460 0
DWIDTH 18 0
BBX 15 28 2 -1
BITMAP
1C78
3E7E
636E
61E0
40E0
40C0
C0C0
C0C0
C0C0
C0C0
C0C0
C0F8
C0FC
C0C0
C0C0
C0E0
C0E0
C0E0
C0C0
C0C0
E0C0
E0C0
60C0
61C0
61C0
33C0
3FFC
1E7E
ENDCHAR
STARTCHAR Racute
ENCODING 340
SWIDTH 289 0
DWIDTH 12 0
BBX 9 37 2 0
BITMAP
0600
0F00
1E00
3800
6000
C000
E000
F800
D800
CC00
CC00
CC00
CC00
CC00
CC00
CC00
CC00
D800
F800
F800
D800
D800
D800
D800
C800
CC00
CC00
C400
C600
C600
C600
C300
C300
C300
C380
C380
C180
ENDCHAR
STARTCHAR racute
ENCODING 341
SWIDTH 295 0
DWIDTH 12 0
BBX 10 34 2 0
BITMAP
00C0
01C0
0380
0F00
1C00
1000
0000
7000
FC00
CC00
CE00
C600
C600
C600
CE00
CC00
4C00
7C00
7800
7800
5800
5800
5800
4800
4C00
4C00
4C00
4C00
4600
6600
6600
6300
6300
6100
ENDCHAR
STARTCHAR Rcommaaccent
ENCODING 342
SWIDTH 289 0
DWIDTH 12 0
BBX 9 42 2 -11
BITMAP
E000
F800
D800
CC00
CC00
CC00
CC00
CC00
CC00
CC00
CC00
D800
F800
F800
D800
D800
D800
D800
C800
CC00
CC00
C400
C600
C600
C600
C300
C300
C300
C380
C380
C180
0000
0000
0000
0400
0C00
0C00
1800
1800
3000
2000
4000
ENDCHAR
STARTCHAR rcommaaccent
ENCODING 343
SWIDTH 295 0
DWIDTH 12 0
BBX 8 38 2 -11
BITMAP
70
FC
CC
CE
C6
C6
C6
CE
CC
4C
7C
78
78
58
58
58
48
4C
4C
4C
4C
46
66
66
63
63
61
00
00
00
04
0C
0C
18
18
30
20
20
ENDCHAR
STARTCHAR Rcaron
ENCODING 344
SWIDTH 289 0
DWIDTH 12 0
BBX 10 40 1 0
BITMAP
8C00
C800
D800
D800
7800
7000
3000
1000
0000
7000
7C00
6C00
6600
6600
6600
6600
6600
6600
6600
6600
6C00
7C00
7C00
6C00
6C00
6C00
6C00
6400
6600
6600
6200
6300
6300
6300
6180
6180
6180
61C0
61C0
60C0
ENDCHAR
STARTCHAR rcaron
ENCODING 345
SWIDTH 295 0
DWIDTH 12 0
BBX 8 36 2 0
BITMAP
46
66
64
34
3C
3C
1C
08
00
70
FC
CC
CE
C6
C6
C6
CE
CC
4C
7C
78
78
58
58
58
48
4C
4C
4C
4C
46
66
66
63
63
61
ENDCHAR
STARTCHAR Sacute
ENCODING 346
SWIDTH 307 0
DWIDTH 12 0
BBX 10 39 2 -1
BITMAP
0080
03C0
0780
0E00
1C00
1000
0000
1C00
3E00
7000
E000
C000
C000
C000
C000
E000
6000
6000
7000
3000
3800
1800
1C00
0C00
0E00
0600
0600
0700
0700
0300
0300
0300
0300
0700
0700
0600
0E00
FC00
F800
ENDCHAR
STARTCHAR sacute
ENCODING 347
SWIDTH 247 0
DWIDTH 10 0
BBX 10 36 1 -1
BITMAP
0080
03C0
0780
0E00
1C00
1000
0000
0000
3800
3C00
6000
6000
6000
C000
C000
4000
6000
6000
7000
3000
3800
1800
1C00
0C00
0C00
0600
0600
0600
0600
0600
0600
0600
0C00
0C00
F800
7000
ENDCHAR
STARTCHAR Scircumflex
ENCODING 348
SWIDTH 307 0
DWIDTH 12 0
BBX 8 41 2 -1
BITMAP
0C
0C
1E
1E
32
33
63
21
00
1C
3E
70
E0
C0
C0
C0
C0
E0
60
60
70
30
38
18
1C
0C
0E
06
06
07
07
03
03
03
03
07
07
06
0E
FC
F8
ENDCHAR
STARTCHAR scircumflex
ENCODING 349
SWIDTH 247 0
DWIDTH 10 0
BBX 7 36 1 -1
BITMAP
18
38
3C
2C
64
64
C6
46
38
3C
60
60
60
C0
C0
40
60
60
70
30
38
18
1C
0C
0C
06
06
06
06
06
06
06
0C
0C
F8
70
ENDCHAR
STARTCHAR Scedilla
ENCODING 350
SWIDTH 307 0
DWIDTH 12 0
BBX 8 40 2 -9
BITMAP
1C
3E
70
E0
C0
C0
C0
C0
E0
60
60
70
30
38
18
1C
0C
0E
06
06
07
07
03
03
03
03
07
07
06
0E
FC
F8
20
30
38
0C
0C
0C
08
70
ENDCHAR
STARTCHAR scedilla
ENCODING 351
SWIDTH 247 0
DWIDTH 10 0
BBX 7 36 1 -9
BITMAP
38
3C
60
60
60
C0
C0
40
60
60
70
30
38
18
1C
0C
0C
06
06
06
06
06
06
06
0C
0C
F8
70
20
38
1C
04
04
04
0C
38
ENDCHAR
STARTCHAR Scaron
ENCODING 352
SWIDTH 307 0
DWIDTH 12 0
BBX 8 41 2 -1
BITMAP
46
64
64
7C
3C
3C
18
08
00
1C
3E
70
E0
C0
C0
C0
C0
E0
60
60
70
30
38
18
1C
0C
0E
06
06
07
07
03
03
03
03
07
07
06
0E
FC
F8
ENDCHAR
STARTCHAR scaron
ENCODING 353
SWIDTH 247 0
DWIDTH 10 0
BBX 7 37 1 -1
BITMAP
46
64
6C
6C
3C
38
18
18
00
38
3C
60
60
60
C0
C0
40
60
60
70
30
38
18
1C
0C
0C
06
06
06
06
06
06
06
0C
0C
F8
70
ENDCHAR
STARTCHAR uni0162
ENCODING 354
SWIDTH 262 0
DWIDTH 10 0
BBX 9 40 0 -9
BITMAP
7F80
FF00
0C00
0C00
0C00
0C00
0C00
0C00
0C00
0C00
0C00
0C00
0C00
0C00
0C00
0C00
0C00
0C00
0C00
0C00
0C00
0C00
0C00
0C00
0C00
0C00
0C00
0E00
0E00
0E00
0400
0400
0400
0E00
0700
0100
0180
0180
0100
0E00
ENDCHAR
STARTCHAR uni0163
ENCODING 355
SWIDTH 256 0
DWIDTH 10 0
BBX 9 36 0 -9
BITMAP
FF80
3F00
1800
0800
0800
0C00
0C00
0C00
0C00
0C00
0C00
0C00
0C00
0C00
0C00
0C00
0C00
0C00
0C00
0E00
0E00
0600
0600
0600
0600
0600
0400
0400
0400
0700
0780
0180
0080
0180
0180
0F00
ENDCHAR
STARTCHAR Tcaron
ENCODING 356
SWIDTH 262 0
DWIDTH 10 0
BBX 9 40 0 0
BITMAP
3100
3300
1B00
1B00
1A00
0E00
0E00
0600
0000
7F80
FF00
0C00
0C00
0C00
0C00
0C00
0C00
0C00
0C00
0C00
0C00
0C00
0C00
0C00
0C00
0C00
0C00
0C00
0C00
0C00
0C00
0C00
0C00
0C00
0C00
0C00
0E00
0E00
0E00
0400
ENDCHAR
STARTCHAR tcaron
ENCODING 357
SWIDTH 256 0
DWIDTH 10 0
BBX 9 36 0 0
BITMAP
6200
6600
7600
3400
3400
1C00
1C00
0C00
0000
FF80
3F00
1800
0800
0800
0C00
0C00
0C00
0C00
0C00
0C00
0C00
0C00
0C00
0C00
0C00
0C00
0C00
0C00
0E00
0E00
0600
0600
0600
0600
0600
0400
ENDCHAR
STARTCHAR Tbar
ENCODING 358
SWIDTH 342 0
DWIDTH 14 0
BBX 11 31 2 0
BITMAP
7F80
7F80
0C00
0C00
0C00
0C00
0C00
0C00
0C00
0C00
0C00
0C00
0C00
FFE0
7FE0
0600
0600
0600
0600
0600
0600
0600
0600
0600
0600
0600
0600
0600
0600
0600
0600
ENDCHAR
STARTCHAR tbar
ENCODING 359
SWIDTH 342 0
DWIDTH 14 0
BBX 9 27 2 0
BITMAP
FF80
3F00
1800
1800
1800
1800
0800
0800
0C00
0C00
0C00
3F80
7F80
3C00
0C00
0C00
0C00
0C00
0C00
0C00
0C00
0C00
0C00
0E00
0E00
0E00
0400
ENDCHAR
STARTCHAR Utilde
ENCODING 360
SWIDTH 401 0
DWIDTH 16 0
BBX 11 36 2 -1
BITMAP
3080
7CC0
6FC0
6780
C040
C0E0
C0E0
C0E0
C060
C060
C060
E060
E060
E060
E060
E060
E060
E060
E060
E060
E060
E060
E060
6060
6060
6060
6060
7060
7060
3060
3060
3860
1860
1C60
0FC0
0780
ENDCHAR
STARTCHAR utilde
ENCODING 361
SWIDTH 361 0
DWIDTH 14 0
BBX 10 33 2 0
BITMAP
2180
F980
CF80
C700
0000
0000
C0C0
C0C0
C0C0
C0C0
C0C0
C0C0
C0C0
C0C0
C0C0
C0C0
C0C0
C0C0
C0C0
C0C0
C0C0
C0C0
C0C0
C1C0
C180
C180
E180
6180
6180
6300
7300
3E00
1C00
ENDCHAR
STARTCHAR Umacron
ENCODING 362
SWIDTH 401 0
DWIDTH 16 0
BBX 11 35 2 -1
BITMAP
FFC0
FFE0
0000
C040
C0E0
C0E0
C0E0
C060
C060
C060
E060
E060
E060
E060
E060
E060
E060
E060
E060
E060
E060
E060
6060
6060
6060
6060
7060
7060
3060
3060
3860
1860
1C60
0FC0
0780
ENDCHAR
STARTCHAR umacron
ENCODING 363
SWIDTH 361 0
DWIDTH 14 0
BBX 11 31 1 0
BITMAP
FFC0
FFE0
0000
0000
6060
6060
6060
6060
6060
6060
6060
6060
6060
6060
6060
6060
6060
6060
6060
6060
6060
60E0
60C0
60C0
70C0
30C0
30C0
3180
3980
1F00
0E00
ENDCHAR
STARTCHAR Ubreve
ENCODING 364
SWIDTH 401 0
DWIDTH 16 0
BBX 11 39 2 -1
BITMAP
1080
19C0
19C0
1980
0F80
0F00
0000
C040
C0E0
C0E0
C0E0
C060
C060
C060
E060
E060
E060
E060
E060
E060
E060
E060
E060
E060
E060
E060
6060
6060
6060
6060
7060
7060
3060
3060
3860
1860
1C60
0FC0
0780
ENDCHAR
STARTCHAR ubreve
ENCODING 365
SWIDTH 361 0
DWIDTH 14 0
BBX 10 35 2 0
BITMAP
4200
6300
6300
3300
3E00
1C00
0000
0000
C0C0
C0C0
C0C0
C0C0
C0C0
C0C0
C0C0
C0C0
C0C0
C0C0
C0C0
C0C0
C0C0
C0C0
C0C0
C0C0
C0C0
C1C0
C180
C180
E180
6180
6180
6300
7300
3E00
1C00
ENDCHAR
STARTCHAR Uring
ENCODING 366
SWIDTH 401 0
DWIDTH 16 0
BBX 11 39 2 -1
BITMAP
0E00
1F00
3180
3080
3080
3180
1F00
CE40
C0E0
C0E0
C0E0
C060
C060
C060
E060
E060
E060
E060
E060
E060
E060
E060
E060
E060
E060
E060
6060
6060
6060
6060
7060
7060
3060
3060
3860
1860
1C60
0FC0
0780
ENDCHAR
STARTCHAR uring
ENCODING 367
SWIDTH 361 0
DWIDTH 14 0
BBX 10 37 2 0
BITMAP
1C00
3E00
6300
6100
6100
6300
3E00
1C00
0000
0000
C0C0
C0C0
C0C0
C0C0
C0C0
C0C0
C0C0
C0C0
C0C0
C0C0
C0C0
C0C0
C0C0
C0C0
C0C0
C0C0
C0C0
C1C0
C180
C180
E180
6180
6180
6300
7300
3E00
1C00
ENDCHAR
STARTCHAR Uhungarumlaut
ENCODING 368
SWIDTH 401 0
DWIDTH 16 0
BBX 16 41 2 -1
BITMAP
0102
0187
030E
071C
0E38
0C70
18E0
11C0
2100
C040
C0E0
C0E0
C0E0
C060
C060
C060
E060
E060
E060
E060
E060
E060
E060
E060
E060
E060
E060
E060
6060
6060
6060
6060
7060
7060
3060
3060
3860
1860
1C60
0FC0
0780
ENDCHAR
STARTCHAR uhungarumlaut
ENCODING 369
SWIDTH 361 0
DWIDTH 14 0
BBX 15 37 2 0
BITMAP
0104
030E
071C
0E38
0C70
18E0
38C0
3180
4200
0000
C0C0
C0C0
C0C0
C0C0
C0C0
C0C0
C0C0
C0C0
C0C0
C0C0
C0C0
C0C0
C0C0
C0C0
C0C0
C0C0
C0C0
C1C0
C180
C180
E180
6180
6180
6300
7300
3E00
1C00
ENDCHAR
STARTCHAR Uogonek
ENCODING 370
SWIDTH 401 0
DWIDTH 16 0
BBX 12 38 2 -7
BITMAP
C040
C0E0
C0E0
C0E0
C060
C060
C060
E060
E060
E060
E060
E060
E060
E060
E060
E060
E060
E060
E060
6060
6060
6060
6060
7060
7060
3060
3060
3860
1860
1C60
0FD0
07E0
00C0
00C0
0180
0180
01F0
00E0
ENDCHAR
STARTCHAR uogonek
ENCODING 371
SWIDTH 361 0
DWIDTH 14 0
BBX 10 34 2 -7
BITMAP
C0C0
C0C0
C0C0
C0C0
C0C0
C0C0
C0C0
C0C0
C0C0
C0C0
C0C0
C0C0
C0C0
C0C0
C0C0
C0C0
C0C0
C1C0
C180
C180
E180
6180
6180
6300
7300
3E00
1C00
1800
3000
2000
6000
6000
7C00
3800
ENDCHAR
STARTCHAR Wcircumflex
ENCODING 372
SWIDTH 494 0
DWIDTH 20 0
BBX 17 41 1 -1
BITMAP
00C000
00C000
01E000
01E000
032000
033000
063000
023000
000000
400380
C00300
E00300
600300
618300
618300
618300
718300
738300
338300
33C700
33C600
33C600
33C600
33C600
3BE600
3BE600
1B6600
1E6C00
1E6C00
1E7C00
1E7C00
1E7C00
1E3C00
0E3C00
0E3C00
0E3800
0E3800
0E1800
0E1800
0E1800
0C0800
ENDCHAR
STARTCHAR wcircumflex
ENCODING 373
SWIDTH 429 0
DWIDTH 17 0
BBX 14 36 1 -1
BITMAP
0180
0380
03C0
02C0
0640
0640
0C60
0460
000C
C00C
E00C
610C
630C
638C
638C
639C
639C
629C
62DC
62D8
62D8
76D8
36D8
3658
3658
3658
3658
3678
3678
3E70
3C30
3C30
1C30
1C30
1830
0800
ENDCHAR
STARTCHAR Ycircumflex
ENCODING 374
SWIDTH 265 0
DWIDTH 11 0
BBX 9 41 1 -1
BITMAP
0600
0E00
0E00
1B00
1B00
3100
3180
2100
0000
8600
C600
C600
C600
CE00
EE00
EE00
6C00
6C00
6C00
3C00
3C00
3C00
3800
1800
1800
1800
1800
1800
1800
1800
1800
1800
1800
1800
1800
1800
1800
1800
1C00
1C00
1800
ENDCHAR
STARTCHAR ycircumflex
ENCODING 375
SWIDTH 283 0
DWIDTH 11 0
BBX 8 36 1 -1
BITMAP
0C
0C
1E
1E
32
33
63
23
01
C3
C3
C3
E7
67
66
76
3E
3E
1C
1C
1C
0C
0C
0C
0C
0C
0C
0C
0C
0C
0C
0C
0C
0C
0C
0C
ENDCHAR
STARTCHAR Ydieresis
ENCODING 376
SWIDTH 265 0
DWIDTH 11 0
BBX 10 36 1 -1
BITMAP
61C0
71C0
61C0
0000
8600
C600
C600
C600
CE00
EE00
EE00
6C00
6C00
6C00
3C00
3C00
3C00
3800
1800
1800
1800
1800
1800
1800
1800
1800
1800
1800
1800
1800
1800
1800
1800
1C00
1C00
1800
ENDCHAR
STARTCHAR Zacute
ENCODING 377
SWIDTH 261 0
DWIDTH 10 0
BBX 10 37 1 0
BITMAP
00C0
01C0
0380
0700
1C00
1000
FE00
7E00
0600
0600
0600
0E00
0E00
0E00
0C00
0C00
0C00
0C00
0C00
1C00
1C00
1800
1800
1800
1800
1800
3000
3000
3000
3000
3000
6000
6000
6000
6000
FC00
FE00
ENDCHAR
STARTCHAR zacute
ENCODING 378
SWIDTH 292 0
DWIDTH 12 0
BBX 11 34 2 0
BITMAP
0060
00E0
01C0
0380
0E00
0800
0000
3F00
3F00
0300
0700
0600
0600
0600
0C00
0C00
0C00
1C00
1C00
1800
1800
3800
3800
3000
7000
7000
7000
6000
E000
E000
E000
C000
FC00
FC00
ENDCHAR
STARTCHAR Zdotaccent
ENCODING 379
SWIDTH 261 0
DWIDTH 10 0
BBX 7 35 1 0
BITMAP
18
1C
18
00
FE
7E
06
06
06
0E
0E
0E
0C
0C
0C
0C
0C
1C
1C
18
18
18
18
18
30
30
30
30
30
60
60
60
60
FC
FE
ENDCHAR
STARTCHAR zdotaccent
ENCODING 380
SWIDTH 292 0
DWIDTH 12 0
BBX 8 31 2 0
BITMAP
0C
0C
0C
00
3F
3F
03
07
06
06
06
0C
0C
0C
1C
1C
18
18
38
38
30
70
70
70
60
E0
E0
E0
C0
FC
FC
ENDCHAR
STARTCHAR Zcaron
ENCODING 381
SWIDTH 261 0
DWIDTH 10 0
BBX 7 40 1 0
BITMAP
62
66
36
36
34
1C
1C
0C
00
FE
7E
06
06
06
0E
0E
0E
0C
0C
0C
0C
0C
1C
1C
18
18
18
18
18
30
30
30
30
30
60
60
60
60
FC
FE
ENDCHAR
STARTCHAR zcaron
ENCODING 382
SWIDTH 292 0
DWIDTH 12 0
BBX 8 36 2 0
BITMAP
33
33
33
1A
1A
0E
0E
06
00
3F
3F
03
07
06
06
06
0C
0C
0C
1C
1C
18
18
38
38
30
70
70
70
60
E0
E0
E0
C0
FC
FC
ENDCHAR
STARTCHAR uni018F
ENCODING 399
SWIDTH 446 0
DWIDTH 18 0
BBX 14 32 2 -1
BITMAP
0F80
1FE0
7070
E030
4038
0018
0018
001C
001C
001C
001C
001C
001C
001C
1FFC
3FFC
601C
E01C
E01C
C01C
C01C
C01C
C01C
C01C
C018
C018
E038
E030
6070
70E0
3FC0
0F80
ENDCHAR
STARTCHAR florin
ENCODING 402
SWIDTH 640 0
DWIDTH 26 0
BBX 13 37 6 -4
BITMAP
0010
00F8
01F0
0380
0300
0300
0300
0300
0300
0300
0300
0300
0300
0700
0700
0700
0700
0FE0
3FE0
0F00
0700
0700
0600
0600
0600
0600
0600
0600
0600
0600
0600
0600
0600
0E00
3C00
FC00
F000
ENDCHAR
STARTCHAR uni019D
ENCODING 413
SWIDTH 412 0
DWIDTH 16 0
BBX 15 39 -1 -7
BITMAP
0006
0806
1C06
1C06
1C06
1E06
1E06
1E06
1B06
1B06
1B06
1986
1986
1984
1984
18C4
18C4
18CC
18CC
186C
186C
186C
182C
183C
083C
0C3C
0C1C
0C1C
0C1C
0C0C
0C0C
0C04
0C00
0C00
0C00
1800
7800
F000
C000
ENDCHAR
STARTCHAR Ohorn
ENCODING 416
SWIDTH 372 0
DWIDTH 15 0
BBX 12 36 2 -1
BITMAP
0020
0070
0070
0070
3FE0
7F80
6300
E380
C180
C180
C180
C0C0
C0C0
C0C0
C0C0
C0C0
C0C0
C0C0
C0C0
C0C0
C0C0
C0C0
C0C0
C0C0
C0C0
C0C0
C0C0
C0C0
60C0
60C0
6080
6180
3180
3180
1F00
0E00
ENDCHAR
STARTCHAR ohorn
ENCODING 417
SWIDTH 360 0
DWIDTH 14 0
BBX 11 31 2 -1
BITMAP
00E0
00E0
00E0
3FC0
7F00
6300
6180
C080
C0C0
C0C0
C0C0
C0C0
C0C0
C0C0
C0C0
C0C0
C0C0
C0C0
C0C0
C0C0
C0C0
C0C0
C0C0
E0C0
E0C0
60C0
61C0
6180
3380
3F00
1E00
ENDCHAR
STARTCHAR Uhorn
ENCODING 431
SWIDTH 426 0
DWIDTH 17 0
BBX 14 35 2 -1
BITMAP
0008
001C
000C
C04C
C0FC
C0F8
C0E0
C060
C060
C060
E060
E060
E060
E060
E060
E060
E060
E060
E060
E060
E060
E060
6060
6060
6060
6060
7060
7060
3060
3060
3860
1860
1C60
0FC0
0780
ENDCHAR
STARTCHAR uhorn
ENCODING 432
SWIDTH 407 0
DWIDTH 16 0
BBX 14 32 2 0
BITMAP
0008
001C
001C
001C
007C
C0F0
C0C0
C0C0
C0C0
C0C0
C0C0
C0C0
C0C0
C0C0
C0C0
C0C0
C0C0
C0C0
C0C0
C0C0
C0C0
C0C0
C1C0
C180
C180
E180
6180
6180
6300
7300
3E00
1C00
ENDCHAR
STARTCHAR uni01C4
ENCODING 452
SWIDTH 640 0
DWIDTH 26 0
BBX 21 40 2 0
BITMAP
000188
000198
0000D8
0000D8
0000D0
000070
000030
000030
000000
FC01F8
FE01F8
CF0018
C38018
C18018
41C018
40C038
40C038
40C038
60E030
60E030
606030
606030
606030
606070
606070
606060
60E060
60E060
60C060
60C0E0
60C0C0
61C0C0
6180C0
6180C0
6300C0
670180
660180
7E0180
FC03F0
7003F8
ENDCHAR
STARTCHAR uni01C5
ENCODING 453
SWIDTH 671 0
DWIDTH 27 0
BBX 23 36 2 0
BITMAP
000062
000066
000036
000036
000034
FC001C
FE001C
CF000C
C38000
C1807E
41C07E
40C006
40C006
40C00C
60E00C
60E00C
606018
606018
606018
606018
606038
606030
60E030
60E070
60C070
60C070
60C060
61C0E0
6180E0
6180E0
6300C0
6701C0
6601C0
7E01C0
FC01F8
7001F8
ENDCHAR
STARTCHAR uni01C6
ENCODING 454
SWIDTH 638 0
DWIDTH 26 0
BBX 22 36 2 0
BITMAP
00008C
0000C8
0000D8
0000D8
000078
000070
000030
000030
000000
7000FC
FC01FC
EE000C
E70018
630018
618018
618030
618030
61C030
60C030
60C070
60C060
60C060
60C0E0
60C0E0
60C0C0
60C0C0
60C1C0
60C1C0
61C180
618180
618380
618380
630380
670300
7E03F0
7803F0
ENDCHAR
STARTCHAR uni01C7
ENCODING 455
SWIDTH 518 0
DWIDTH 21 0
BBX 16 34 2 -3
BITMAP
C07F
E07E
E00C
E00C
E00C
E00C
E00C
E00C
600C
600C
600C
600C
600C
600C
600C
600C
600C
600C
6006
6006
6006
6006
6006
6006
6006
6006
6006
600E
600E
7C0C
7E1C
601C
0078
0030
ENDCHAR
STARTCHAR uni01C8
ENCODING 456
SWIDTH 504 0
DWIDTH 20 0
BBX 17 34 2 -3
BITMAP
C00000
E00000
E00000
E00000
E07F00
E07F80
E00C00
E00C00
600C00
600C00
600C00
600C00
600C00
600C00
600C00
600C00
600C00
600C00
600C00
600C00
600C00
600C00
600C00
600C00
600C00
600C00
600C00
600C00
600C00
7C0C00
7E0C00
601800
00F800
00E000
ENDCHAR
STARTCHAR uni01C9
ENCODING 457
SWIDTH 522 0
DWIDTH 21 0
BBX 17 30 3 -3
BITMAP
C0FF00
C07F80
C00C00
C00C00
C00C00
C00C00
C00C00
C00C00
C00C00
C00C00
C00C00
C00C00
C00C00
C00C00
C00C00
C00C00
C00C00
C00C00
C00C00
C00C00
C00C00
C00C00
C00C00
C00C00
C00C00
FC0C00
FE1C00
C63800
00F000
00E000
ENDCHAR
STARTCHAR uni01CA
ENCODING 458
SWIDTH 680 0
DWIDTH 27 0
BBX 22 35 2 -3
BITMAP
003000
4030FC
E031FC
E03030
E03030
F03030
F03030
F03030
D83030
D83010
D83010
D83018
CC3018
CC2018
CC2018
C62018
C62018
C62018
C66018
C36018
C36018
C36018
C16018
C16018
41E018
41E018
60E018
60E018
60E018
606018
606038
E02038
000070
0000F0
0000E0
ENDCHAR
STARTCHAR uni01CB
ENCODING 459
SWIDTH 666 0
DWIDTH 27 0
BBX 24 35 2 -3
BITMAP
003000
403000
E03000
E03000
E03000
F031FC
F030FF
F03038
D83038
D83038
D83038
D83038
CC3038
CC2038
CC2038
C62038
C62038
C62018
C66018
C36018
C36018
C36018
C16018
C16018
41E018
41E018
60E018
60E018
60E018
606018
606038
E02030
000070
0001E0
0003C0
ENDCHAR
STARTCHAR uni01CC
ENCODING 460
SWIDTH 733 0
DWIDTH 29 0
BBX 25 30 3 -3
BITMAP
60187F00
E0187F80
F0180C00
F0180C00
F8180C00
F8180C00
D8180C00
DC180C00
CC180C00
CC180C00
CE180C00
C6180C00
C6180C00
C7180C00
C3180E00
C3180E00
C3180E00
C1980E00
C1980E00
C0980E00
C0980E00
C0F80E00
C0F00E00
C0700E00
C0700E00
C0700C00
C0700C00
00001C00
00007800
0000E000
ENDCHAR
STARTCHAR uni01CD
ENCODING 461
SWIDTH 350 0
DWIDTH 14 0
BBX 11 40 1 0
BITMAP
08C0
0C80
0C80
0F80
0780
0780
0300
0100
0000
0300
0300
0700
0700
0780
0F80
0D80
0D80
0D80
0D80
1980
1980
1980
19C0
19C0
39C0
30C0
30C0
30C0
30C0
30C0
70C0
7FC0
7FC0
60C0
60C0
60E0
C0E0
C0E0
C0E0
40C0
ENDCHAR
STARTCHAR uni01CE
ENCODING 462
SWIDTH 299 0
DWIDTH 12 0
BBX 11 37 0 0
BITMAP
0CC0
0CC0
0CC0
0680
0680
0380
0380
0100
0000
0000
0700
0700
0700
0700
0700
0500
0D80
0D80
0D80
0D80
0980
0980
1980
1980
19C0
19C0
18C0
30C0
30C0
3EC0
37C0
30C0
70C0
60E0
60E0
E060
6060
ENDCHAR
STARTCHAR uni01CF
ENCODING 463
SWIDTH 257 0
DWIDTH 10 0
BBX 8 40 1 0
BITMAP
8C
CC
C8
78
78
78
30
10
00
3E
FC
30
30
30
30
30
30
30
30
30
30
38
38
18
18
18
18
18
18
18
18
18
18
18
18
18
18
18
FF
7E
ENDCHAR
STARTCHAR uni01D0
ENCODING 464
SWIDTH 226 0
DWIDTH 9 0
BBX 7 36 1 0
BITMAP
C4
CC
EC
68
68
28
38
18
00
7C
FC
30
30
30
30
30
30
30
30
30
30
30
30
30
30
30
30
30
38
38
38
18
18
18
FE
FE
ENDCHAR
STARTCHAR uni01D1
ENCODING 465
SWIDTH 355 0
DWIDTH 14 0
BBX 10 41 2 -1
BITMAP
6200
6600
7600
3400
3400
1400
1C00
0C00
0000
3C00
7E00
6300
E300
C180
C180
C180
C080
C0C0
C0C0
C0C0
C0C0
C0C0
C0C0
C0C0
C0C0
C0C0
C0C0
C0C0
C0C0
C0C0
C0C0
C0C0
C0C0
60C0
60C0
6080
6180
3180
3180
1F00
0E00
ENDCHAR
STARTCHAR uni01D2
ENCODING 466
SWIDTH 360 0
DWIDTH 14 0
BBX 10 37 2 -1
BITMAP
6200
6600
3600
3600
3400
1C00
1C00
0C00
0000
3C00
7E00
6300
6180
C080
C0C0
C0C0
C0C0
C0C0
C0C0
C0C0
C0C0
C0C0
C0C0
C0C0
C0C0
C0C0
C0C0
C0C0
C0C0
E0C0
E0C0
60C0
61C0
6180
3380
3F00
1E00
ENDCHAR
STARTCHAR uni01D3
ENCODING 467
SWIDTH 401 0
DWIDTH 16 0
BBX 11 41 2 -1
BITMAP
3100
3300
1B00
1B00
1A00
0E00
0E00
0600
0000
C040
C0E0
C0E0
C0E0
C060
C060
C060
E060
E060
E060
E060
E060
E060
E060
E060
E060
E060
E060
E060
6060
6060
6060
6060
7060
7060
3060
3060
3860
1860
1C60
0FC0
0780
ENDCHAR
STARTCHAR uni01D4
ENCODING 468
SWIDTH 361 0
DWIDTH 14 0
BBX 10 37 2 0
BITMAP
2300
3200
3600
3600
1E00
1C00
0C00
0400
0000
0000
C0C0
C0C0
C0C0
C0C0
C0C0
C0C0
C0C0
C0C0
C0C0
C0C0
C0C0
C0C0
C0C0
C0C0
C0C0
C0C0
C0C0
C1C0
C180
C180
E180
6180
6180
6300
7300
3E00
1C00
ENDCHAR
STARTCHAR uni01E2
ENCODING 482
SWIDTH 491 0
DWIDTH 20 0
BBX 16 35 2 -1
BITMAP
0FFE
07FF
0000
00FC
00FC
01C0
01C0
01C0
03C0
03C0
03C0
06C0
06C0
06C0
0CC0
0CC0
0CC0
0CC0
18C0
18F8
1FFC
38C0
30C0
30C0
30C0
70C0
60C0
60C0
60C0
60C0
E0C0
C0C0
C0CE
C0FF
0080
ENDCHAR
STARTCHAR uni01E3
ENCODING 483
SWIDTH 438 0
DWIDTH 18 0
BBX 16 36 2 -1
BITMAP
07FE
07FF
0000
0000
00FC
00FC
01C0
01C0
01C0
03C0
03C0
03C0
06C0
06C0
06C0
0CC0
0CC0
0CC0
0CC0
18C0
18F8
1FFC
38C0
30C0
30C0
30C0
70C0
60C0
60C0
60C0
60C0
E0C0
C0C0
C0CE
C0FF
0080
ENDCHAR
STARTCHAR Gcaron
ENCODING 486
SWIDTH 371 0
DWIDTH 15 0
BBX 12 41 2 -1
BITMAP
6200
7200
3600
3600
1E00
1C00
0C00
0C00
0000
0F00
1F00
3000
7000
6000
6000
E000
E000
C000
C000
C000
C000
C000
C000
C000
C000
C000
C000
C000
C000
C000
C000
C1E0
C3E0
C060
C060
6020
6030
6030
3070
1FF0
0FB0
ENDCHAR
STARTCHAR gcaron
ENCODING 487
SWIDTH 346 0
DWIDTH 14 0
BBX 10 36 2 0
BITMAP
2300
3300
3300
1A00
1E00
0E00
0E00
0400
0000
0F00
3E00
3000
7000
6000
6000
E000
E000
E000
E000
C000
C000
C000
C000
C780
C7C0
C0C0
C0C0
C0C0
E0C0
E0C0
E0C0
60C0
70C0
71C0
3F80
1F00
ENDCHAR
STARTCHAR uni01E8
ENCODING 488
SWIDTH 356 0
DWIDTH 14 0
BBX 11 41 2 -1
BITMAP
3100
3300
3B00
1A00
1A00
0A00
0E00
0600
0080
40C0
E1C0
E180
E380
6300
6700
6600
6600
6C00
6C00
7C00
7800
7800
7C00
6C00
6400
6600
6200
6200
6300
6300
6100
6180
6180
E180
E0C0
E0C0
E0C0
E0C0
E0E0
6060
0060
ENDCHAR
STARTCHAR uni01E9
ENCODING 489
SWIDTH 350 0
DWIDTH 14 0
BBX 10 36 3 0
BITMAP
6600
6600
6600
3400
3400
1C00
1C00
0800
0000
C180
E180
C380
C700
C700
CE00
CC00
DC00
D800
F800
F800
F800
F800
D800
CC00
CC00
CC00
CC00
C600
C600
C600
C700
C300
C380
C180
C1C0
C0C0
ENDCHAR
STARTCHAR uni01EA
ENCODING 490
SWIDTH 355 0
DWIDTH 14 0
BBX 10 38 2 -7
BITMAP
3C00
7E00
6300
E300
C180
C180
C180
C080
C0C0
C0C0
C0C0
C0C0
C0C0
C0C0
C0C0
C0C0
C0C0
C0C0
C0C0
C0C0
C0C0
C0C0
C0C0
C0C0
60C0
60C0
6080
6180
3180
3180
1F00
0E00
0C00
1800
1800
1800
1E00
0C00
ENDCHAR
STARTCHAR uni01EB
ENCODING 491
SWIDTH 360 0
DWIDTH 14 0
BBX 10 34 2 -7
BITMAP
3C00
7E00
6300
6180
C080
C0C0
C0C0
C0C0
C0C0
C0C0
C0C0
C0C0
C0C0
C0C0
C0C0
C0C0
C0C0
C0C0
C0C0
C0C0
E0C0
E0C0
60C0
61C0
6180
3380
3F00
1E00
0C00
1800
1000
1000
1E00
1C00
ENDCHAR
STARTCHAR uni01F0
ENCODING 496
SWIDTH 254 0
DWIDTH 10 0
BBX 9 39 0 -3
BITMAP
2300
3300
3200
1A00
1E00
1E00
0C00
0400
0000
7F00
7F80
0C00
0C00
0C00
0C00
0C00
0C00
0C00
0C00
0C00
0C00
0C00
0C00
0C00
0C00
0C00
0C00
0C00
0C00
0C00
0C00
0C00
0C00
0C00
0C00
0C00
1800
F800
E000
ENDCHAR
STARTCHAR uni01F1
ENCODING 497
SWIDTH 640 0
DWIDTH 26 0
BBX 21 31 2 0
BITMAP
FC01F8
FE01F8
CF0018
C38018
C18018
41C018
40C038
40C038
40C038
60E030
60E030
606030
606030
606030
606070
606070
606060
60E060
60E060
60C060
60C0E0
60C0C0
61C0C0
6180C0
6180C0
6300C0
670180
660180
7E0180
FC03F0
7003F8
ENDCHAR
STARTCHAR uni01F2
ENCODING 498
SWIDTH 671 0
DWIDTH 27 0
BBX 23 31 2 0
BITMAP
FC0000
FE0000
CF0000
C38000
C1807E
41C07E
40C006
40C006
40C00C
60E00C
60E00C
606018
606018
606018
606018
606038
606030
60E030
60E070
60C070
60C070
60C060
61C0E0
6180E0
6180E0
6300C0
6701C0
6601C0
7E01C0
FC01F8
7001F8
ENDCHAR
STARTCHAR uni01F3
ENCODING 499
SWIDTH 638 0
DWIDTH 26 0
BBX 22 27 2 0
BITMAP
7000FC
FC01FC
EE000C
E70018
630018
618018
618030
618030
61C030
60C030
60C070
60C060
60C060
60C0E0
60C0E0
60C0C0
60C0C0
60C1C0
60C1C0
61C180
618180
618380
618380
630380
670300
7E03F0
7803F0
ENDCHAR
STARTCHAR uni01F4
ENCODING 500
SWIDTH 371 0
DWIDTH 15 0
BBX 12 39 2 -1
BITMAP
00C0
01C0
03C0
0700
0C00
1000
0000
0F00
1F00
3000
7000
6000
6000
E000
E000
C000
C000
C000
C000
C000
C000
C000
C000
C000
C000
C000
C000
C000
C000
C1E0
C3E0
C060
C060
6020
6030
6030
3070
1FF0
0FB0
ENDCHAR
STARTCHAR uni01F5
ENCODING 501
SWIDTH 346 0
DWIDTH 14 0
BBX 11 34 2 0
BITMAP
0060
00E0
01C0
0780
0E00
0800
0000
0F00
3E00
3000
7000
6000
6000
E000
E000
E000
E000
C000
C000
C000
C000
C780
C7C0
C0C0
C0C0
C0C0
E0C0
E0C0
E0C0
60C0
70C0
71C0
3F80
1F00
ENDCHAR
STARTCHAR uni01F8
ENCODING 504
SWIDTH 412 0
DWIDTH 16 0
BBX 12 35 2 0
BITMAP
6000
7800
1E00
0330
4030
E030
E030
E030
F030
F030
F030
D830
D830
D830
D830
CC30
CC20
CC20
C620
C620
C620
C660
C360
C360
C360
C160
C160
41E0
41E0
60E0
60E0
60E0
6060
6060
E020
ENDCHAR
STARTCHAR uni01F9
ENCODING 505
SWIDTH 479 0
DWIDTH 19 0
BBX 13 32 3 0
BITMAP
6000
7800
1E00
0300
0000
6018
E018
F018
F018
F818
F818
D818
DC18
CC18
CC18
CE18
C618
C618
C718
C318
C318
C318
C198
C198
C098
C098
C0F8
C0F0
C070
C070
C070
C070
ENDCHAR
STARTCHAR Aringacute
ENCODING 506
SWIDTH 350 0
DWIDTH 14 0
BBX 13 45 1 0
BITMAP
0018
0038
0070
00E0
0380
0200
0000
0300
0FC0
0C60
0860
0860
0840
0FC0
0780
0300
0700
0700
0780
0F80
0D80
0D80
0D80
0D80
1980
1980
1980
19C0
19C0
39C0
30C0
30C0
30C0
30C0
30C0
70C0
7FC0
7FC0
60C0
60C0
60E0
C0E0
C0E0
C0E0
40C0
ENDCHAR
STARTCHAR aringacute
ENCODING 507
SWIDTH 299 0
DWIDTH 12 0
BBX 13 43 0 0
BITMAP
0018
0038
0070
01E0
0380
0200
0700
0FC0
0CC0
1860
1840
0840
0FC0
0780
0000
0000
0700
0700
0700
0700
0700
0500
0D80
0D80
0D80
0D80
0980
0980
1980
1980
19C0
19C0
18C0
30C0
30C0
3EC0
37C0
30C0
70C0
60E0
60E0
E060
6060
ENDCHAR
STARTCHAR AEacute
ENCODING 508
SWIDTH 491 0
DWIDTH 20 0
BBX 16 38 2 -1
BITMAP
0002
0007
001E
003C
0070
0040
00FC
00FC
01C0
01C0
01C0
03C0
03C0
03C0
06C0
06C0
06C0
0CC0
0CC0
0CC0
0CC0
18C0
18F8
1FFC
38C0
30C0
30C0
30C0
70C0
60C0
60C0
60C0
60C0
E0C0
C0C0
C0CE
C0FF
0080
ENDCHAR
STARTCHAR aeacute
ENCODING 509
SWIDTH 438 0
DWIDTH 18 0
BBX 16 40 2 -1
BITMAP
0003
0007
000F
001C
0030
0060
0000
0000
00FC
00FC
01C0
01C0
01C0
03C0
03C0
03C0
06C0
06C0
06C0
0CC0
0CC0
0CC0
0CC0
18C0
18F8
1FFC
38C0
30C0
30C0
30C0
70C0
60C0
60C0
60C0
60C0
E0C0
C0C0
C0CE
C0FF
0080
ENDCHAR
STARTCHAR Oslashacute
ENCODING 510
SWIDTH 356 0
DWIDTH 14 0
BBX 11 43 1 -5
BITMAP
0C00
1E00
3CC0
70C0
C0C0
8080
0080
1E80
3F80
3180
71C0
61C0
61C0
63C0
63E0
6260
6260
6260
6260
6660
6660
6460
6460
6460
6460
6C60
6860
6860
6860
6860
7860
3860
3060
3040
30C0
18C0
38C0
3F80
2700
2000
2000
2000
6000
ENDCHAR
STARTCHAR oslashacute
ENCODING 511
SWIDTH 365 0
DWIDTH 15 0
BBX 10 41 2 -6
BITMAP
0300
0700
0E00
3C00
7100
4100
0100
0300
3F00
7F00
6300
6380
C280
C2C0
C6C0
C6C0
C4C0
C4C0
C4C0
C4C0
CCC0
CCC0
C8C0
C8C0
C8C0
C8C0
C8C0
D8C0
F8C0
70C0
70C0
71C0
7180
3380
3F00
3E00
2000
2000
2000
2000
2000
ENDCHAR
STARTCHAR uni0200
ENCODING 512
SWIDTH 350 0
DWIDTH 14 0
BBX 13 40 1 0
BITMAP
2000
6180
31C0
18C0
0C60
0620
0210
0118
0000
0300
0300
0700
0700
0780
0F80
0D80
0D80
0D80
0D80
1980
1980
1980
19C0
19C0
39C0
30C0
30C0
30C0
30C0
30C0
70C0
7FC0
7FC0
60C0
60C0
60E0
C0E0
C0E0
C0E0
40C0
ENDCHAR
STARTCHAR uni0201
ENCODING 513
SWIDTH 299 0
DWIDTH 12 0
BBX 12 36 -1 0
BITMAP
4000
C300
6180
3180
18C0
0C40
0420
0230
0000
0380
0380
0380
0380
0380
0280
06C0
06C0
06C0
06C0
04C0
04C0
0CC0
0CC0
0CE0
0CE0
0C60
1860
1860
1F60
1BE0
1860
3860
3070
3070
7030
3030
ENDCHAR
STARTCHAR uni0202
ENCODING 514
SWIDTH 350 0
DWIDTH 14 0
BBX 11 36 1 0
BITMAP
0300
0F80
0CC0
18C0
18C0
0300
0300
0700
0700
0780
0F80
0D80
0D80
0D80
0D80
1980
1980
1980
19C0
19C0
39C0
30C0
30C0
30C0
30C0
30C0
70C0
7FC0
7FC0
60C0
60C0
60E0
C0E0
C0E0
C0E0
40C0
ENDCHAR
STARTCHAR uni0203
ENCODING 515
SWIDTH 299 0
DWIDTH 12 0
BBX 11 33 0 0
BITMAP
0300
0F80
0CC0
0CC0
08C0
0000
0700
0700
0700
0700
0700
0500
0D80
0D80
0D80
0D80
0980
0980
1980
1980
19C0
19C0
18C0
30C0
30C0
3EC0
37C0
30C0
70C0
60E0
60E0
E060
6060
ENDCHAR
STARTCHAR uni0204
ENCODING 516
SWIDTH 278 0
DWIDTH 11 0
BBX 12 41 -1 0
BITMAP
4000
C300
6180
3180
18C0
0C40
0420
0230
0000
0000
0F00
1F80
1F00
1C00
1C00
0C00
0C00
0C00
0C00
0C00
0C00
0C00
0C00
0C00
0F80
0F80
0C00
0C00
0C00
0C00
0C00
0C00
0C00
0C00
0C00
0C00
0C00
0C00
0C00
0FC0
0FC0
ENDCHAR
STARTCHAR uni0205
ENCODING 517
SWIDTH 284 0
DWIDTH 11 0
BBX 12 36 -3 -1
BITMAP
4000
E100
7180
31C0
18C0
0C60
0620
0210
03C0
03F0
03F0
0300
0300
0300
0300
0300
0300
0300
0300
03E0
03E0
0300
0300
0300
0300
0300
0300
0300
0300
0300
0300
0300
0300
0300
03F0
03F0
ENDCHAR
STARTCHAR uni0206
ENCODING 518
SWIDTH 278 0
DWIDTH 11 0
BBX 8 37 1 0
BITMAP
18
7C
66
C6
C6
00
3C
7E
7C
70
70
30
30
30
30
30
30
30
30
30
3E
3E
30
30
30
30
30
30
30
30
30
30
30
30
30
3F
3F
ENDCHAR
STARTCHAR uni0207
ENCODING 519
SWIDTH 284 0
DWIDTH 11 0
BBX 7 33 2 -1
BITMAP
38
7C
CC
CE
CE
78
7E
7E
60
60
60
60
60
60
60
60
7C
7C
60
60
60
60
60
60
60
60
60
60
60
60
60
7E
7E
ENDCHAR
STARTCHAR uni0208
ENCODING 520
SWIDTH 257 0
DWIDTH 10 0
BBX 12 40 -2 0
BITMAP
4000
C300
6180
3180
18C0
0C40
0420
0230
0000
07C0
1F80
0600
0600
0600
0600
0600
0600
0600
0600
0600
0600
0700
0700
0300
0300
0300
0300
0300
0300
0300
0300
0300
0300
0300
0300
0300
0300
0300
1FE0
0FC0
ENDCHAR
STARTCHAR uni0209
ENCODING 521
SWIDTH 226 0
DWIDTH 9 0
BBX 12 36 -4 0
BITMAP
4000
E300
6180
3180
18C0
0C60
0620
0210
0000
03E0
07E0
0180
0180
0180
0180
0180
0180
0180
0180
0180
0180
0180
0180
0180
0180
0180
0180
0180
01C0
01C0
01C0
00C0
00C0
00C0
07F0
07F0
ENDCHAR
STARTCHAR uni020A
ENCODING 522
SWIDTH 257 0
DWIDTH 10 0
BBX 9 37 0 0
BITMAP
1800
7C00
6600
C600
C600
0000
1F00
7E00
1800
1800
1800
1800
1800
1800
1800
1800
1800
1800
1C00
1C00
0C00
0C00
0C00
0C00
0C00
0C00
0C00
0C00
0C00
0C00
0C00
0C00
0C00
0C00
0C00
7F80
3F00
ENDCHAR
STARTCHAR uni020B
ENCODING 523
SWIDTH 226 0
DWIDTH 9 0
BBX 7 33 1 0
BITMAP
30
78
CC
CC
8E
00
7C
FC
30
30
30
30
30
30
30
30
30
30
30
30
30
30
30
30
30
38
38
38
18
18
18
FE
FE
ENDCHAR
STARTCHAR uni020C
ENCODING 524
SWIDTH 355 0
DWIDTH 14 0
BBX 12 42 0 -1
BITMAP
4000
E100
7180
31C0
18C0
0C60
0620
0210
0000
0000
0F00
1F80
18C0
38C0
3060
3060
3060
3020
3030
3030
3030
3030
3030
3030
3030
3030
3030
3030
3030
3030
3030
3030
3030
3030
1830
1830
1820
1860
0C60
0C60
07C0
0380
ENDCHAR
STARTCHAR uni020D
ENCODING 525
SWIDTH 360 0
DWIDTH 14 0
BBX 14 37 -2 -1
BITMAP
4000
E100
7180
31C0
18C0
0C60
0620
0210
0000
03C0
07E0
0630
0618
0C08
0C0C
0C0C
0C0C
0C0C
0C0C
0C0C
0C0C
0C0C
0C0C
0C0C
0C0C
0C0C
0C0C
0C0C
0C0C
0E0C
0E0C
060C
061C
0618
0338
03F0
01E0
ENDCHAR
STARTCHAR uni020E
ENCODING 526
SWIDTH 355 0
DWIDTH 14 0
BBX 10 38 2 -1
BITMAP
1800
3C00
6600
6600
4700
0000
3C00
7E00
6300
E300
C180
C180
C180
C080
C0C0
C0C0
C0C0
C0C0
C0C0
C0C0
C0C0
C0C0
C0C0
C0C0
C0C0
C0C0
C0C0
C0C0
C0C0
C0C0
60C0
60C0
6080
6180
3180
3180
1F00
0E00
ENDCHAR
STARTCHAR uni020F
ENCODING 527
SWIDTH 360 0
DWIDTH 14 0
BBX 10 33 2 -1
BITMAP
1800
3E00
6600
6700
6700
3C00
7E00
6300
6180
C080
C0C0
C0C0
C0C0
C0C0
C0C0
C0C0
C0C0
C0C0
C0C0
C0C0
C0C0
C0C0
C0C0
C0C0
C0C0
E0C0
E0C0
60C0
61C0
6180
3380
3F00
1E00
ENDCHAR
STARTCHAR uni0210
ENCODING 528
SWIDTH 289 0
DWIDTH 12 0
BBX 13 40 -2 0
BITMAP
4000
C300
6300
3180
18C0
0C40
0460
0220
0000
0E00
0F80
0D80
0CC0
0CC0
0CC0
0CC0
0CC0
0CC0
0CC0
0CC0
0D80
0F80
0F80
0D80
0D80
0D80
0D80
0C80
0CC0
0CC0
0C40
0C60
0C60
0C60
0C30
0C30
0C30
0C38
0C38
0C18
ENDCHAR
STARTCHAR uni0211
ENCODING 529
SWIDTH 295 0
DWIDTH 12 0
BBX 12 35 -2 0
BITMAP
4000
C300
6380
3180
18C0
0C40
0460
0230
0700
0FC0
0CC0
0CE0
0C60
0C60
0C60
0CE0
0CC0
04C0
07C0
0780
0780
0580
0580
0580
0480
04C0
04C0
04C0
04C0
0460
0660
0660
0630
0630
0610
ENDCHAR
STARTCHAR uni0212
ENCODING 530
SWIDTH 289 0
DWIDTH 12 0
BBX 11 36 0 0
BITMAP
1800
7C00
6E00
C600
C600
3800
3E00
3600
3300
3300
3300
3300
3300
3300
3300
3300
3600
3E00
3E00
3600
3600
3600
3600
3200
3300
3300
3100
3180
3180
3180
30C0
30C0
30C0
30E0
30E0
3060
ENDCHAR
STARTCHAR uni0213
ENCODING 531
SWIDTH 295 0
DWIDTH 12 0
BBX 8 32 2 0
BITMAP
18
7C
66
46
C6
70
FC
CC
CE
C6
C6
C6
CE
CC
4C
7C
78
78
58
58
58
48
4C
4C
4C
4C
46
66
66
63
63
61
ENDCHAR
STARTCHAR uni0214
ENCODING 532
SWIDTH 401 0
DWIDTH 16 0
BBX 12 41 1 -1
BITMAP
4000
E100
7180
38C0
18C0
0C60
0620
0210
0000
6020
6070
6070
6070
6030
6030
6030
7030
7030
7030
7030
7030
7030
7030
7030
7030
7030
7030
7030
3030
3030
3030
3030
3830
3830
1830
1830
1C30
0C30
0E30
07E0
03C0
ENDCHAR
STARTCHAR uni0215
ENCODING 533
SWIDTH 361 0
DWIDTH 14 0
BBX 13 36 -1 0
BITMAP
8000
C200
E300
7180
18C0
08C0
0460
0220
0000
1818
1818
1818
1818
1818
1818
1818
1818
1818
1818
1818
1818
1818
1818
1818
1818
1818
1838
1830
1830
1C30
0C30
0C30
0C60
0E60
07C0
0380
ENDCHAR
STARTCHAR uni0216
ENCODING 534
SWIDTH 401 0
DWIDTH 16 0
BBX 11 37 2 -1
BITMAP
0C00
1F00
3300
3380
3380
C040
C0E0
C0E0
C0E0
C060
C060
C060
E060
E060
E060
E060
E060
E060
E060
E060
E060
E060
E060
E060
6060
6060
6060
6060
7060
7060
3060
3060
3860
1860
1C60
0FC0
0780
ENDCHAR
STARTCHAR uni0217
ENCODING 535
SWIDTH 361 0
DWIDTH 14 0
BBX 10 33 2 0
BITMAP
0C00
3E00
3700
6300
6300
0000
C0C0
C0C0
C0C0
C0C0
C0C0
C0C0
C0C0
C0C0
C0C0
C0C0
C0C0
C0C0
C0C0
C0C0
C0C0
C0C0
C0C0
C1C0
C180
C180
E180
6180
6180
6300
7300
3E00
1C00
ENDCHAR
STARTCHAR Scommaaccent
ENCODING 536
SWIDTH 307 0
DWIDTH 12 0
BBX 8 42 2 -11
BITMAP
1C
3E
70
E0
C0
C0
C0
C0
E0
60
60
70
30
38
18
1C
0C
0E
06
06
07
07
03
03
03
03
07
07
06
0E
FC
F8
00
00
10
18
30
30
60
60
C0
80
ENDCHAR
STARTCHAR scommaaccent
ENCODING 537
SWIDTH 247 0
DWIDTH 10 0
BBX 7 38 1 -11
BITMAP
38
3C
60
60
60
C0
C0
40
60
60
70
30
38
18
1C
0C
0C
06
06
06
06
06
06
06
0C
0C
F8
70
00
00
10
18
30
30
60
60
C0
80
ENDCHAR
STARTCHAR uni021A
ENCODING 538
SWIDTH 262 0
DWIDTH 10 0
BBX 9 42 0 -11
BITMAP
7F80
FF00
0C00
0C00
0C00
0C00
0C00
0C00
0C00
0C00
0C00
0C00
0C00
0C00
0C00
0C00
0C00
0C00
0C00
0C00
0C00
0C00
0C00
0C00
0C00
0C00
0C00
0E00
0E00
0E00
0400
0000
0000
0000
0200
0300
0600
0600
0C00
0800
1800
1000
ENDCHAR
STARTCHAR uni021B
ENCODING 539
SWIDTH 256 0
DWIDTH 10 0
BBX 9 38 0 -11
BITMAP
FF80
3F00
1800
0800
0800
0C00
0C00
0C00
0C00
0C00
0C00
0C00
0C00
0C00
0C00
0C00
0C00
0C00
0C00
0E00
0E00
0600
0600
0600
0600
0600
0400
0000
0000
0000
0200
0200
0600
0600
0C00
0800
1800
1000
ENDCHAR
STARTCHAR uni021E
ENCODING 542
SWIDTH 330 0
DWIDTH 13 0
BBX 9 40 2 0
BITMAP
4600
6600
6400
3400
3C00
3C00
1800
0800
0000
C200
C300
C300
C300
C300
C300
C300
C300
C300
C300
C300
C300
C300
C300
FF00
C300
C300
C300
C300
C300
E300
E300
E300
6300
6300
6300
6380
6380
6380
6380
2100
ENDCHAR
STARTCHAR uni021F
ENCODING 543
SWIDTH 331 0
DWIDTH 13 0
BBX 9 36 2 0
BITMAP
4600
6400
6C00
6C00
3C00
3800
1800
0800
0000
4300
E300
E300
E300
E300
E300
E300
6300
6300
6300
6300
6300
E300
FF00
6F00
E380
E380
E380
E380
E380
E380
E380
E380
E380
6380
6380
6180
ENDCHAR
STARTCHAR uni0226
ENCODING 550
SWIDTH 350 0
DWIDTH 14 0
BBX 11 35 1 0
BITMAP
0300
0700
0300
0000
0300
0300
0700
0700
0780
0F80
0D80
0D80
0D80
0D80
1980
1980
1980
19C0
19C0
39C0
30C0
30C0
30C0
30C0
30C0
70C0
7FC0
7FC0
60C0
60C0
60E0
C0E0
C0E0
C0E0
40C0
ENDCHAR
STARTCHAR uni0227
ENCODING 551
SWIDTH 299 0
DWIDTH 12 0
BBX 11 32 0 0
BITMAP
0300
0700
0300
0000
0000
0700
0700
0700
0700
0700
0500
0D80
0D80
0D80
0D80
0980
0980
1980
1980
19C0
19C0
18C0
30C0
30C0
3EC0
37C0
30C0
70C0
60E0
60E0
E060
6060
ENDCHAR
STARTCHAR uni0228
ENCODING 552
SWIDTH 278 0
DWIDTH 11 0
BBX 7 40 2 -9
BITMAP
78
FC
F8
E0
E0
60
60
60
60
60
60
60
60
60
7C
7C
60
60
60
60
60
60
60
60
60
60
60
60
60
7E
7E
10
10
18
1C
06
06
06
04
3C
ENDCHAR
STARTCHAR uni0229
ENCODING 553
SWIDTH 284 0
DWIDTH 11 0
BBX 7 36 3 -9
BITMAP
F0
FC
FC
C0
C0
C0
C0
C0
C0
C0
C0
F8
F8
C0
C0
C0
C0
C0
C0
C0
C0
C0
C0
C0
C0
C0
FC
FC
10
38
1C
04
06
06
04
38
ENDCHAR
STARTCHAR uni022A
ENCODING 554
SWIDTH 355 0
DWIDTH 14 0
BBX 12 40 1 -1
BITMAP
FFE0
7FF0
0000
0000
30C0
70E0
30C0
0000
1E00
3F00
3180
7180
60C0
60C0
60C0
6040
6060
6060
6060
6060
6060
6060
6060
6060
6060
6060
6060
6060
6060
6060
6060
6060
3060
3060
3040
30C0
18C0
18C0
0F80
0700
ENDCHAR
STARTCHAR uni022B
ENCODING 555
SWIDTH 360 0
DWIDTH 14 0
BBX 11 36 1 -1
BITMAP
FFC0
FFE0
0000
61C0
61C0
61C0
0000
0000
1E00
3F00
3180
30C0
6040
6060
6060
6060
6060
6060
6060
6060
6060
6060
6060
6060
6060
6060
6060
6060
7060
7060
3060
30E0
30C0
19C0
1F80
0F00
ENDCHAR
STARTCHAR uni022C
ENCODING 556
SWIDTH 355 0
DWIDTH 14 0
BBX 11 41 1 -1
BITMAP
FFC0
FFE0
0000
0000
3080
7DC0
EFC0
4780
0000
1E00
3F00
3180
7180
60C0
60C0
60C0
6040
6060
6060
6060
6060
6060
6060
6060
6060
6060
6060
6060
6060
6060
6060
6060
6060
3060
3060
3040
30C0
18C0
18C0
0F80
0700
ENDCHAR
STARTCHAR uni022D
ENCODING 557
SWIDTH 360 0
DWIDTH 14 0
BBX 11 36 1 -1
BITMAP
FFC0
FFE0
0000
3080
7CC0
6FC0
6780
0000
1E00
3F00
3180
30C0
6040
6060
6060
6060
6060
6060
6060
6060
6060
6060
6060
6060
6060
6060
6060
6060
7060
7060
3060
30E0
30C0
19C0
1F80
0F00
ENDCHAR
STARTCHAR uni022E
ENCODING 558
SWIDTH 355 0
DWIDTH 14 0
BBX 10 37 2 -1
BITMAP
1800
1C00
1800
0000
0000
3C00
7E00
6300
E300
C180
C180
C180
C080
C0C0
C0C0
C0C0
C0C0
C0C0
C0C0
C0C0
C0C0
C0C0
C0C0
C0C0
C0C0
C0C0
C0C0
C0C0
C0C0
60C0
60C0
6080
6180
3180
3180
1F00
0E00
ENDCHAR
STARTCHAR uni022F
ENCODING 559
SWIDTH 360 0
DWIDTH 14 0
BBX 10 33 2 -1
BITMAP
1800
1C00
1800
0000
0000
3C00
7E00
6300
6180
C080
C0C0
C0C0
C0C0
C0C0
C0C0
C0C0
C0C0
C0C0
C0C0
C0C0
C0C0
C0C0
C0C0
C0C0
C0C0
E0C0
E0C0
60C0
61C0
6180
3380
3F00
1E00
ENDCHAR
STARTCHAR uni0230
ENCODING 560
SWIDTH 355 0
DWIDTH 14 0
BBX 11 41 1 -1
BITMAP
FFC0
FFE0
0000
0000
0C00
0E00
0C00
0000
0000
1E00
3F00
3180
7180
60C0
60C0
60C0
6040
6060
6060
6060
6060
6060
6060
6060
6060
6060
6060
6060
6060
6060
6060
6060
6060
3060
3060
3040
30C0
18C0
18C0
0F80
0700
ENDCHAR
STARTCHAR uni0231
ENCODING 561
SWIDTH 360 0
DWIDTH 14 0
BBX 11 37 1 -1
BITMAP
FFC0
FFE0
0000
0000
0C00
0E00
0C00
0000
0000
1E00
3F00
3180
30C0
6040
6060
6060
6060
6060
6060
6060
6060
6060
6060
6060
6060
6060
6060
6060
6060
7060
7060
3060
30E0
30C0
19C0
1F80
0F00
ENDCHAR
STARTCHAR uni0232
ENCODING 562
SWIDTH 265 0
DWIDTH 11 0
BBX 11 35 0 -1
BITMAP
FFC0
FFE0
0000
4300
6300
6300
6300
6700
7700
7700
3600
3600
3600
1E00
1E00
1E00
1C00
0C00
0C00
0C00
0C00
0C00
0C00
0C00
0C00
0C00
0C00
0C00
0C00
0C00
0C00
0C00
0E00
0E00
0C00
ENDCHAR
STARTCHAR uni0233
ENCODING 563
SWIDTH 283 0
DWIDTH 11 0
BBX 11 31 0 -1
BITMAP
FFC0
FFE0
0000
0080
6180
6180
6180
7380
3380
3300
3B00
1F00
1F00
0E00
0E00
0E00
0600
0600
0600
0600
0600
0600
0600
0600
0600
0600
0600
0600
0600
0600
0600
ENDCHAR
STARTCHAR uni0237
ENCODING 567
SWIDTH 254 0
DWIDTH 10 0
BBX 9 30 0 -3
BITMAP
7F00
7F80
0C00
0C00
0C00
0C00
0C00
0C00
0C00
0C00
0C00
0C00
0C00
0C00
0C00
0C00
0C00
0C00
0C00
0C00
0C00
0C00
0C00
0C00
0C00
0C00
0C00
1800
F800
E000
ENDCHAR
STARTCHAR uni0259
ENCODING 601
SWIDTH 446 0
DWIDTH 18 0
BBX 13 28 2 0
BITMAP
0780
1FE0
7860
6030
0030
0018
0018
0018
0018
0018
0018
0018
0FF8
3FF8
7018
6018
6018
6018
E018
E018
E018
6038
6038
6030
7070
30E0
3FC0
0F80
ENDCHAR
STARTCHAR uni0272
ENCODING 626
SWIDTH 293 0
DWIDTH 12 0
BBX 17 37 -1 -10
BITMAP
060180
0E0180
0F0180
0F0180
0F8180
0F8180
0D8180
0DC180
0CC180
0CC180
0CE180
0C6180
0C6180
0C7180
0C3180
0C3180
0C1180
0C1980
0C1980
0C0980
0C0D80
0C0F80
0C0700
0C0700
0C0700
0C0700
0C0700
0C0000
0C0000
0C0000
0C0000
0C0000
180000
180000
380000
F00000
E00000
ENDCHAR
STARTCHAR uni02BC
ENCODING 700
SWIDTH 174 0
DWIDTH 7 0
BBX 5 8 1 26
BITMAP
20
78
78
78
30
70
E0
C0
ENDCHAR
STARTCHAR circumflex
ENCODING 710
SWIDTH 343 0
DWIDTH 14 0
BBX 6 8 4 27
BITMAP
10
38
78
68
4C
CC
C4
84
ENDCHAR
STARTCHAR caron
ENCODING 711
SWIDTH 343 0
DWIDTH 14 0
BBX 6 8 4 26
BITMAP
8C
C8
D8
D8
78
70
30
30
ENDCHAR
STARTCHAR uni02C9
ENCODING 713
SWIDTH 293 0
DWIDTH 12 0
BBX 8 2 2 21
BITMAP
FF
FF
ENDCHAR
STARTCHAR breve
ENCODING 728
SWIDTH 332 0
DWIDTH 13 0
BBX 7 6 4 27
BITMAP
84
CE
CE
CC
FC
78
ENDCHAR
STARTCHAR dotaccent
ENCODING 729
SWIDTH 378 0
DWIDTH 15 0
BBX 3 3 6 22
BITMAP
C0
E0
C0
ENDCHAR
STARTCHAR ring
ENCODING 730
SWIDTH 431 0
DWIDTH 17 0
BBX 7 8 5 26
BITMAP
38
7E
C6
C2
C2
C6
7C
38
ENDCHAR
STARTCHAR ogonek
ENCODING 731
SWIDTH 343 0
DWIDTH 14 0
BBX 5 8 5 -7
BITMAP
18
30
60
C0
80
80
F0
E0
ENDCHAR
STARTCHAR tilde
ENCODING 732
SWIDTH 404 0
DWIDTH 16 0
BBX 9 4 4 27
BITMAP
6100
F980
DF80
CF00
ENDCHAR
STARTCHAR hungarumlaut
ENCODING 733
SWIDTH 466 0
DWIDTH 19 0
BBX 13 9 4 26
BITMAP
0408
0E18
0C38
1870
38E0
31C0
6300
C600
8400
ENDCHAR
STARTCHAR gravecomb
ENCODING 768
SWIDTH 0 0
DWIDTH 0 0
BBX 8 4 -10 27
BITMAP
C0
F0
3C
07
ENDCHAR
STARTCHAR acutecomb
ENCODING 769
SWIDTH 0 0
DWIDTH 0 0
BBX 7 6 -10 26
BITMAP
06
0E
1E
38
60
C0
ENDCHAR
STARTCHAR uni0302
ENCODING 770
SWIDTH 0 0
DWIDTH 0 0
BBX 7 8 -10 27
BITMAP
18
38
38
6C
6C
C4
C6
44
ENDCHAR
STARTCHAR tildecomb
ENCODING 771
SWIDTH 0 0
DWIDTH 0 0
BBX 9 4 -12 27
BITMAP
6100
F980
DF80
CF00
ENDCHAR
STARTCHAR uni0304
ENCODING 772
SWIDTH 0 0
DWIDTH 0 0
BBX 12 2 -15 28
BITMAP
FFE0
7FF0
ENDCHAR
STARTCHAR uni0306
ENCODING 774
SWIDTH 0 0
DWIDTH 0 0
BBX 7 6 -10 27
BITMAP
42
C6
66
66
7C
3C
ENDCHAR
STARTCHAR uni0307
ENCODING 775
SWIDTH 0 0
DWIDTH 0 0
BBX 3 3 -7 22
BITMAP
C0
E0
C0
ENDCHAR
STARTCHAR uni0308
ENCODING 776
SWIDTH 0 0
DWIDTH 0 0
BBX 9 3 -12 27
BITMAP
E180
E380
E180
ENDCHAR
STARTCHAR hookabovecomb
ENCODING 777
SWIDTH 0 0
DWIDTH 0 0
BBX 8 7 -10 24
BITMAP
38
FE
C7
C3
1F
3C
30
ENDCHAR
STARTCHAR uni030A
ENCODING 778
SWIDTH 0 0
DWIDTH 0 0
BBX 7 8 -12 26
BITMAP
38
7C
C6
C2
82
C6
7C
78
ENDCHAR
STARTCHAR uni030B
ENCODING 779
SWIDTH 0 0
DWIDTH 0 0
BBX 14 9 -15 26
BITMAP
0408
061C
0C38
1C70
18E0
31C0
6380
4300
8400
ENDCHAR
STARTCHAR uni030C
ENCODING 780
SWIDTH 0 0
DWIDTH 0 0
BBX 6 8 -10 26
BITMAP
8C
CC
C8
68
78
78
30
10
ENDCHAR
STARTCHAR uni030F
ENCODING 783
SWIDTH 0 0
DWIDTH 0 0
BBX 11 8 -18 27
BITMAP
8000
C200
E300
7180
3980
18C0
0C60
0220
ENDCHAR
STARTCHAR uni0311
ENCODING 785
SWIDTH 0 0
DWIDTH 0 0
BBX 7 5 -11 27
BITMAP
18
7C
66
C6
C6
ENDCHAR
STARTCHAR uni0312
ENCODING 786
SWIDTH 0 0
DWIDTH 0 0
BBX 5 7 -7 21
BITMAP
08
18
30
60
60
C0
C0
ENDCHAR
STARTCHAR uni031B
ENCODING 795
SWIDTH 0 0
DWIDTH 0 0
BBX 5 6 -9 24
BITMAP
10
38
38
38
F0
E0
ENDCHAR
STARTCHAR dotbelowcomb
ENCODING 803
SWIDTH 0 0
DWIDTH 0 0
BBX 3 3 -7 -7
BITMAP
C0
E0
C0
ENDCHAR
STARTCHAR uni0324
ENCODING 804
SWIDTH 0 0
DWIDTH 0 0
BBX 9 3 -12 -6
BITMAP
E180
E380
E180
ENDCHAR
STARTCHAR uni0326
ENCODING 806
SWIDTH 0 0
DWIDTH 0 0
BBX 5 8 -10 -11
BITMAP
08
18
18
30
30
60
40
80
ENDCHAR
STARTCHAR uni0327
ENCODING 807
SWIDTH 0 0
DWIDTH 0 0
BBX 5 9 -11 -9
BITMAP
40
40
70
78
08
08
18
18
F0
ENDCHAR
STARTCHAR uni0328
ENCODING 808
SWIDTH 0 0
DWIDTH 0 0
BBX 5 8 -9 -7
BITMAP
18
30
60
C0
C0
C0
F0
60
ENDCHAR
STARTCHAR uni032E
ENCODING 814
SWIDTH 0 0
DWIDTH 0 0
BBX 7 6 -10 -7
BITMAP
42
C6
66
66
7C
3C
ENDCHAR
STARTCHAR uni0331
ENCODING 817
SWIDTH 0 0
DWIDTH 0 0
BBX 12 2 -15 -6
BITMAP
FFE0
7FF0
ENDCHAR
STARTCHAR uni0335
ENCODING 821
SWIDTH 0 0
DWIDTH 0 0
BBX 9 3 -12 13
BITMAP
3F00
FF80
FE00
ENDCHAR
STARTCHAR uni0358
ENCODING 856
SWIDTH 0 0
DWIDTH 0 0
BBX 2 2 -8 23
BITMAP
40
C0
ENDCHAR
STARTCHAR uni0394
ENCODING 916
SWIDTH 360 0
DWIDTH 14 0
BBX 11 31 2 0
BITMAP
0200
0300
0300
0780
0780
0780
0780
0D80
0D80
0D80
0C80
0C80
1CC0
18C0
18C0
18C0
18C0
18C0
30C0
30C0
30C0
30C0
20C0
60C0
6040
6040
6040
C040
C040
FFE0
FFC0
ENDCHAR
STARTCHAR Sigma
ENCODING 931
SWIDTH 382 0
DWIDTH 15 0
BBX 13 31 1 -1
BITMAP
7FF8
7FF8
7000
3000
1800
1800
0C00
0C00
0600
0300
0300
0180
01C0
00E0
0060
0060
00E0
00C0
0180
0300
0700
0600
0C00
1800
3800
3000
6000
E000
F800
7FE0
01F0
ENDCHAR
STARTCHAR uni03A9
ENCODING 937
SWIDTH 400 0
DWIDTH 16 0
BBX 14 30 1 0
BITMAP
0700
0F80
18C0
18E0
3060
3060
3020
3030
3030
3030
3030
3030
3030
3030
3030
3030
3030
3030
3030
3030
3030
1030
1860
1860
1860
1860
0C40
0CC0
FCF8
FEFC
ENDCHAR
STARTCHAR uni03BC
ENCODING 956
SWIDTH 359 0
DWIDTH 14 0
BBX 9 36 3 -8
BITMAP
0080
8180
8180
C180
C180
C180
C180
C180
C180
C180
C180
C180
C180
C180
C180
C180
C180
C180
C180
C180
C180
4180
4100
4100
4300
6300
6300
7E00
5C00
4000
4000
4000
4000
4000
4000
4000
ENDCHAR
STARTCHAR pi
ENCODING 960
SWIDTH 347 0
DWIDTH 14 0
BBX 14 27 0 -1
BITMAP
7FFC
9830
1830
1830
1830
1830
1830
1830
1830
1830
1830
1830
1830
1830
1830
1830
1830
1830
1830
1830
1830
1830
1830
1830
1830
1818
0018
ENDCHAR
STARTCHAR uni0400
ENCODING 1024
SWIDTH 278 0
DWIDTH 11 0
BBX 9 35 0 0
BITMAP
C000
F000
3C00
0700
1E00
3F00
3E00
3800
3800
1800
1800
1800
1800
1800
1800
1800
1800
1800
1F00
1F00
1800
1800
1800
1800
1800
1800
1800
1800
1800
1800
1800
1800
1800
1F80
1F80
ENDCHAR
STARTCHAR uni0401
ENCODING 1025
SWIDTH 278 0
DWIDTH 11 0
BBX 9 35 2 0
BITMAP
C180
E380
C180
0000
7800
FC00
F800
E000
E000
6000
6000
6000
6000
6000
6000
6000
6000
6000
7C00
7C00
6000
6000
6000
6000
6000
6000
6000
6000
6000
6000
6000
6000
6000
7E00
7E00
ENDCHAR
STARTCHAR uni0402
ENCODING 1026
SWIDTH 310 0
DWIDTH 12 0
BBX 11 35 0 -4
BITMAP
FF00
FF00
1800
1800
1800
1800
1800
1800
1800
1800
1800
1800
1800
1800
1800
1880
1BC0
1E60
1C60
1860
1860
0860
0860
1860
1860
1860
1860
1860
1860
1860
0060
00C0
01C0
0780
0600
ENDCHAR
STARTCHAR uni0403
ENCODING 1027
SWIDTH 251 0
DWIDTH 10 0
BBX 9 37 2 0
BITMAP
0180
0380
0700
1E00
3800
2000
7C00
FC00
C000
C000
C000
C000
C000
E000
E000
6000
6000
6000
6000
6000
6000
6000
6000
6000
6000
6000
6000
6000
6000
6000
6000
6000
6000
6000
6000
6000
6000
ENDCHAR
STARTCHAR uni0404
ENCODING 1028
SWIDTH 337 0
DWIDTH 13 0
BBX 11 32 2 -1
BITMAP
1E00
3F80
7880
7000
6000
E000
C000
C000
C000
C000
C000
C000
C000
C000
C000
FF00
FF00
C000
C000
C000
C000
C000
C000
C000
E000
6000
6000
6000
3000
3840
1FE0
07C0
ENDCHAR
STARTCHAR uni0405
ENCODING 1029
SWIDTH 307 0
DWIDTH 12 0
BBX 8 32 2 -1
BITMAP
1C
3E
70
E0
C0
C0
C0
C0
E0
60
60
70
30
38
18
1C
0C
0E
06
06
07
07
03
03
03
03
07
07
06
0E
FC
F8
ENDCHAR
STARTCHAR uni0406
ENCODING 1030
SWIDTH 257 0
DWIDTH 10 0
BBX 8 31 1 0
BITMAP
3E
FC
30
30
30
30
30
30
30
30
30
30
38
38
18
18
18
18
18
18
18
18
18
18
18
18
18
18
18
FF
7E
ENDCHAR
STARTCHAR uni0407
ENCODING 1031
SWIDTH 257 0
DWIDTH 10 0
BBX 9 35 0 0
BITMAP
E180
E180
E180
0000
1F00
7E00
1800
1800
1800
1800
1800
1800
1800
1800
1800
1800
1C00
1C00
0C00
0C00
0C00
0C00
0C00
0C00
0C00
0C00
0C00
0C00
0C00
0C00
0C00
0C00
0C00
7F80
3F00
ENDCHAR
STARTCHAR uni0408
ENCODING 1032
SWIDTH 268 0
DWIDTH 11 0
BBX 7 34 1 -3
BITMAP
FE
FC
18
18
18
18
18
18
18
18
18
18
18
18
18
18
18
18
0C
0C
0C
0C
0C
0C
0C
0C
0C
1C
1C
18
38
38
F0
60
ENDCHAR
STARTCHAR uni0409
ENCODING 1033
SWIDTH 460 0
DWIDTH 18 0
BBX 16 32 1 0
BITMAP
0180
1FC0
18C0
18C0
18C0
18C0
18C0
18C0
18C0
18C0
18C0
18C0
18C0
18C0
18C0
18F0
18F8
18CC
18CC
38C6
38C6
30C3
30C3
30C3
30C3
30C3
30C3
30C2
60C6
60CC
E0F8
C0F0
ENDCHAR
STARTCHAR uni040A
ENCODING 1034
SWIDTH 433 0
DWIDTH 17 0
BBX 14 31 2 0
BITMAP
C300
C300
C300
C300
C300
C300
C300
C300
C300
C300
C300
C200
C200
C3C0
FE20
FE10
C218
C208
C20C
C20C
C20C
C20C
E20C
E20C
E21C
E218
E218
E338
E370
E3E0
6380
ENDCHAR
STARTCHAR uni040B
ENCODING 1035
SWIDTH 344 0
DWIDTH 14 0
BBX 12 30 0 -1
BITMAP
FFC0
6DC0
0C00
0C00
0C00
0C00
0C00
0C00
0C00
0C00
0C00
0C00
0C00
0C00
0DE0
0FE0
0E30
0E30
0C30
0C30
0C30
0C30
0C30
0C30
0C30
0C30
0C30
0C30
0C30
0C00
ENDCHAR
STARTCHAR uni040C
ENCODING 1036
SWIDTH 323 0
DWIDTH 13 0
BBX 10 38 2 -1
BITMAP
00C0
01C0
03C0
0700
0C00
1000
4180
C3C0
C300
C600
C600
C600
C400
C400
6C00
6C00
6800
6800
6800
7800
7800
7000
7800
7C00
6C00
6400
6600
6600
6600
6600
6600
6600
6600
6600
6600
6780
6380
0380
ENDCHAR
STARTCHAR uni040D
ENCODING 1037
SWIDTH 417 0
DWIDTH 17 0
BBX 12 36 2 0
BITMAP
C000
F000
3C00
0600
0020
C070
C070
E070
E0F0
C0F0
C0F0
C0F0
C1F0
C1F0
C160
C160
C360
C360
C260
C260
C660
C660
C460
C460
CC60
CC60
C860
5860
5860
7870
7070
7070
F070
F070
E070
6060
ENDCHAR
STARTCHAR uni040E
ENCODING 1038
SWIDTH 264 0
DWIDTH 11 0
BBX 8 38 1 0
BITMAP
04
06
EE
FC
78
00
00
C3
C3
C3
C3
C3
C7
C7
E7
E7
67
66
66
66
66
66
76
36
3E
3C
3C
3C
1C
1C
1C
1C
18
18
38
38
30
30
ENDCHAR
STARTCHAR uni040F
ENCODING 1039
SWIDTH 334 0
DWIDTH 13 0
BBX 9 37 2 -6
BITMAP
C700
C700
C700
C700
C300
C300
C300
C300
C300
C300
C300
C300
C300
C300
C300
C300
C300
C300
C300
C300
C300
C300
C300
C300
C380
C380
C380
C380
C380
FF80
FF80
1800
1800
1800
1800
0800
0800
ENDCHAR
STARTCHAR uni0410
ENCODING 1040
SWIDTH 350 0
DWIDTH 14 0
BBX 11 31 1 0
BITMAP
0300
0300
0700
0700
0780
0F80
0D80
0D80
0D80
0D80
1980
1980
1980
19C0
19C0
39C0
30C0
30C0
30C0
30C0
30C0
70C0
7FC0
7FC0
60C0
60C0
60E0
C0E0
C0E0
C0E0
40C0
ENDCHAR
STARTCHAR uni0411
ENCODING 1041
SWIDTH 282 0
DWIDTH 11 0
BBX 8 31 2 0
BITMAP
FE
FC
C0
C0
C0
C0
C0
C0
C0
C0
C0
C0
C0
F0
FC
CC
C6
C6
C3
C3
C3
C3
C3
C3
C3
C3
C7
C6
DC
FC
F0
ENDCHAR
STARTCHAR uni0412
ENCODING 1042
SWIDTH 314 0
DWIDTH 13 0
BBX 9 31 2 0
BITMAP
7000
FC00
E600
E600
E300
E300
E300
E300
E700
E600
E600
EC00
F800
F800
7C00
6600
6300
6300
6100
6180
6180
6180
6180
6180
6180
E180
E300
E300
EE00
FC00
7800
ENDCHAR
STARTCHAR uni0413
ENCODING 1043
SWIDTH 251 0
DWIDTH 10 0
BBX 6 31 2 0
BITMAP
7C
FC
C0
C0
C0
C0
C0
E0
E0
60
60
60
60
60
60
60
60
60
60
60
60
60
60
60
60
60
60
60
60
60
60
ENDCHAR
STARTCHAR uni0414
ENCODING 1044
SWIDTH 383 0
DWIDTH 15 0
BBX 17 36 -1 -5
BITMAP
03F000
07F800
063800
061800
061800
061800
061800
061800
061800
061800
061800
061800
061800
061800
061800
061800
061800
061800
061800
061800
061800
061800
061800
061800
061800
0C1800
0C1800
0C1800
1C1800
7FFF00
FF8380
E00300
E00300
600300
400300
000300
ENDCHAR
STARTCHAR uni0415
ENCODING 1045
SWIDTH 278 0
DWIDTH 11 0
BBX 7 31 2 0
BITMAP
78
FC
F8
E0
E0
60
60
60
60
60
60
60
60
60
7C
7C
60
60
60
60
60
60
60
60
60
60
60
60
60
7E
7E
ENDCHAR
STARTCHAR uni0416
ENCODING 1046
SWIDTH 547 0
DWIDTH 22 0
BBX 20 32 1 -1
BITMAP
6060E0
F061F0
F861F0
186380
1C6300
1C6300
0C6300
0C6600
0C6600
0C6600
0C6600
0C6600
0C6600
0E6C00
0E6C00
066C00
07FC00
03F800
036C00
066C00
066600
066600
0E6600
0C6600
0C6600
0C6600
0C6600
1C6300
1C6300
7863E0
F863E0
7001C0
ENDCHAR
STARTCHAR uni0417
ENCODING 1047
SWIDTH 345 0
DWIDTH 14 0
BBX 11 31 1 0
BITMAP
1F00
3F80
71C0
E0E0
E060
C060
0060
0060
0060
0060
0060
00C0
01C0
0780
0F00
07C0
01C0
00E0
0060
0060
0060
0060
0060
0060
0060
3060
3060
38E0
18C0
1FC0
0F00
ENDCHAR
STARTCHAR uni0418
ENCODING 1048
SWIDTH 417 0
DWIDTH 17 0
BBX 12 32 2 0
BITMAP
0020
C070
C070
E070
E0F0
C0F0
C0F0
C0F0
C1F0
C1F0
C160
C160
C360
C360
C260
C260
C660
C660
C460
C460
CC60
CC60
C860
5860
5860
7870
7070
7070
F070
F070
E070
6060
ENDCHAR
STARTCHAR uni0419
ENCODING 1049
SWIDTH 417 0
DWIDTH 17 0
BBX 12 37 2 0
BITMAP
1100
3B00
3F00
1E00
0000
0020
C070
C070
E070
E0F0
C0F0
C0F0
C0F0
C1F0
C1F0
C160
C160
C360
C360
C260
C260
C660
C660
C460
C460
CC60
CC60
C860
5860
5860
7870
7070
7070
F070
F070
E070
6060
ENDCHAR
STARTCHAR uni041A
ENCODING 1050
SWIDTH 323 0
DWIDTH 13 0
BBX 10 32 2 -1
BITMAP
4180
C3C0
C300
C600
C600
C600
C400
C400
6C00
6C00
6800
6800
6800
7800
7800
7000
7800
7C00
6C00
6400
6600
6600
6600
6600
6600
6600
6600
6600
6600
6780
6380
0380
ENDCHAR
STARTCHAR uni041B
ENCODING 1051
SWIDTH 382 0
DWIDTH 15 0
BBX 12 32 1 -1
BITMAP
0FC0
1FE0
18E0
18E0
18C0
18C0
18C0
18C0
18E0
1860
1860
1860
1860
1860
1860
1860
1860
1860
1860
1860
1860
1860
1860
1860
1860
1860
3860
3060
3070
7070
E060
E000
ENDCHAR
STARTCHAR uni041C
ENCODING 1052
SWIDTH 453 0
DWIDTH 18 0
BBX 13 32 2 -1
BITMAP
0018
C038
E038
E038
E038
F038
F038
F038
F078
D878
D878
D878
D878
CC78
CCD8
CCD8
CCD8
C4D8
C598
C798
C798
C798
C718
C718
C718
C718
C218
C018
C018
E018
4018
0018
ENDCHAR
STARTCHAR uni041D
ENCODING 1053
SWIDTH 330 0
DWIDTH 13 0
BBX 9 31 2 0
BITMAP
C200
C300
C300
C300
C300
C300
C300
C300
C300
C300
C300
C300
C300
C300
FF00
C300
C300
C300
C300
C300
E300
E300
E300
6300
6300
6300
6380
6380
6380
6380
2100
ENDCHAR
STARTCHAR uni041E
ENCODING 1054
SWIDTH 355 0
DWIDTH 14 0
BBX 10 32 2 -1
BITMAP
3C00
7E00
6300
E300
C180
C180
C180
C080
C0C0
C0C0
C0C0
C0C0
C0C0
C0C0
C0C0
C0C0
C0C0
C0C0
C0C0
C0C0
C0C0
C0C0
C0C0
C0C0
60C0
60C0
6080
6180
3180
3180
1F00
0E00
ENDCHAR
STARTCHAR uni041F
ENCODING 1055
SWIDTH 348 0
DWIDTH 14 0
BBX 9 31 2 0
BITMAP
FF80
FF80
C180
C180
C180
C180
C180
C180
C180
C180
C180
C180
C180
C180
C180
C180
C180
C180
C180
C180
C180
E180
E180
E180
C180
C180
C180
E180
E180
E180
C180
ENDCHAR
STARTCHAR uni0420
ENCODING 1056
SWIDTH 288 0
DWIDTH 12 0
BBX 8 31 2 0
BITMAP
F0
F8
FC
CE
C6
46
43
43
43
43
66
66
66
6C
7C
78
70
60
60
60
60
60
60
60
60
60
60
60
60
60
60
ENDCHAR
STARTCHAR uni0421
ENCODING 1057
SWIDTH 337 0
DWIDTH 13 0
BBX 11 31 2 0
BITMAP
0F00
3F80
7180
E000
E000
C000
C000
C000
C000
C000
C000
C000
C000
C000
C000
C000
C000
C000
C000
C000
C000
C000
C000
C000
E000
6000
6000
7040
38E0
1FC0
0F80
ENDCHAR
STARTCHAR uni0422
ENCODING 1058
SWIDTH 262 0
DWIDTH 10 0
BBX 9 31 0 0
BITMAP
7F80
FF00
0C00
0C00
0C00
0C00
0C00
0C00
0C00
0C00
0C00
0C00
0C00
0C00
0C00
0C00
0C00
0C00
0C00
0C00
0C00
0C00
0C00
0C00
0C00
0C00
0C00
0E00
0E00
0E00
0400
ENDCHAR
STARTCHAR uni0423
ENCODING 1059
SWIDTH 264 0
DWIDTH 11 0
BBX 8 31 1 0
BITMAP
C3
C3
C3
C3
C3
C7
C7
E7
E7
67
66
66
66
66
66
76
36
3E
3C
3C
3C
1C
1C
1C
1C
18
18
38
38
30
30
ENDCHAR
STARTCHAR uni0424
ENCODING 1060
SWIDTH 391 0
DWIDTH 16 0
BBX 12 33 2 -1
BITMAP
0400
0C00
0C00
3F00
7FC0
CCC0
CC60
CC60
CC60
CC60
C420
C420
C430
C430
C420
C420
C420
C620
C620
C620
C620
C620
C620
C660
C660
C660
C660
66C0
7FC0
3F80
0600
0600
0600
ENDCHAR
STARTCHAR uni0425
ENCODING 1061
SWIDTH 304 0
DWIDTH 12 0
BBX 9 31 1 0
BITMAP
0180
6180
6180
3180
3300
3300
3300
3300
1A00
1E00
1E00
1E00
0C00
0C00
0C00
0C00
0C00
1C00
1E00
1E00
1600
3600
3200
3300
2300
6300
6300
6100
6180
4180
C000
ENDCHAR
STARTCHAR uni0426
ENCODING 1062
SWIDTH 329 0
DWIDTH 13 0
BBX 11 37 2 -6
BITMAP
0300
C300
C300
C300
C300
C300
C300
C300
C300
C300
C300
C300
C300
C300
C300
C300
C300
C300
C300
C300
C300
C300
4300
4300
4300
4300
6300
6300
6300
63C0
7FE0
0060
0060
0060
0060
0060
0060
ENDCHAR
STARTCHAR uni0427
ENCODING 1063
SWIDTH 325 0
DWIDTH 13 0
BBX 8 31 2 0
BITMAP
C3
C3
C3
C3
C3
C3
C3
C3
C3
C7
C7
C7
C7
C7
CF
CB
DB
F3
23
03
03
03
03
03
03
03
03
03
03
03
03
ENDCHAR
STARTCHAR uni0428
ENCODING 1064
SWIDTH 476 0
DWIDTH 19 0
BBX 14 31 2 0
BITMAP
C30C
C38C
C38C
C38C
C38C
C30C
C10C
C10C
C10C
C10C
C10C
C10C
C10C
C10C
410C
410C
610C
610C
610C
610C
610C
610C
618C
618C
618C
618C
618C
618C
618C
7FFC
3FFC
ENDCHAR
STARTCHAR uni0429
ENCODING 1065
SWIDTH 498 0
DWIDTH 20 0
BBX 18 38 2 -7
BITMAP
C30000
E30C00
E30C00
E30C00
E30C00
E30C00
E30C00
E30C00
E30C00
E30C00
E30C00
E30C00
E30C00
E30C00
E30C00
E10C00
610C00
610C00
610C00
610C00
610C00
610C00
618C00
618C00
618C00
618C00
618E00
618E00
618F80
7FFFC0
3FE0C0
0000C0
0000C0
0000C0
0000C0
0000C0
0000C0
0000C0
ENDCHAR
STARTCHAR uni042A
ENCODING 1066
SWIDTH 364 0
DWIDTH 15 0
BBX 13 31 0 0
BITMAP
FE00
7E00
0600
0600
0600
0600
0600
0600
0600
0600
0400
0400
0400
07C0
07E0
04F0
0470
0438
0438
0618
0618
0618
0618
0618
0618
0638
0638
0670
06E0
0FC0
0700
ENDCHAR
STARTCHAR uni042B
ENCODING 1067
SWIDTH 430 0
DWIDTH 17 0
BBX 13 31 2 0
BITMAP
0030
E030
C030
C030
C030
C030
C030
C030
C030
C030
C030
C030
C030
E030
F830
DC30
CE30
C630
C730
C330
C330
C330
C330
C330
C330
C330
C630
C630
CC30
F838
F010
ENDCHAR
STARTCHAR uni042C
ENCODING 1068
SWIDTH 302 0
DWIDTH 12 0
BBX 9 31 2 0
BITMAP
C000
C000
C000
C000
C000
C000
C000
C000
C000
C000
C000
C000
C000
E000
F800
CC00
C600
C300
C300
C100
C180
C180
C180
C180
C380
C300
C300
C700
CE00
FC00
7800
ENDCHAR
STARTCHAR uni042D
ENCODING 1069
SWIDTH 351 0
DWIDTH 14 0
BBX 11 31 1 0
BITMAP
1E00
7F00
4380
0380
0180
01C0
01C0
00C0
00C0
00C0
00C0
00E0
00E0
00E0
0FE0
0FE0
0060
0060
0060
0060
0060
0060
0060
0060
00C0
00C0
00C0
0180
C380
FF00
7C00
ENDCHAR
STARTCHAR uni042E
ENCODING 1070
SWIDTH 489 0
DWIDTH 20 0
BBX 15 32 2 -1
BITMAP
C070
C0D8
C18C
C18C
C104
C306
C306
C306
C306
C306
C306
C306
C206
C206
C202
CE02
FE02
E302
C306
C306
C306
C306
C306
C306
C304
C30C
C30C
C18C
C198
C198
C0F0
00E0
ENDCHAR
STARTCHAR uni042F
ENCODING 1071
SWIDTH 336 0
DWIDTH 13 0
BBX 9 31 2 0
BITMAP
0700
3F80
3D80
7180
6180
E180
C180
C180
C180
C180
C180
C180
6180
7180
3D80
1F80
1D80
1980
3980
3180
3180
3180
3180
7180
7180
7180
7180
6180
6180
E180
C180
ENDCHAR
STARTCHAR uni0430
ENCODING 1072
SWIDTH 299 0
DWIDTH 12 0
BBX 11 27 0 0
BITMAP
0700
0700
0700
0700
0700
0500
0D80
0D80
0D80
0D80
0980
0980
1980
1980
19C0
19C0
18C0
30C0
30C0
3EC0
37C0
30C0
70C0
60E0
60E0
E060
6060
ENDCHAR
STARTCHAR uni0431
ENCODING 1073
SWIDTH 271 0
DWIDTH 11 0
BBX 8 27 2 0
BITMAP
7F
FE
60
60
60
60
60
60
60
60
60
60
78
7C
6C
66
66
66
66
66
66
66
66
6E
7C
78
70
ENDCHAR
STARTCHAR uni0432
ENCODING 1074
SWIDTH 285 0
DWIDTH 11 0
BBX 7 28 2 -1
BITMAP
70
7C
6C
66
66
66
66
66
66
66
66
6E
7C
7C
7C
6E
66
66
66
66
66
66
E6
E6
E6
EC
F8
70
ENDCHAR
STARTCHAR uni0433
ENCODING 1075
SWIDTH 236 0
DWIDTH 9 0
BBX 7 27 2 0
BITMAP
7C
FE
FE
E0
E0
E0
E0
E0
60
60
60
60
60
60
60
60
60
60
60
60
60
60
60
60
60
60
60
ENDCHAR
STARTCHAR uni0434
ENCODING 1076
SWIDTH 464 0
DWIDTH 19 0
BBX 19 32 0 -5
BITMAP
01FC00
03FE00
030C00
030C00
030C00
030C00
030C00
030C00
030C00
030C00
030400
030400
030400
030400
030400
030400
030400
030400
060C00
060C00
060C00
060C00
0E0C00
0C0C00
1C0E00
1C1FC0
FFFFE0
FF80E0
C000C0
C000C0
C000C0
4000C0
ENDCHAR
STARTCHAR uni0435
ENCODING 1077
SWIDTH 284 0
DWIDTH 11 0
BBX 6 28 3 -1
BITMAP
F0
FC
FC
C0
C0
C0
C0
C0
C0
C0
C0
F8
F8
C0
C0
C0
C0
C0
C0
C0
C0
C0
C0
C0
C0
C0
FC
FC
ENDCHAR
STARTCHAR uni0436
ENCODING 1078
SWIDTH 553 0
DWIDTH 22 0
BBX 20 29 1 -1
BITMAP
004000
1C60C0
3E61E0
3663E0
666360
666670
066670
064600
064600
064600
064600
024600
034400
034C00
01EC00
03FC00
064E00
064600
0E4600
0C4600
0C4600
0C4600
0C4630
DC4630
D84630
D86370
F863E0
F061C0
700000
ENDCHAR
STARTCHAR uni0437
ENCODING 1079
SWIDTH 286 0
DWIDTH 11 0
BBX 8 28 2 -1
BITMAP
78
FC
CE
C6
06
03
03
03
03
06
06
0E
3C
3C
0E
06
06
06
03
03
03
03
03
06
C6
C6
FC
78
ENDCHAR
STARTCHAR uni0438
ENCODING 1080
SWIDTH 439 0
DWIDTH 18 0
BBX 13 27 2 0
BITMAP
6038
E038
E038
E078
E078
E078
E0D8
E0D8
6098
6198
6198
6118
6318
6318
6218
6618
6618
6418
6C18
6C18
7818
7818
7818
7018
7018
6018
6018
ENDCHAR
STARTCHAR uni0439
ENCODING 1081
SWIDTH 439 0
DWIDTH 18 0
BBX 13 34 2 0
BITMAP
0080
00C0
1DC0
1F80
0F00
0000
0000
6038
E038
E038
E078
E078
E078
E0D8
E0D8
6098
6198
6198
6118
6318
6318
6218
6618
6618
6418
6C18
6C18
7818
7818
7818
7018
7018
6018
6018
ENDCHAR
STARTCHAR uni043A
ENCODING 1082
SWIDTH 347 0
DWIDTH 14 0
BBX 11 27 2 0
BITMAP
60C0
E1E0
E1C0
E300
E300
6600
6600
6600
6C00
6C00
6800
7800
7000
7800
7C00
6C00
6400
6600
6600
6600
6600
6600
6700
6300
6380
E3C0
41C0
ENDCHAR
STARTCHAR uni043B
ENCODING 1083
SWIDTH 392 0
DWIDTH 16 0
BBX 12 28 1 -1
BITMAP
0FE0
1FE0
0C60
0C60
0C60
0C60
0C60
0C60
0C60
0C60
0C60
0C60
0C20
0C20
0C20
0C30
0C30
0C30
0C30
0C30
0C30
1C30
1C30
1830
3830
7030
F030
E000
ENDCHAR
STARTCHAR uni043C
ENCODING 1084
SWIDTH 561 0
DWIDTH 22 0
BBX 18 29 2 -2
BITMAP
200180
700380
300380
380380
780780
780780
6C0780
6C0F80
6C0D80
660D80
660D80
661D80
671980
631980
631980
633980
63B180
61B180
61B1C0
61F1C0
61E1C0
E1E180
E1E180
E0C180
E0C180
E001C0
E001C0
6001C0
0001C0
ENDCHAR
STARTCHAR uni043D
ENCODING 1085
SWIDTH 331 0
DWIDTH 13 0
BBX 9 27 2 0
BITMAP
4300
E300
E300
E300
E300
E300
E300
6300
6300
6300
6300
6300
E300
FF00
6F00
E380
E380
E380
E380
E380
E380
E380
E380
E380
6380
6380
6180
ENDCHAR
STARTCHAR uni043E
ENCODING 1086
SWIDTH 360 0
DWIDTH 14 0
BBX 10 28 2 -1
BITMAP
3C00
7E00
6300
6180
C080
C0C0
C0C0
C0C0
C0C0
C0C0
C0C0
C0C0
C0C0
C0C0
C0C0
C0C0
C0C0
C0C0
C0C0
C0C0
E0C0
E0C0
60C0
61C0
6180
3380
3F00
1E00
ENDCHAR
STARTCHAR uni043F
ENCODING 1087
SWIDTH 341 0
DWIDTH 14 0
BBX 9 27 2 0
BITMAP
7F80
FF80
E380
E380
E180
6180
6180
6180
6180
6180
6180
6180
6180
6180
6180
6180
6180
6180
6180
6180
6180
6180
6180
6180
6180
6180
6180
ENDCHAR
STARTCHAR uni0440
ENCODING 1088
SWIDTH 281 0
DWIDTH 11 0
BBX 7 28 3 -1
BITMAP
F8
FC
CC
CC
C6
C6
C6
CE
CE
CE
CC
DC
F8
F0
C0
C0
C0
C0
C0
C0
C0
C0
C0
C0
C0
C0
C0
C0
ENDCHAR
STARTCHAR uni0441
ENCODING 1089
SWIDTH 279 0
DWIDTH 11 0
BBX 8 28 2 -1
BITMAP
0F
3E
30
60
60
E0
E0
E0
C0
C0
C0
C0
C0
C0
C0
C0
C0
C0
C0
C0
C0
C0
C0
E0
60
70
3F
1F
ENDCHAR
STARTCHAR uni0442
ENCODING 1090
SWIDTH 256 0
DWIDTH 10 0
BBX 9 27 0 0
BITMAP
FF80
3F00
1800
0800
0800
0C00
0C00
0C00
0C00
0C00
0C00
0C00
0C00
0C00
0C00
0C00
0C00
0C00
0C00
0E00
0E00
0600
0600
0600
0600
0600
0400
ENDCHAR
STARTCHAR uni0443
ENCODING 1091
SWIDTH 269 0
DWIDTH 11 0
BBX 8 27 1 0
BITMAP
C3
C3
C3
C3
C3
C3
C3
C3
E3
63
63
63
63
63
37
36
1E
1E
0E
06
0E
0C
0C
0C
18
18
30
ENDCHAR
STARTCHAR uni0444
ENCODING 1092
SWIDTH 403 0
DWIDTH 16 0
BBX 13 32 2 -2
BITMAP
0200
0600
0600
0600
3FC0
7EE0
6660
E630
C630
C630
C630
C630
C630
C630
C630
C630
C630
C638
C638
C630
C630
C630
C630
C670
E660
6660
36C0
3F80
0E00
0600
0600
0600
ENDCHAR
STARTCHAR uni0445
ENCODING 1093
SWIDTH 243 0
DWIDTH 10 0
BBX 8 27 1 0
BITMAP
C6
C6
E4
64
6C
6C
6C
3C
3C
38
38
18
18
18
18
18
18
38
3C
3C
3C
6E
66
66
66
67
63
ENDCHAR
STARTCHAR uni0446
ENCODING 1094
SWIDTH 356 0
DWIDTH 14 0
BBX 12 33 2 -5
BITMAP
0100
4180
E180
E180
E180
6180
6180
6180
6180
6180
6180
6100
6100
6100
6180
6180
6180
6180
6180
6180
6180
6180
6180
6180
6180
6180
7FE0
7FF0
0030
0030
0030
0030
0030
ENDCHAR
STARTCHAR uni0447
ENCODING 1095
SWIDTH 321 0
DWIDTH 13 0
BBX 8 27 2 0
BITMAP
C3
C3
C3
C3
C3
C3
C3
C3
C3
C7
C7
C7
C7
CE
DA
7A
33
03
03
03
03
03
03
03
03
03
03
ENDCHAR
STARTCHAR uni0448
ENCODING 1096
SWIDTH 470 0
DWIDTH 19 0
BBX 14 27 2 0
BITMAP
C30C
E30C
E30C
630C
630C
630C
630C
630C
630C
630C
630C
630C
630C
630C
630C
630C
630C
630C
630C
630C
630C
630C
630C
630C
630C
7FFC
3FFC
ENDCHAR
STARTCHAR uni0449
ENCODING 1097
SWIDTH 508 0
DWIDTH 20 0
BBX 18 34 2 -7
BITMAP
430C00
E38C00
E38C00
E38C00
E30C00
E30C00
E30C00
E30C00
E30C00
630C00
630C00
630C00
630C00
630C00
630C00
630C00
630C00
630C00
630C00
630C00
630C00
630C00
630C00
638C00
638DC0
7FFFC0
3FFCC0
0000C0
0000C0
0000C0
0000C0
0000C0
0000C0
000080
ENDCHAR
STARTCHAR uni044A
ENCODING 1098
SWIDTH 299 0
DWIDTH 12 0
BBX 11 27 0 0
BITMAP
F800
7C00
0C00
0C00
0C00
0C00
0C00
0C00
0C00
0C00
0C00
0F00
0F80
08C0
08C0
08E0
08E0
0860
0860
0860
0860
0860
0860
18C0
18C0
1F80
0F00
ENDCHAR
STARTCHAR uni044B
ENCODING 1099
SWIDTH 412 0
DWIDTH 16 0
BBX 12 27 2 0
BITMAP
4030
E030
E030
E030
E030
E030
E030
6030
6030
4030
6030
7030
7C30
6630
4330
4330
4330
4330
4330
4330
4330
4330
C330
C730
EE30
FC30
F030
ENDCHAR
STARTCHAR uni044C
ENCODING 1100
SWIDTH 292 0
DWIDTH 12 0
BBX 8 27 2 0
BITMAP
40
E0
E0
E0
E0
E0
E0
C0
C0
C0
C0
C0
F8
FE
C6
C7
C3
C3
C3
E3
E3
E3
E3
E7
E7
FE
78
ENDCHAR
STARTCHAR uni044D
ENCODING 1101
SWIDTH 324 0
DWIDTH 13 0
BBX 10 28 1 -1
BITMAP
3C00
7F00
0700
0380
0380
0180
0180
0180
01C0
00C0
00C0
00C0
0FC0
1FC0
00C0
00C0
00C0
00C0
00C0
00C0
00C0
00C0
01C0
0180
0380
C700
FF00
7C00
ENDCHAR
STARTCHAR uni044E
ENCODING 1102
SWIDTH 506 0
DWIDTH 20 0
BBX 16 27 2 0
BITMAP
60E0
E0D8
E18C
E186
E186
E183
E183
E303
E303
E303
E303
E303
E303
FF03
FF03
E303
E303
E303
E303
E307
E307
E306
6186
618E
618C
60FC
6070
ENDCHAR
STARTCHAR uni044F
ENCODING 1103
SWIDTH 329 0
DWIDTH 13 0
BBX 10 27 1 0
BITMAP
0380
0F80
3F80
3180
7180
6180
6180
6180
6180
6180
6180
6180
3180
3F80
1D80
3180
3180
3180
7180
7180
3180
3180
7180
71C0
61C0
61C0
E0C0
ENDCHAR
STARTCHAR uni0450
ENCODING 1104
SWIDTH 284 0
DWIDTH 11 0
BBX 9 33 0 -1
BITMAP
C000
F000
3C00
0600
0000
1E00
1F80
1F80
1800
1800
1800
1800
1800
1800
1800
1800
1F00
1F00
1800
1800
1800
1800
1800
1800
1800
1800
1800
1800
1800
1800
1800
1F80
1F80
ENDCHAR
STARTCHAR uni0451
ENCODING 1105
SWIDTH 284 0
DWIDTH 11 0
BBX 9 33 1 -1
BITMAP
E180
E380
E180
0000
0000
3C00
3F00
3F00
3000
3000
3000
3000
3000
3000
3000
3000
3E00
3E00
3000
3000
3000
3000
3000
3000
3000
3000
3000
3000
3000
3000
3000
3F00
3F00
ENDCHAR
STARTCHAR uni0452
ENCODING 1106
SWIDTH 340 0
DWIDTH 14 0
BBX 12 30 0 -3
BITMAP
3F80
FFC0
4C00
0C00
0C00
0C00
0C00
0C00
0C00
0C00
0C00
0C00
0C00
0FC0
0FE0
0C30
0C30
0C30
0C30
0C30
0C30
0C30
0C30
0C30
0C30
0C30
0C70
00E0
01C0
0780
ENDCHAR
STARTCHAR uni0453
ENCODING 1107
SWIDTH 236 0
DWIDTH 9 0
BBX 8 34 2 0
BITMAP
03
07
0F
1C
30
40
00
7C
FE
FE
E0
E0
E0
E0
E0
60
60
60
60
60
60
60
60
60
60
60
60
60
60
60
60
60
60
60
ENDCHAR
STARTCHAR uni0454
ENCODING 1108
SWIDTH 280 0
DWIDTH 11 0
BBX 8 27 2 0
BITMAP
0F
3E
30
70
60
60
C0
C0
C0
C0
C0
C0
C0
FC
F8
C0
C0
C0
C0
C0
C0
C0
C0
C0
60
3E
1E
ENDCHAR
STARTCHAR uni0455
ENCODING 1109
SWIDTH 247 0
DWIDTH 10 0
BBX 7 28 1 -1
BITMAP
38
3C
60
60
60
C0
C0
40
60
60
70
30
38
18
1C
0C
0C
06
06
06
06
06
06
06
0C
0C
F8
70
ENDCHAR
STARTCHAR uni0456
ENCODING 1110
SWIDTH 226 0
DWIDTH 9 0
BBX 7 27 1 0
BITMAP
7C
FC
30
30
30
30
30
30
30
30
30
30
30
30
30
30
30
30
30
38
38
38
18
18
18
FE
FE
ENDCHAR
STARTCHAR uni0457
ENCODING 1111
SWIDTH 226 0
DWIDTH 9 0
BBX 10 33 -1 0
BITMAP
6180
E1C0
6180
0000
0000
0000
1F00
3F00
0C00
0C00
0C00
0C00
0C00
0C00
0C00
0C00
0C00
0C00
0C00
0C00
0C00
0C00
0C00
0C00
0C00
0E00
0E00
0E00
0600
0600
0600
3F80
3F80
ENDCHAR
STARTCHAR uni0458
ENCODING 1112
SWIDTH 254 0
DWIDTH 10 0
BBX 9 30 0 -3
BITMAP
7F00
7F80
0C00
0C00
0C00
0C00
0C00
0C00
0C00
0C00
0C00
0C00
0C00
0C00
0C00
0C00
0C00
0C00
0C00
0C00
0C00
0C00
0C00
0C00
0C00
0C00
0C00
1800
F800
E000
ENDCHAR
STARTCHAR uni0459
ENCODING 1113
SWIDTH 454 0
DWIDTH 18 0
BBX 16 28 1 -1
BITMAP
07E0
0FE0
0C60
0C60
0C60
0C60
0C60
0C60
0C60
0C60
0C60
0C70
0C7C
0C6E
0C66
1C66
1C63
1C63
1C63
1863
1863
1862
3866
3866
386E
707C
7070
E000
ENDCHAR
STARTCHAR uni045A
ENCODING 1114
SWIDTH 412 0
DWIDTH 16 0
BBX 13 27 2 0
BITMAP
C300
E300
E300
E300
E300
E300
E300
E300
E300
E300
6300
63C0
63F0
7E30
7E38
4218
4218
4218
4218
6218
6218
6218
6218
4230
C270
E3E0
4380
ENDCHAR
STARTCHAR uni045B
ENCODING 1115
SWIDTH 344 0
DWIDTH 14 0
BBX 12 27 0 0
BITMAP
FF80
FFC0
1C00
1C00
1C00
1C00
1800
1800
0800
0C00
0DE0
0FF0
0E30
0C30
0C30
0C30
0C30
0C30
0C30
0C30
0C30
0C30
0C30
0C70
0C70
0C70
0020
ENDCHAR
STARTCHAR uni045C
ENCODING 1116
SWIDTH 347 0
DWIDTH 14 0
BBX 11 34 2 0
BITMAP
0060
00E0
03C0
0780
0E00
0800
0000
60C0
E1E0
E1C0
E300
E300
6600
6600
6600
6C00
6C00
6800
7800
7000
7800
7C00
6C00
6400
6600
6600
6600
6600
6600
6700
6300
6380
E3C0
41C0
ENDCHAR
STARTCHAR uni045D
ENCODING 1117
SWIDTH 439 0
DWIDTH 18 0
BBX 13 32 2 0
BITMAP
6000
F800
3E00
0300
0000
6038
E038
E038
E078
E078
E078
E0D8
E0D8
6098
6198
6198
6118
6318
6318
6218
6618
6618
6418
6C18
6C18
7818
7818
7818
7018
7018
6018
6018
ENDCHAR
STARTCHAR uni045E
ENCODING 1118
SWIDTH 269 0
DWIDTH 11 0
BBX 9 34 1 0
BITMAP
0100
0380
3B00
3F00
1E00
0000
0000
C300
C300
C300
C300
C300
C300
C300
C300
E300
6300
6300
6300
6300
6300
3700
3600
1E00
1E00
0E00
0600
0E00
0C00
0C00
0C00
1800
1800
3000
ENDCHAR
STARTCHAR uni045F
ENCODING 1119
SWIDTH 344 0
DWIDTH 14 0
BBX 9 34 2 -6
BITMAP
0080
6180
E180
6180
6180
6180
6180
6180
6180
6180
6180
6180
6180
6180
6180
6180
6180
6180
6180
6180
6180
6180
6180
6180
6180
6180
7F80
7F80
0C00
0C00
0C00
0C00
0C00
0C00
ENDCHAR
STARTCHAR uni0490
ENCODING 1168
SWIDTH 242 0
DWIDTH 10 0
BBX 6 34 2 0
BITMAP
08
0C
1C
F8
F8
C0
C0
C0
C0
C0
C0
C0
C0
40
40
40
40
40
60
60
60
60
60
60
60
60
60
60
60
60
60
60
60
60
ENDCHAR
STARTCHAR uni0491
ENCODING 1169
SWIDTH 238 0
DWIDTH 10 0
BBX 7 31 2 0
BITMAP
06
06
06
06
FE
FC
E0
E0
C0
C0
C0
C0
C0
C0
C0
C0
C0
C0
C0
C0
C0
C0
C0
C0
C0
C0
C0
C0
C0
C0
C0
ENDCHAR
STARTCHAR uni05B0
ENCODING 1456
SWIDTH 0 0
DWIDTH 0 0
BBX 1 4 1 -6
BITMAP
80
80
80
80
ENDCHAR
STARTCHAR uni05B1
ENCODING 1457
SWIDTH 0 0
DWIDTH 0 0
BBX 6 4 1 -6
BITMAP
B4
B4
44
64
ENDCHAR
STARTCHAR uni05B2
ENCODING 1458
SWIDTH 0 0
DWIDTH 0 0
BBX 6 4 1 -6
BITMAP
F4
04
04
04
ENDCHAR
STARTCHAR uni05B3
ENCODING 1459
SWIDTH 0 0
DWIDTH 0 0
BBX 6 4 1 -5
BITMAP
14
F4
44
44
ENDCHAR
STARTCHAR uni05B4
ENCODING 1460
SWIDTH 0 0
DWIDTH 0 0
BBX 1 2 1 -3
BITMAP
80
80
ENDCHAR
STARTCHAR uni05B5
ENCODING 1461
SWIDTH 0 0
DWIDTH 0 0
BBX 4 2 1 -3
BITMAP
90
B0
ENDCHAR
STARTCHAR uni05B6
ENCODING 1462
SWIDTH 0 0
DWIDTH 0 0
BBX 4 4 1 -5
BITMAP
90
B0
40
60
ENDCHAR
STARTCHAR uni05B7
ENCODING 1463
SWIDTH 0 0
DWIDTH 0 0
BBX 4 1 1 -3
BITMAP
F0
ENDCHAR
STARTCHAR uni05B8
ENCODING 1464
SWIDTH 0 0
DWIDTH 0 0
BBX 4 3 1 -5
BITMAP
F0
40
40
ENDCHAR
STARTCHAR uni05B9
ENCODING 1465
SWIDTH 0 0
DWIDTH 0 0
BBX 1 2 1 16
BITMAP
80
80
ENDCHAR
STARTCHAR uni05BA
ENCODING 1466
SWIDTH 0 0
DWIDTH 0 0
BBX 1 2 1 16
BITMAP
80
80
ENDCHAR
STARTCHAR uni05BB
ENCODING 1467
SWIDTH 0 0
DWIDTH 0 0
BBX 4 5 1 -6
BITMAP
80
80
60
30
10
ENDCHAR
STARTCHAR uni05BC
ENCODING 1468
SWIDTH 0 0
DWIDTH 0 0
BBX 1 2 1 9
BITMAP
80
80
ENDCHAR
STARTCHAR uni05BE
ENCODING 1470
SWIDTH 293 0
DWIDTH 12 0
BBX 10 2 1 24
BITMAP
FF80
7FC0
ENDCHAR
STARTCHAR uni05BF
ENCODING 1471
SWIDTH 0 0
DWIDTH 0 0
BBX 4 1 1 15
BITMAP
F0
ENDCHAR
STARTCHAR uni05C1
ENCODING 1473
SWIDTH 0 0
DWIDTH 0 0
BBX 1 2 1 16
BITMAP
80
80
ENDCHAR
STARTCHAR uni05C2
ENCODING 1474
SWIDTH 0 0
DWIDTH 0 0
BBX 1 2 1 16
BITMAP
80
80
ENDCHAR
STARTCHAR uni05C7
ENCODING 1479
SWIDTH 0 0
DWIDTH 0 0
BBX 4 3 0 -5
BITMAP
F0
20
60
ENDCHAR
STARTCHAR uni05D0
ENCODING 1488
SWIDTH 343 0
DWIDTH 14 0
BBX 11 26 1 0
BITMAP
6060
70C0
30C0
30C0
30C0
18C0
18C0
18C0
1C80
1C80
1F80
1F80
1780
3780
3380
3380
3380
7180
6180
61C0
60C0
60C0
60E0
E060
E060
C060
ENDCHAR
STARTCHAR uni05D1
ENCODING 1489
SWIDTH 320 0
DWIDTH 13 0
BBX 10 26 1 0
BITMAP
F000
7C00
0E00
0600
0600
0200
0300
0300
0300
0300
0300
0300
0300
0300
0300
0300
0300
0300
0300
0300
0300
0300
0300
0300
7F00
7FC0
ENDCHAR
STARTCHAR uni05D2
ENCODING 1490
SWIDTH 268 0
DWIDTH 11 0
BBX 7 26 2 0
BITMAP
70
F8
18
0C
0C
0C
0C
0C
0C
0C
0C
0C
0C
0C
0C
0C
3C
7C
6E
C6
C6
C6
C6
C6
C6
C6
ENDCHAR
STARTCHAR uni05D3
ENCODING 1491
SWIDTH 293 0
DWIDTH 12 0
BBX 9 26 1 0
BITMAP
FF80
3F80
0600
0600
0600
0600
0600
0600
0200
0300
0300
0300
0300
0300
0300
0300
0300
0300
0300
0300
0300
0300
0300
0300
0380
0300
ENDCHAR
STARTCHAR uni05D4
ENCODING 1492
SWIDTH 301 0
DWIDTH 12 0
BBX 8 26 2 0
BITMAP
FE
FE
06
06
06
06
C6
C6
C6
C6
C6
C6
C6
C6
C6
C6
C6
C6
C6
C2
C3
C3
C3
C3
C7
C2
ENDCHAR
STARTCHAR uni05D5
ENCODING 1493
SWIDTH 257 0
DWIDTH 10 0
BBX 6 26 2 0
BITMAP
F8
78
18
18
18
1C
1C
1C
1C
0C
0C
0C
0C
0C
0C
0C
0C
0C
0C
0C
0C
0C
0C
0C
0C
0C
ENDCHAR
STARTCHAR uni05D6
ENCODING 1494
SWIDTH 273 0
DWIDTH 11 0
BBX 7 26 2 0
BITMAP
FE
7E
10
30
30
30
30
30
30
30
30
30
30
30
30
30
30
30
30
30
30
30
38
38
18
18
ENDCHAR
STARTCHAR uni05D7
ENCODING 1495
SWIDTH 305 0
DWIDTH 12 0
BBX 8 26 2 0
BITMAP
FE
FF
C3
C3
C3
C3
C3
C3
C3
C3
C3
C3
C3
C3
C3
C3
C3
C3
E3
E3
E3
E3
E3
E3
E3
43
ENDCHAR
STARTCHAR uni05D8
ENCODING 1496
SWIDTH 327 0
DWIDTH 13 0
BBX 9 26 2 0
BITMAP
CF00
CF80
C180
C180
C180
C180
C180
C180
C180
C180
C180
C180
C180
C180
C180
C180
C180
C180
E100
6300
6300
6300
6300
6300
3E00
1C00
ENDCHAR
STARTCHAR uni05D9
ENCODING 1497
SWIDTH 260 0
DWIDTH 10 0
BBX 6 18 2 8
BITMAP
F8
FC
1C
0C
0C
0C
0C
0C
0C
0C
0C
0C
0C
0C
0C
0C
0C
0C
ENDCHAR
STARTCHAR uni05DA
ENCODING 1498
SWIDTH 318 0
DWIDTH 13 0
BBX 9 32 2 -6
BITMAP
FF00
7F80
0300
0300
0300
0300
0300
0300
0300
0300
0300
0300
0300
0300
0300
0300
0300
0300
0300
0300
0380
0380
0380
0380
0380
0380
0380
0380
0380
0380
0380
0180
ENDCHAR
STARTCHAR uni05DB
ENCODING 1499
SWIDTH 340 0
DWIDTH 14 0
BBX 11 26 1 0
BITMAP
7C00
FE00
0300
0180
01C0
00C0
00C0
00E0
00E0
00E0
00E0
00E0
00E0
00E0
00E0
00E0
00E0
00E0
00E0
00C0
00C0
0180
0180
0300
FE00
7800
ENDCHAR
STARTCHAR uni05DC
ENCODING 1500
SWIDTH 311 0
DWIDTH 12 0
BBX 9 33 1 0
BITMAP
4000
6000
E000
6000
6000
6000
6000
7F80
3F80
0180
0180
0180
0180
0180
0180
0380
0300
0300
0700
0600
0E00
0E00
0C00
0C00
1C00
1800
1800
3800
3000
3000
3000
3E00
1E00
ENDCHAR
STARTCHAR uni05DD
ENCODING 1501
SWIDTH 347 0
DWIDTH 14 0
BBX 8 28 3 -2
BITMAP
FF
FF
C3
C3
C3
C3
C3
C3
C3
C3
C3
C3
C3
C3
C3
C3
C3
C3
C3
E3
E3
E3
E3
63
63
63
7F
7F
ENDCHAR
STARTCHAR uni05DE
ENCODING 1502
SWIDTH 335 0
DWIDTH 13 0
BBX 9 27 2 -1
BITMAP
7F00
7F80
0B80
1980
1980
1980
1980
1980
1180
3180
3180
3180
3180
3180
3180
2180
6180
6180
6180
6180
6180
E180
E180
C180
CF80
CF80
C000
ENDCHAR
STARTCHAR uni05DF
ENCODING 1503
SWIDTH 165 0
DWIDTH 7 0
BBX 2 32 2 -6
BITMAP
C0
C0
C0
C0
C0
C0
C0
C0
C0
C0
C0
C0
C0
C0
C0
C0
C0
C0
C0
C0
C0
C0
C0
C0
C0
C0
C0
C0
C0
C0
40
40
ENDCHAR
STARTCHAR uni05E0
ENCODING 1504
SWIDTH 254 0
DWIDTH 10 0
BBX 7 26 1 0
BITMAP
3C
7E
0E
0E
0E
0E
0E
0E
0E
06
06
06
06
06
06
06
06
06
06
06
06
06
0E
1C
78
F0
ENDCHAR
STARTCHAR uni05E1
ENCODING 1505
SWIDTH 327 0
DWIDTH 13 0
BBX 10 26 1 0
BITMAP
FF80
7FC0
30C0
30C0
30C0
30C0
30C0
30C0
30C0
30C0
30C0
30C0
30C0
30C0
30C0
30C0
30C0
30C0
30C0
3080
3080
3080
1180
1980
1F80
0700
ENDCHAR
STARTCHAR uni05E2
ENCODING 1506
SWIDTH 332 0
DWIDTH 13 0
BBX 9 26 2 0
BITMAP
C180
C180
C180
C180
C180
C180
C180
C180
E180
6180
6180
6180
6180
3380
3380
3300
3300
3300
3300
3300
1300
1300
1600
1C00
F800
E000
ENDCHAR
STARTCHAR uni05E3
ENCODING 1507
SWIDTH 342 0
DWIDTH 14 0
BBX 10 32 2 -6
BITMAP
1C00
7F00
6300
E380
C180
C180
C180
C180
C180
C180
C180
C180
E180
7180
3980
0180
0180
0180
0180
0180
0180
0180
0180
0180
0180
0180
0180
0180
0180
0180
01C0
0180
ENDCHAR
STARTCHAR uni05E4
ENCODING 1508
SWIDTH 344 0
DWIDTH 14 0
BBX 9 26 2 0
BITMAP
7800
7E00
4300
C300
C180
C180
C180
C180
C180
C180
E180
6180
7180
6180
0180
0180
0180
0180
0180
0180
0180
0180
0300
8300
FE00
7C00
ENDCHAR
STARTCHAR uni05E5
ENCODING 1509
SWIDTH 337 0
DWIDTH 13 0
BBX 10 32 2 -6
BITMAP
80C0
C0C0
C1C0
C180
6180
6300
6300
6300
3600
3600
3400
3C00
3C00
1800
1800
1800
1800
1800
1800
1800
0800
0800
0C00
0C00
0C00
0C00
0C00
0400
0400
0600
0600
0400
ENDCHAR
STARTCHAR uni05E6
ENCODING 1510
SWIDTH 282 0
DWIDTH 11 0
BBX 8 26 2 0
BITMAP
C2
C7
C7
66
6E
6C
6C
38
38
38
30
30
18
18
18
18
18
08
08
08
0C
0C
0C
0C
FC
FC
ENDCHAR
STARTCHAR uni05E7
ENCODING 1511
SWIDTH 327 0
DWIDTH 13 0
BBX 9 32 2 -6
BITMAP
FE00
7F80
0180
0180
0180
0180
6180
E180
6180
6180
6180
6180
6180
6180
6100
6300
6300
6300
6600
6600
6600
6C00
6C00
6C00
6C00
4E00
6400
E000
E000
E000
E000
4000
ENDCHAR
STARTCHAR uni05E8
ENCODING 1512
SWIDTH 317 0
DWIDTH 13 0
BBX 8 26 2 0
BITMAP
F0
FC
06
06
03
03
03
03
03
03
03
03
03
03
03
03
03
03
03
03
03
03
03
03
03
03
ENDCHAR
STARTCHAR uni05E9
ENCODING 1513
SWIDTH 377 0
DWIDTH 15 0
BBX 11 26 2 0
BITMAP
C660
C660
C660
C660
C660
C660
C660
C660
C460
C460
C460
C460
C460
CC60
CC60
D860
F060
C060
C0E0
E0E0
E0C0
60C0
61C0
71C0
3F80
1F00
ENDCHAR
STARTCHAR uni05EA
ENCODING 1514
SWIDTH 360 0
DWIDTH 14 0
BBX 11 26 1 0
BITMAP
7FE0
3FE0
1860
1860
1860
1860
1860
1860
1860
1860
1860
1860
1860
1860
1860
1860
1860
1860
1860
1860
1860
1860
1860
3860
7060
E060
ENDCHAR
STARTCHAR uni05F3
ENCODING 1523
SWIDTH 293 0
DWIDTH 12 0
BBX 4 10 4 21
BITMAP
10
30
70
70
60
E0
E0
C0
C0
80
ENDCHAR
STARTCHAR uni05F4
ENCODING 1524
SWIDTH 293 0
DWIDTH 12 0
BBX 9 10 1 21
BITMAP
1080
3180
3180
7380
7380
7380
6300
E300
C600
8400
ENDCHAR
STARTCHAR uni1E02
ENCODING 7682
SWIDTH 314 0
DWIDTH 13 0
BBX 9 35 2 0
BITMAP
3000
3800
3000
0000
7000
FC00
E600
E600
E300
E300
E300
E300
E700
E600
E600
EC00
F800
F800
7C00
6600
6300
6300
6100
6180
6180
6180
6180
6180
6180
E180
E300
E300
EE00
FC00
7800
ENDCHAR
STARTCHAR uni1E03
ENCODING 7683
SWIDTH 285 0
DWIDTH 11 0
BBX 7 33 2 -1
BITMAP
70
70
70
00
00
70
7C
6C
66
66
66
66
66
66
66
66
6E
7C
7C
7C
6E
66
66
66
66
66
66
E6
E6
E6
EC
F8
70
ENDCHAR
STARTCHAR uni1E0A
ENCODING 7690
SWIDTH 379 0
DWIDTH 15 0
BBX 11 35 2 0
BITMAP
1800
1C00
1C00
0000
FC00
FE00
CF00
C380
C180
41C0
40C0
40C0
40C0
60E0
60E0
6060
6060
6060
6060
6060
6060
60E0
60E0
60C0
60C0
60C0
61C0
6180
6180
6300
6700
6600
7E00
FC00
7000
ENDCHAR
STARTCHAR uni1E0B
ENCODING 7691
SWIDTH 346 0
DWIDTH 14 0
BBX 10 31 2 0
BITMAP
3000
7000
3000
0000
7000
FC00
EE00
E700
6300
6180
6180
6180
61C0
60C0
60C0
60C0
60C0
60C0
60C0
60C0
60C0
60C0
60C0
61C0
6180
6180
6180
6300
6700
7E00
7800
ENDCHAR
STARTCHAR uni1E1E
ENCODING 7710
SWIDTH 265 0
DWIDTH 11 0
BBX 6 35 2 0
BITMAP
30
38
30
00
7C
F8
E0
E0
60
60
60
60
60
60
60
60
60
7C
7C
60
60
60
60
60
60
60
70
70
70
70
70
70
70
70
30
ENDCHAR
STARTCHAR uni1E1F
ENCODING 7711
SWIDTH 247 0
DWIDTH 10 0
BBX 8 31 2 0
BITMAP
30
70
30
00
7C
7F
64
60
60
60
60
60
60
60
60
E0
F8
F8
C0
C0
C0
C0
C0
C0
C0
C0
C0
C0
C0
C0
C0
ENDCHAR
STARTCHAR uni1E40
ENCODING 7744
SWIDTH 453 0
DWIDTH 18 0
BBX 13 36 2 -1
BITMAP
0300
0380
0300
0000
0018
C038
E038
E038
E038
F038
F038
F038
F078
D878
D878
D878
D878
CC78
CCD8
CCD8
CCD8
C4D8
C598
C798
C798
C798
C718
C718
C718
C718
C218
C018
C018
E018
4018
0018
ENDCHAR
STARTCHAR uni1E41
ENCODING 7745
SWIDTH 561 0
DWIDTH 22 0
BBX 18 33 2 -2
BITMAP
00C000
00E000
00C000
000000
200180
700380
300380
380380
780780
780780
6C0780
6C0F80
6C0D80
660D80
660D80
661D80
671980
631980
631980
633980
63B180
61B180
61B1C0
61F1C0
61E1C0
E1E180
E1E180
E0C180
E0C180
E001C0
E001C0
6001C0
0001C0
ENDCHAR
STARTCHAR uni1E46
ENCODING 7750
SWIDTH 412 0
DWIDTH 16 0
BBX 12 39 2 -7
BITMAP
0030
4030
E030
E030
E030
F030
F030
F030
D830
D830
D830
D830
CC30
CC20
CC20
C620
C620
C620
C660
C360
C360
C360
C160
C160
41E0
41E0
60E0
60E0
60E0
6060
6060
E020
0000
0000
0000
0000
0600
0700
0600
ENDCHAR
STARTCHAR uni1E47
ENCODING 7751
SWIDTH 479 0
DWIDTH 19 0
BBX 13 34 3 -7
BITMAP
6018
E018
F018
F018
F818
F818
D818
DC18
CC18
CC18
CE18
C618
C618
C718
C318
C318
C318
C198
C198
C098
C098
C0F8
C0F0
C070
C070
C070
C070
0000
0000
0000
0000
0300
0700
0700
ENDCHAR
STARTCHAR uni1E56
ENCODING 7766
SWIDTH 288 0
DWIDTH 12 0
BBX 8 35 2 0
BITMAP
18
38
18
00
F0
F8
FC
CE
C6
46
43
43
43
43
66
66
66
6C
7C
78
70
60
60
60
60
60
60
60
60
60
60
60
60
60
60
ENDCHAR
STARTCHAR uni1E57
ENCODING 7767
SWIDTH 281 0
DWIDTH 11 0
BBX 7 32 3 -1
BITMAP
30
70
30
00
F8
FC
CC
CC
C6
C6
C6
CE
CE
CE
CC
DC
F8
F0
C0
C0
C0
C0
C0
C0
C0
C0
C0
C0
C0
C0
C0
C0
ENDCHAR
STARTCHAR uni1E60
ENCODING 7776
SWIDTH 307 0
DWIDTH 12 0
BBX 8 37 2 -1
BITMAP
18
38
18
00
00
1C
3E
70
E0
C0
C0
C0
C0
E0
60
60
70
30
38
18
1C
0C
0E
06
06
07
07
03
03
03
03
07
07
06
0E
FC
F8
ENDCHAR
STARTCHAR uni1E61
ENCODING 7777
SWIDTH 247 0
DWIDTH 10 0
BBX 7 33 1 -1
BITMAP
38
38
38
00
00
38
3C
60
60
60
C0
C0
40
60
60
70
30
38
18
1C
0C
0C
06
06
06
06
06
06
06
0C
0C
F8
70
ENDCHAR
STARTCHAR uni1E6A
ENCODING 7786
SWIDTH 262 0
DWIDTH 10 0
BBX 9 35 0 0
BITMAP
0C00
0E00
0C00
0000
7F80
FF00
0C00
0C00
0C00
0C00
0C00
0C00
0C00
0C00
0C00
0C00
0C00
0C00
0C00
0C00
0C00
0C00
0C00
0C00
0C00
0C00
0C00
0C00
0C00
0C00
0C00
0E00
0E00
0E00
0400
ENDCHAR
STARTCHAR uni1E6B
ENCODING 7787
SWIDTH 256 0
DWIDTH 10 0
BBX 9 31 0 0
BITMAP
1800
1C00
1800
0000
FF80
3F00
1800
0800
0800
0C00
0C00
0C00
0C00
0C00
0C00
0C00
0C00
0C00
0C00
0C00
0C00
0C00
0C00
0E00
0E00
0600
0600
0600
0600
0600
0400
ENDCHAR
STARTCHAR Wgrave
ENCODING 7808
SWIDTH 494 0
DWIDTH 20 0
BBX 17 36 1 -1
BITMAP
180000
3E0000
0F0000
01C000
400380
C00300
E00300
600300
618300
618300
618300
718300
738300
338300
33C700
33C600
33C600
33C600
33C600
3BE600
3BE600
1B6600
1E6C00
1E6C00
1E7C00
1E7C00
1E7C00
1E3C00
0E3C00
0E3C00
0E3800
0E3800
0E1800
0E1800
0E1800
0C0800
ENDCHAR
STARTCHAR wgrave
ENCODING 7809
SWIDTH 429 0
DWIDTH 17 0
BBX 14 33 1 -1
BITMAP
3000
3C00
0F00
0180
0000
000C
C00C
E00C
610C
630C
638C
638C
639C
639C
629C
62DC
62D8
62D8
76D8
36D8
3658
3658
3658
3658
3678
3678
3E70
3C30
3C30
1C30
1C30
1830
0800
ENDCHAR
STARTCHAR Wacute
ENCODING 7810
SWIDTH 494 0
DWIDTH 20 0
BBX 17 38 1 -1
BITMAP
000800
003C00
007800
00E000
01C000
010000
400380
C00300
E00300
600300
618300
618300
618300
718300
738300
338300
33C700
33C600
33C600
33C600
33C600
3BE600
3BE600
1B6600
1E6C00
1E6C00
1E7C00
1E7C00
1E7C00
1E3C00
0E3C00
0E3C00
0E3800
0E3800
0E1800
0E1800
0E1800
0C0800
ENDCHAR
STARTCHAR wacute
ENCODING 7811
SWIDTH 429 0
DWIDTH 17 0
BBX 14 35 1 -1
BITMAP
0008
003C
0078
00E0
01C0
0100
0000
000C
C00C
E00C
610C
630C
638C
638C
639C
639C
629C
62DC
62D8
62D8
76D8
36D8
3658
3658
3658
3658
3678
3678
3E70
3C30
3C30
1C30
1C30
1830
0800
ENDCHAR
STARTCHAR Wdieresis
ENCODING 7812
SWIDTH 494 0
DWIDTH 20 0
BBX 17 36 1 -1
BITMAP
0E1800
0E3800
0E1800
000000
400380
C00300
E00300
600300
618300
618300
618300
718300
738300
338300
33C700
33C600
33C600
33C600
33C600
3BE600
3BE600
1B6600
1E6C00
1E6C00
1E7C00
1E7C00
1E7C00
1E3C00
0E3C00
0E3C00
0E3800
0E3800
0E1800
0E1800
0E1800
0C0800
ENDCHAR
STARTCHAR wdieresis
ENCODING 7813
SWIDTH 429 0
DWIDTH 17 0
BBX 14 33 1 -1
BITMAP
1830
1C70
1830
0000
0000
000C
C00C
E00C
610C
630C
638C
638C
639C
639C
629C
62DC
62D8
62D8
76D8
36D8
3658
3658
3658
3658
3678
3678
3E70
3C30
3C30
1C30
1C30
1830
0800
ENDCHAR
STARTCHAR uni1E9E
ENCODING 7838
SWIDTH 323 0
DWIDTH 13 0
BBX 9 32 2 -1
BITMAP
3800
7C00
C600
C600
C600
C600
C600
C600
C600
C600
CE00
CC00
CC00
D800
D800
CC00
C600
C300
C300
C300
C300
C180
C180
C180
C300
C300
C300
C600
CE00
CC00
C000
C000
ENDCHAR
STARTCHAR uni1EA0
ENCODING 7840
SWIDTH 350 0
DWIDTH 14 0
BBX 11 38 1 -7
BITMAP
0300
0300
0700
0700
0780
0F80
0D80
0D80
0D80
0D80
1980
1980
1980
19C0
19C0
39C0
30C0
30C0
30C0
30C0
30C0
70C0
7FC0
7FC0
60C0
60C0
60E0
C0E0
C0E0
C0E0
40C0
0000
0000
0000
0000
0600
0600
0600
ENDCHAR
STARTCHAR uni1EA1
ENCODING 7841
SWIDTH 299 0
DWIDTH 12 0
BBX 11 34 0 -7
BITMAP
0700
0700
0700
0700
0700
0500
0D80
0D80
0D80
0D80
0980
0980
1980
1980
19C0
19C0
18C0
30C0
30C0
3EC0
37C0
30C0
70C0
60E0
60E0
E060
6060
0000
0000
0000
0000
0600
0E00
0600
ENDCHAR
STARTCHAR uni1EA2
ENCODING 7842
SWIDTH 350 0
DWIDTH 14 0
BBX 11 39 1 0
BITMAP
0780
0FE0
1C60
1860
01E0
0380
0300
0000
0300
0300
0700
0700
0780
0F80
0D80
0D80
0D80
0D80
1980
1980
1980
19C0
19C0
39C0
30C0
30C0
30C0
30C0
30C0
70C0
7FC0
7FC0
60C0
60C0
60E0
C0E0
C0E0
C0E0
40C0
ENDCHAR
STARTCHAR uni1EA3
ENCODING 7843
SWIDTH 299 0
DWIDTH 12 0
BBX 12 37 0 0
BITMAP
0380
0FE0
0C70
0C30
01E0
0380
0300
0000
0000
0000
0700
0700
0700
0700
0700
0500
0D80
0D80
0D80
0D80
0980
0980
1980
1980
19C0
19C0
18C0
30C0
30C0
3EC0
37C0
30C0
70C0
60E0
60E0
E060
6060
ENDCHAR
STARTCHAR uni1EA4
ENCODING 7844
SWIDTH 350 0
DWIDTH 14 0
BBX 17 41 1 0
BITMAP
000100
000780
030F00
031C00
07B800
07A000
0C8000
0CC000
18C000
084000
030000
030000
070000
070000
078000
0F8000
0D8000
0D8000
0D8000
0D8000
198000
198000
198000
19C000
19C000
39C000
30C000
30C000
30C000
30C000
30C000
70C000
7FC000
7FC000
60C000
60C000
60E000
C0E000
C0E000
C0E000
40C000
ENDCHAR
STARTCHAR uni1EA5
ENCODING 7845
SWIDTH 299 0
DWIDTH 12 0
BBX 17 39 0 0
BITMAP
000100
000380
030F00
039E00
07B800
06A000
0CC000
0CC000
0CC000
084000
000000
000000
070000
070000
070000
070000
070000
050000
0D8000
0D8000
0D8000
0D8000
098000
098000
198000
198000
19C000
19C000
18C000
30C000
30C000
3EC000
37C000
30C000
70C000
60E000
60E000
E06000
606000
ENDCHAR
STARTCHAR uni1EA6
ENCODING 7846
SWIDTH 350 0
DWIDTH 14 0
BBX 13 40 -1 0
BITMAP
C000
E0C0
70E0
39E0
09E0
0720
0330
0230
0210
00C0
00C0
01C0
01C0
01E0
03E0
0360
0360
0360
0360
0660
0660
0660
0670
0670
0E70
0C30
0C30
0C30
0C30
0C30
1C30
1FF0
1FF0
1830
1830
1838
3038
3038
3038
1030
ENDCHAR
STARTCHAR uni1EA7
ENCODING 7847
SWIDTH 299 0
DWIDTH 12 0
BBX 13 37 -2 0
BITMAP
C040
E0E0
71E0
39A0
0D30
0730
0310
0210
0000
0000
01C0
01C0
01C0
01C0
01C0
0140
0360
0360
0360
0360
0260
0260
0660
0660
0670
0670
0630
0C30
0C30
0FB0
0DF0
0C30
1C30
1838
1838
3818
1818
ENDCHAR
STARTCHAR uni1EA8
ENCODING 7848
SWIDTH 350 0
DWIDTH 14 0
BBX 18 42 1 0
BITMAP
000E00
003F80
007180
0171C0
038780
038E00
068C00
06C000
0CC000
0C4000
084000
030000
030000
070000
070000
078000
0F8000
0D8000
0D8000
0D8000
0D8000
198000
198000
198000
19C000
19C000
39C000
30C000
30C000
30C000
30C000
30C000
70C000
7FC000
7FC000
60C000
60C000
60E000
C0E000
C0E000
C0E000
40C000
ENDCHAR
STARTCHAR uni1EA9
ENCODING 7849
SWIDTH 299 0
DWIDTH 12 0
BBX 18 40 0 0
BITMAP
000E00
003F80
0031C0
01B0C0
0387C0
038F00
06CC00
06C000
0C4000
0C6000
044000
000000
000000
070000
070000
070000
070000
070000
050000
0D8000
0D8000
0D8000
0D8000
098000
098000
198000
198000
19C000
19C000
18C000
30C000
30C000
3EC000
37C000
30C000
70C000
60E000
60E000
E06000
606000
ENDCHAR
STARTCHAR uni1EAA
ENCODING 7850
SWIDTH 350 0
DWIDTH 14 0
BBX 12 44 1 0
BITMAP
0610
1F30
19F0
18E0
0180
0180
03C0
03C0
0640
0660
0C60
0420
0000
0300
0300
0700
0700
0780
0F80
0D80
0D80
0D80
0D80
1980
1980
1980
19C0
19C0
39C0
30C0
30C0
30C0
30C0
30C0
70C0
7FC0
7FC0
60C0
60C0
60E0
C0E0
C0E0
C0E0
40C0
ENDCHAR
STARTCHAR uni1EAB
ENCODING 7851
SWIDTH 299 0
DWIDTH 12 0
BBX 12 41 0 0
BITMAP
0C20
1E70
33E0
11E0
0000
0300
0380
0780
0680
04C0
0CC0
0CC0
0840
0000
0700
0700
0700
0700
0700
0500
0D80
0D80
0D80
0D80
0980
0980
1980
1980
19C0
19C0
18C0
30C0
30C0
3EC0
37C0
30C0
70C0
60E0
60E0
E060
6060
ENDCHAR
STARTCHAR uni1EAC
ENCODING 7852
SWIDTH 350 0
DWIDTH 14 0
BBX 11 47 1 -7
BITMAP
0180
0180
03C0
03C0
0640
0660
0C60
0420
0000
0300
0300
0700
0700
0780
0F80
0D80
0D80
0D80
0D80
1980
1980
1980
19C0
19C0
39C0
30C0
30C0
30C0
30C0
30C0
70C0
7FC0
7FC0
60C0
60C0
60E0
C0E0
C0E0
C0E0
40C0
0000
0000
0000
0000
0600
0600
0600
ENDCHAR
STARTCHAR uni1EAD
ENCODING 7853
SWIDTH 299 0
DWIDTH 12 0
BBX 11 43 0 -7
BITMAP
0300
0380
0780
0680
04C0
0CC0
0CC0
0840
0000
0700
0700
0700
0700
0700
0500
0D80
0D80
0D80
0D80
0980
0980
1980
1980
19C0
19C0
18C0
30C0
30C0
3EC0
37C0
30C0
70C0
60E0
60E0
E060
6060
0000
0000
0000
0000
0600
0E00
0600
ENDCHAR
STARTCHAR uni1EAE
ENCODING 7854
SWIDTH 350 0
DWIDTH 14 0
BBX 14 45 1 0
BITMAP
0008
003C
0078
00E0
01C0
0100
0000
0420
0C60
0C60
0660
07C0
0380
0000
0300
0300
0700
0700
0780
0F80
0D80
0D80
0D80
0D80
1980
1980
1980
19C0
19C0
39C0
30C0
30C0
30C0
30C0
30C0
70C0
7FC0
7FC0
60C0
60C0
60E0
C0E0
C0E0
C0E0
40C0
ENDCHAR
STARTCHAR uni1EAF
ENCODING 7855
SWIDTH 299 0
DWIDTH 12 0
BBX 13 42 0 0
BITMAP
0018
0038
0070
01E0
0380
0200
0000
0840
08C0
0CC0
0CC0
0FC0
0780
0000
0000
0700
0700
0700
0700
0700
0500
0D80
0D80
0D80
0D80
0980
0980
1980
1980
19C0
19C0
18C0
30C0
30C0
3EC0
37C0
30C0
70C0
60E0
60E0
E060
6060
ENDCHAR
STARTCHAR uni1EB0
ENCODING 7856
SWIDTH 350 0
DWIDTH 14 0
BBX 11 43 1 0
BITMAP
1800
3E00
0F00
01C0
0000
0420
0C60
0C60
0660
07C0
0380
0000
0300
0300
0700
0700
0780
0F80
0D80
0D80
0D80
0D80
1980
1980
1980
19C0
19C0
39C0
30C0
30C0
30C0
30C0
30C0
70C0
7FC0
7FC0
60C0
60C0
60E0
C0E0
C0E0
C0E0
40C0
ENDCHAR
STARTCHAR uni1EB1
ENCODING 7857
SWIDTH 299 0
DWIDTH 12 0
BBX 11 40 0 0
BITMAP
6000
7800
1E00
0380
0000
0840
08C0
0CC0
0CC0
0FC0
0780
0000
0000
0700
0700
0700
0700
0700
0500
0D80
0D80
0D80
0D80
0980
0980
1980
1980
19C0
19C0
18C0
30C0
30C0
3EC0
37C0
30C0
70C0
60E0
60E0
E060
6060
ENDCHAR
STARTCHAR uni1EB2
ENCODING 7858
SWIDTH 350 0
DWIDTH 14 0
BBX 12 46 1 0
BITMAP
03C0
07F0
0E30
0C30
00F0
01C0
0180
0000
0420
0C60
0C60
0660
07C0
0380
0000
0300
0300
0700
0700
0780
0F80
0D80
0D80
0D80
0D80
1980
1980
1980
19C0
19C0
39C0
30C0
30C0
30C0
30C0
30C0
70C0
7FC0
7FC0
60C0
60C0
60E0
C0E0
C0E0
C0E0
40C0
ENDCHAR
STARTCHAR uni1EB3
ENCODING 7859
SWIDTH 299 0
DWIDTH 12 0
BBX 12 43 0 0
BITMAP
0380
0FE0
0C70
0C30
01E0
0380
0300
0000
0840
08C0
0CC0
0CC0
0FC0
0780
0000
0000
0700
0700
0700
0700
0700
0500
0D80
0D80
0D80
0D80
0980
0980
1980
1980
19C0
19C0
18C0
30C0
30C0
3EC0
37C0
30C0
70C0
60E0
60E0
E060
6060
ENDCHAR
STARTCHAR uni1EB4
ENCODING 7860
SWIDTH 350 0
DWIDTH 14 0
BBX 12 43 1 0
BITMAP
0610
1F30
19F0
18E0
0000
0420
0C60
0C60
0660
07C0
0380
0000
0300
0300
0700
0700
0780
0F80
0D80
0D80
0D80
0D80
1980
1980
1980
19C0
19C0
39C0
30C0
30C0
30C0
30C0
30C0
70C0
7FC0
7FC0
60C0
60C0
60E0
C0E0
C0E0
C0E0
40C0
ENDCHAR
STARTCHAR uni1EB5
ENCODING 7861
SWIDTH 299 0
DWIDTH 12 0
BBX 12 40 0 0
BITMAP
0C20
1E70
33E0
11E0
0000
0840
08C0
0CC0
0CC0
0FC0
0780
0000
0000
0700
0700
0700
0700
0700
0500
0D80
0D80
0D80
0D80
0980
0980
1980
1980
19C0
19C0
18C0
30C0
30C0
3EC0
37C0
30C0
70C0
60E0
60E0
E060
6060
ENDCHAR
STARTCHAR uni1EB6
ENCODING 7862
SWIDTH 350 0
DWIDTH 14 0
BBX 11 45 1 -7
BITMAP
0420
0C60
0C60
0660
07C0
0380
0000
0300
0300
0700
0700
0780
0F80
0D80
0D80
0D80
0D80
1980
1980
1980
19C0
19C0
39C0
30C0
30C0
30C0
30C0
30C0
70C0
7FC0
7FC0
60C0
60C0
60E0
C0E0
C0E0
C0E0
40C0
0000
0000
0000
0000
0600
0600
0600
ENDCHAR
STARTCHAR uni1EB7
ENCODING 7863
SWIDTH 299 0
DWIDTH 12 0
BBX 11 42 0 -7
BITMAP
0840
08C0
0CC0
0CC0
0FC0
0780
0000
0000
0700
0700
0700
0700
0700
0500
0D80
0D80
0D80
0D80
0980
0980
1980
1980
19C0
19C0
18C0
30C0
30C0
3EC0
37C0
30C0
70C0
60E0
60E0
E060
6060
0000
0000
0000
0000
0600
0E00
0600
ENDCHAR
STARTCHAR uni1EB8
ENCODING 7864
SWIDTH 278 0
DWIDTH 11 0
BBX 7 38 2 -7
BITMAP
78
FC
F8
E0
E0
60
60
60
60
60
60
60
60
60
7C
7C
60
60
60
60
60
60
60
60
60
60
60
60
60
7E
7E
00
00
00
00
38
38
38
ENDCHAR
STARTCHAR uni1EB9
ENCODING 7865
SWIDTH 284 0
DWIDTH 11 0
BBX 6 34 3 -7
BITMAP
F0
FC
FC
C0
C0
C0
C0
C0
C0
C0
C0
F8
F8
C0
C0
C0
C0
C0
C0
C0
C0
C0
C0
C0
C0
C0
FC
FC
00
00
00
30
70
30
ENDCHAR
STARTCHAR uni1EBA
ENCODING 7866
SWIDTH 278 0
DWIDTH 11 0
BBX 8 39 1 0
BITMAP
3C
7F
E3
C3
0F
1C
18
00
3C
7E
7C
70
70
30
30
30
30
30
30
30
30
30
3E
3E
30
30
30
30
30
30
30
30
30
30
30
30
30
3F
3F
ENDCHAR
STARTCHAR uni1EBB
ENCODING 7867
SWIDTH 284 0
DWIDTH 11 0
BBX 8 37 2 -1
BITMAP
3C
FE
C7
C3
0F
1C
10
00
00
78
7E
7E
60
60
60
60
60
60
60
60
7C
7C
60
60
60
60
60
60
60
60
60
60
60
60
60
7E
7E
ENDCHAR
STARTCHAR uni1EBC
ENCODING 7868
SWIDTH 278 0
DWIDTH 11 0
BBX 9 36 0 0
BITMAP
3080
F980
CF80
C700
0000
1E00
3F00
3E00
3800
3800
1800
1800
1800
1800
1800
1800
1800
1800
1800
1F00
1F00
1800
1800
1800
1800
1800
1800
1800
1800
1800
1800
1800
1800
1800
1F80
1F80
ENDCHAR
STARTCHAR uni1EBD
ENCODING 7869
SWIDTH 284 0
DWIDTH 11 0
BBX 9 33 1 -1
BITMAP
6100
F980
DF80
CF00
0000
3C00
3F00
3F00
3000
3000
3000
3000
3000
3000
3000
3000
3E00
3E00
3000
3000
3000
3000
3000
3000
3000
3000
3000
3000
3000
3000
3000
3F00
3F00
ENDCHAR
STARTCHAR uni1EBE
ENCODING 7870
SWIDTH 278 0
DWIDTH 11 0
BBX 14 42 1 0
BITMAP
0008
003C
1878
1CE0
3DC0
3D00
6400
6600
C600
4200
0000
3C00
7E00
7C00
7000
7000
3000
3000
3000
3000
3000
3000
3000
3000
3000
3E00
3E00
3000
3000
3000
3000
3000
3000
3000
3000
3000
3000
3000
3000
3000
3F00
3F00
ENDCHAR
STARTCHAR uni1EBF
ENCODING 7871
SWIDTH 284 0
DWIDTH 11 0
BBX 13 39 2 -1
BITMAP
0018
0038
1870
38E0
3B80
6E00
6C00
CC00
C600
8400
0000
7800
7E00
7E00
6000
6000
6000
6000
6000
6000
6000
6000
7C00
7C00
6000
6000
6000
6000
6000
6000
6000
6000
6000
6000
6000
6000
6000
7E00
7E00
ENDCHAR
STARTCHAR uni1EC0
ENCODING 7872
SWIDTH 278 0
DWIDTH 11 0
BBX 13 41 -4 0
BITMAP
C000
E0C0
70E0
39E0
09E0
0720
0330
0230
0210
0000
01E0
03F0
03E0
0380
0380
0180
0180
0180
0180
0180
0180
0180
0180
0180
01F0
01F0
0180
0180
0180
0180
0180
0180
0180
0180
0180
0180
0180
0180
0180
01F8
01F8
ENDCHAR
STARTCHAR uni1EC1
ENCODING 7873
SWIDTH 284 0
DWIDTH 11 0
BBX 13 38 -4 -1
BITMAP
C000
E060
70E0
18E0
0DB0
05B0
0310
0318
0110
0000
01E0
01F8
01F8
0180
0180
0180
0180
0180
0180
0180
0180
01F0
01F0
0180
0180
0180
0180
0180
0180
0180
0180
0180
0180
0180
0180
0180
01F8
01F8
ENDCHAR
STARTCHAR uni1EC2
ENCODING 7874
SWIDTH 278 0
DWIDTH 11 0
BBX 14 43 2 0
BITMAP
00E0
03F8
0318
171C
3878
28E0
6CC0
6C00
CC00
C400
8400
0000
7800
FC00
F800
E000
E000
6000
6000
6000
6000
6000
6000
6000
6000
6000
7C00
7C00
6000
6000
6000
6000
6000
6000
6000
6000
6000
6000
6000
6000
6000
7E00
7E00
ENDCHAR
STARTCHAR uni1EC3
ENCODING 7875
SWIDTH 284 0
DWIDTH 11 0
BBX 14 40 2 -1
BITMAP
00F0
03F8
030C
1B0C
183C
3C70
2C60
6400
6600
C600
4600
0000
7800
7E00
7E00
6000
6000
6000
6000
6000
6000
6000
6000
7C00
7C00
6000
6000
6000
6000
6000
6000
6000
6000
6000
6000
6000
6000
6000
7E00
7E00
ENDCHAR
STARTCHAR uni1EC4
ENCODING 7876
SWIDTH 278 0
DWIDTH 11 0
BBX 9 45 1 0
BITMAP
3080
F980
CF80
C700
0000
0C00
0E00
1E00
1E00
3200
3300
6300
2100
0000
3C00
7E00
7C00
7000
7000
3000
3000
3000
3000
3000
3000
3000
3000
3000
3E00
3E00
3000
3000
3000
3000
3000
3000
3000
3000
3000
3000
3000
3000
3000
3F00
3F00
ENDCHAR
STARTCHAR uni1EC5
ENCODING 7877
SWIDTH 284 0
DWIDTH 11 0
BBX 9 41 1 -1
BITMAP
6100
F980
DF80
CF00
0000
0C00
1C00
1C00
3600
3600
6200
6300
4200
3C00
3F00
3F00
3000
3000
3000
3000
3000
3000
3000
3000
3E00
3E00
3000
3000
3000
3000
3000
3000
3000
3000
3000
3000
3000
3000
3000
3F00
3F00
ENDCHAR
STARTCHAR uni1EC6
ENCODING 7878
SWIDTH 278 0
DWIDTH 11 0
BBX 7 47 2 -7
BITMAP
18
1C
3C
3C
64
66
C6
42
00
78
FC
F8
E0
E0
60
60
60
60
60
60
60
60
60
7C
7C
60
60
60
60
60
60
60
60
60
60
60
60
60
7E
7E
00
00
00
00
38
38
38
ENDCHAR
STARTCHAR uni1EC7
ENCODING 7879
SWIDTH 284 0
DWIDTH 11 0
BBX 7 42 2 -7
BITMAP
18
38
38
6C
6C
C4
C6
84
78
7E
7E
60
60
60
60
60
60
60
60
7C
7C
60
60
60
60
60
60
60
60
60
60
60
60
60
7E
7E
00
00
00
18
38
18
ENDCHAR
STARTCHAR uni1EC8
ENCODING 7880
SWIDTH 257 0
DWIDTH 10 0
BBX 9 39 0 0
BITMAP
3C00
7F00
E300
C300
0F00
1C00
1800
0000
1F00
7E00
1800
1800
1800
1800
1800
1800
1800
1800
1800
1800
1C00
1C00
0C00
0C00
0C00
0C00
0C00
0C00
0C00
0C00
0C00
0C00
0C00
0C00
0C00
0C00
0C00
7F80
3F00
ENDCHAR
STARTCHAR uni1EC9
ENCODING 7881
SWIDTH 226 0
DWIDTH 9 0
BBX 8 36 1 0
BITMAP
38
FE
C7
C3
1F
1C
30
00
00
7C
FC
30
30
30
30
30
30
30
30
30
30
30
30
30
30
30
30
30
38
38
38
18
18
18
FE
FE
ENDCHAR
STARTCHAR uni1ECA
ENCODING 7882
SWIDTH 257 0
DWIDTH 10 0
BBX 8 38 1 -7
BITMAP
3E
FC
30
30
30
30
30
30
30
30
30
30
38
38
18
18
18
18
18
18
18
18
18
18
18
18
18
18
18
FF
7E
00
00
00
00
18
1C
18
ENDCHAR
STARTCHAR uni1ECB
ENCODING 7883
SWIDTH 226 0
DWIDTH 9 0
BBX 7 34 1 -7
BITMAP
7C
FC
30
30
30
30
30
30
30
30
30
30
30
30
30
30
30
30
30
38
38
38
18
18
18
FE
FE
00
00
00
00
1C
1C
1C
ENDCHAR
STARTCHAR uni1ECC
ENCODING 7884
SWIDTH 355 0
DWIDTH 14 0
BBX 10 38 2 -7
BITMAP
3C00
7E00
6300
E300
C180
C180
C180
C080
C0C0
C0C0
C0C0
C0C0
C0C0
C0C0
C0C0
C0C0
C0C0
C0C0
C0C0
C0C0
C0C0
C0C0
C0C0
C0C0
60C0
60C0
6080
6180
3180
3180
1F00
0E00
0000
0000
0000
0C00
0E00
0C00
ENDCHAR
STARTCHAR uni1ECD
ENCODING 7885
SWIDTH 360 0
DWIDTH 14 0
BBX 10 34 2 -7
BITMAP
3C00
7E00
6300
6180
C080
C0C0
C0C0
C0C0
C0C0
C0C0
C0C0
C0C0
C0C0
C0C0
C0C0
C0C0
C0C0
C0C0
C0C0
C0C0
E0C0
E0C0
60C0
61C0
6180
3380
3F00
1E00
0000
0000
0000
0C00
0E00
0C00
ENDCHAR
STARTCHAR uni1ECE
ENCODING 7886
SWIDTH 355 0
DWIDTH 14 0
BBX 10 40 2 -1
BITMAP
1C00
7F00
6380
6180
0F00
1C00
1800
0000
3C00
7E00
6300
E300
C180
C180
C180
C080
C0C0
C0C0
C0C0
C0C0
C0C0
C0C0
C0C0
C0C0
C0C0
C0C0
C0C0
C0C0
C0C0
C0C0
C0C0
C0C0
60C0
60C0
6080
6180
3180
3180
1F00
0E00
ENDCHAR
STARTCHAR uni1ECF
ENCODING 7887
SWIDTH 360 0
DWIDTH 14 0
BBX 10 37 2 -1
BITMAP
1E00
7F00
6380
6180
0780
0E00
0800
0000
0000
3C00
7E00
6300
6180
C080
C0C0
C0C0
C0C0
C0C0
C0C0
C0C0
C0C0
C0C0
C0C0
C0C0
C0C0
C0C0
C0C0
C0C0
C0C0
E0C0
E0C0
60C0
61C0
6180
3380
3F00
1E00
ENDCHAR
STARTCHAR uni1ED0
ENCODING 7888
SWIDTH 355 0
DWIDTH 14 0
BBX 14 43 2 -1
BITMAP
000C
001C
0838
1CF0
1DC0
3500
3600
6600
6200
4200
0000
3C00
7E00
6300
E300
C180
C180
C180
C080
C0C0
C0C0
C0C0
C0C0
C0C0
C0C0
C0C0
C0C0
C0C0
C0C0
C0C0
C0C0
C0C0
C0C0
C0C0
C0C0
60C0
60C0
6080
6180
3180
3180
1F00
0E00
ENDCHAR
STARTCHAR uni1ED1
ENCODING 7889
SWIDTH 360 0
DWIDTH 14 0
BBX 14 39 2 -1
BITMAP
000C
001C
0838
1C70
15C0
3700
3600
6600
6200
4200
0000
3C00
7E00
6300
6180
C080
C0C0
C0C0
C0C0
C0C0
C0C0
C0C0
C0C0
C0C0
C0C0
C0C0
C0C0
C0C0
C0C0
C0C0
C0C0
E0C0
E0C0
60C0
61C0
6180
3380
3F00
1E00
ENDCHAR
STARTCHAR uni1ED2
ENCODING 7890
SWIDTH 355 0
DWIDTH 14 0
BBX 15 42 -3 -1
BITMAP
C000
E040
70E0
18A0
0DB0
05B0
0330
0310
0210
0000
01E0
03F0
0318
0718
060C
060C
060C
0604
0606
0606
0606
0606
0606
0606
0606
0606
0606
0606
0606
0606
0606
0606
0606
0606
0306
0306
0304
030C
018C
018C
00F8
0070
ENDCHAR
STARTCHAR uni1ED3
ENCODING 7891
SWIDTH 360 0
DWIDTH 14 0
BBX 15 38 -3 -1
BITMAP
C000
E060
70E0
18E0
0DB0
05B0
0310
0318
0210
0000
01E0
03F0
0318
030C
0604
0606
0606
0606
0606
0606
0606
0606
0606
0606
0606
0606
0606
0606
0606
0606
0706
0706
0306
030E
030C
019C
01F8
00F0
ENDCHAR
STARTCHAR uni1ED4
ENCODING 7892
SWIDTH 355 0
DWIDTH 14 0
BBX 15 44 2 -1
BITMAP
0070
01FC
018E
0D86
1C1E
1E38
3660
3600
2200
6300
2300
0000
3C00
7E00
6300
E300
C180
C180
C180
C080
C0C0
C0C0
C0C0
C0C0
C0C0
C0C0
C0C0
C0C0
C0C0
C0C0
C0C0
C0C0
C0C0
C0C0
C0C0
C0C0
60C0
60C0
6080
6180
3180
3180
1F00
0E00
ENDCHAR
STARTCHAR uni1ED5
ENCODING 7893
SWIDTH 360 0
DWIDTH 14 0
BBX 15 40 2 -1
BITMAP
0078
01FC
0186
0D86
1C1E
1E38
1630
3200
3300
6300
2300
0000
3C00
7E00
6300
6180
C080
C0C0
C0C0
C0C0
C0C0
C0C0
C0C0
C0C0
C0C0
C0C0
C0C0
C0C0
C0C0
C0C0
C0C0
C0C0
E0C0
E0C0
60C0
61C0
6180
3380
3F00
1E00
ENDCHAR
STARTCHAR uni1ED6
ENCODING 7894
SWIDTH 355 0
DWIDTH 14 0
BBX 10 46 2 -1
BITMAP
3080
7DC0
CF80
4780
0000
0400
0E00
0E00
1A00
1B00
3300
3100
2100
0000
3C00
7E00
6300
E300
C180
C180
C180
C080
C0C0
C0C0
C0C0
C0C0
C0C0
C0C0
C0C0
C0C0
C0C0
C0C0
C0C0
C0C0
C0C0
C0C0
C0C0
C0C0
60C0
60C0
6080
6180
3180
3180
1F00
0E00
ENDCHAR
STARTCHAR uni1ED7
ENCODING 7895
SWIDTH 360 0
DWIDTH 14 0
BBX 10 41 2 -1
BITMAP
6100
F980
DF80
CF00
0000
0C00
1C00
1C00
3600
3600
6600
6300
4200
3C00
7E00
6300
6180
C080
C0C0
C0C0
C0C0
C0C0
C0C0
C0C0
C0C0
C0C0
C0C0
C0C0
C0C0
C0C0
C0C0
C0C0
C0C0
E0C0
E0C0
60C0
61C0
6180
3380
3F00
1E00
ENDCHAR
STARTCHAR uni1ED8
ENCODING 7896
SWIDTH 355 0
DWIDTH 14 0
BBX 10 47 2 -7
BITMAP
0400
0E00
0E00
1A00
1B00
3300
3100
2100
0000
3C00
7E00
6300
E300
C180
C180
C180
C080
C0C0
C0C0
C0C0
C0C0
C0C0
C0C0
C0C0
C0C0
C0C0
C0C0
C0C0
C0C0
C0C0
C0C0
C0C0
C0C0
60C0
60C0
6080
6180
3180
3180
1F00
0E00
0000
0000
0000
0C00
0E00
0C00
ENDCHAR
STARTCHAR uni1ED9
ENCODING 7897
SWIDTH 360 0
DWIDTH 14 0
BBX 10 42 2 -7
BITMAP
0C00
1C00
1C00
3600
3600
6600
6300
4200
3C00
7E00
6300
6180
C080
C0C0
C0C0
C0C0
C0C0
C0C0
C0C0
C0C0
C0C0
C0C0
C0C0
C0C0
C0C0
C0C0
C0C0
C0C0
E0C0
E0C0
60C0
61C0
6180
3380
3F00
1E00
0000
0000
0000
0C00
0E00
0C00
ENDCHAR
STARTCHAR uni1EDA
ENCODING 7898
SWIDTH 372 0
DWIDTH 15 0
BBX 12 40 2 -1
BITMAP
00C0
01C0
0380
0F00
1C20
1070
0070
0070
3FE0
7F80
6300
E380
C180
C180
C180
C0C0
C0C0
C0C0
C0C0
C0C0
C0C0
C0C0
C0C0
C0C0
C0C0
C0C0
C0C0
C0C0
C0C0
C0C0
C0C0
C0C0
60C0
60C0
6080
6180
3180
3180
1F00
0E00
ENDCHAR
STARTCHAR uni1EDB
ENCODING 7899
SWIDTH 360 0
DWIDTH 14 0
BBX 11 36 2 -1
BITMAP
00C0
01C0
0780
0F00
1C00
10E0
00E0
00E0
3FC0
7F00
6300
6180
C080
C0C0
C0C0
C0C0
C0C0
C0C0
C0C0
C0C0
C0C0
C0C0
C0C0
C0C0
C0C0
C0C0
C0C0
C0C0
E0C0
E0C0
60C0
61C0
6180
3380
3F00
1E00
ENDCHAR
STARTCHAR uni1EDC
ENCODING 7900
SWIDTH 372 0
DWIDTH 15 0
BBX 14 38 0 -1
BITMAP
6000
F800
3E08
031C
001C
001C
0FF8
1FE0
18C0
38E0
3060
3060
3060
3030
3030
3030
3030
3030
3030
3030
3030
3030
3030
3030
3030
3030
3030
3030
3030
3030
1830
1830
1820
1860
0C60
0C60
07C0
0380
ENDCHAR
STARTCHAR uni1EDD
ENCODING 7901
SWIDTH 360 0
DWIDTH 14 0
BBX 13 34 0 -1
BITMAP
C000
F000
3C00
0638
0038
0038
0FF0
1FC0
18C0
1860
3020
3030
3030
3030
3030
3030
3030
3030
3030
3030
3030
3030
3030
3030
3030
3030
3830
3830
1830
1870
1860
0CE0
0FC0
0780
ENDCHAR
STARTCHAR uni1EDE
ENCODING 7902
SWIDTH 372 0
DWIDTH 15 0
BBX 12 41 2 -1
BITMAP
1C00
7F00
6380
6180
0F00
1C20
1870
0070
0070
3FE0
7F80
6300
E380
C180
C180
C180
C0C0
C0C0
C0C0
C0C0
C0C0
C0C0
C0C0
C0C0
C0C0
C0C0
C0C0
C0C0
C0C0
C0C0
C0C0
C0C0
C0C0
60C0
60C0
6080
6180
3180
3180
1F00
0E00
ENDCHAR
STARTCHAR uni1EDF
ENCODING 7903
SWIDTH 360 0
DWIDTH 14 0
BBX 11 38 2 -1
BITMAP
1C00
7F00
E300
E380
0F00
1C00
1800
00E0
00E0
00E0
3FC0
7F00
6300
6180
C080
C0C0
C0C0
C0C0
C0C0
C0C0
C0C0
C0C0
C0C0
C0C0
C0C0
C0C0
C0C0
C0C0
C0C0
C0C0
E0C0
E0C0
60C0
61C0
6180
3380
3F00
1E00
ENDCHAR
STARTCHAR uni1EE0
ENCODING 7904
SWIDTH 372 0
DWIDTH 15 0
BBX 13 38 1 -1
BITMAP
3080
7DC0
CF90
47B8
0038
0038
1FF0
3FC0
3180
71C0
60C0
60C0
60C0
6060
6060
6060
6060
6060
6060
6060
6060
6060
6060
6060
6060
6060
6060
6060
6060
6060
3060
3060
3040
30C0
18C0
18C0
0F80
0700
ENDCHAR
STARTCHAR uni1EE1
ENCODING 7905
SWIDTH 360 0
DWIDTH 14 0
BBX 12 34 1 -1
BITMAP
3080
7980
CF80
C770
0070
0070
1FE0
3F80
3180
30C0
6040
6060
6060
6060
6060
6060
6060
6060
6060
6060
6060
6060
6060
6060
6060
6060
7060
7060
3060
30E0
30C0
19C0
1F80
0F00
ENDCHAR
STARTCHAR uni1EE2
ENCODING 7906
SWIDTH 372 0
DWIDTH 15 0
BBX 12 42 2 -7
BITMAP
0020
0070
0070
0070
3FE0
7F80
6300
E380
C180
C180
C180
C0C0
C0C0
C0C0
C0C0
C0C0
C0C0
C0C0
C0C0
C0C0
C0C0
C0C0
C0C0
C0C0
C0C0
C0C0
C0C0
C0C0
60C0
60C0
6080
6180
3180
3180
1F00
0E00
0000
0000
0000
0C00
0E00
0E00
ENDCHAR
STARTCHAR uni1EE3
ENCODING 7907
SWIDTH 360 0
DWIDTH 14 0
BBX 11 37 2 -7
BITMAP
00E0
00E0
00E0
3FC0
7F00
6300
6180
C080
C0C0
C0C0
C0C0
C0C0
C0C0
C0C0
C0C0
C0C0
C0C0
C0C0
C0C0
C0C0
C0C0
C0C0
C0C0
E0C0
E0C0
60C0
61C0
6180
3380
3F00
1E00
0000
0000
0000
1800
3800
1800
ENDCHAR
STARTCHAR uni1EE4
ENCODING 7908
SWIDTH 401 0
DWIDTH 16 0
BBX 11 38 2 -7
BITMAP
C040
C0E0
C0E0
C0E0
C060
C060
C060
E060
E060
E060
E060
E060
E060
E060
E060
E060
E060
E060
E060
6060
6060
6060
6060
7060
7060
3060
3060
3860
1860
1C60
0FC0
0780
0000
0000
0000
0600
0600
0600
ENDCHAR
STARTCHAR uni1EE5
ENCODING 7909
SWIDTH 361 0
DWIDTH 14 0
BBX 10 34 2 -7
BITMAP
C0C0
C0C0
C0C0
C0C0
C0C0
C0C0
C0C0
C0C0
C0C0
C0C0
C0C0
C0C0
C0C0
C0C0
C0C0
C0C0
C0C0
C1C0
C180
C180
E180
6180
6180
6300
7300
3E00
1C00
0000
0000
0000
0000
0C00
0E00
0C00
ENDCHAR
STARTCHAR uni1EE6
ENCODING 7910
SWIDTH 401 0
DWIDTH 16 0
BBX 11 40 2 -1
BITMAP
0E00
3F80
31C0
30C0
07C0
0700
0C00
0000
C040
C0E0
C0E0
C0E0
C060
C060
C060
E060
E060
E060
E060
E060
E060
E060
E060
E060
E060
E060
E060
6060
6060
6060
6060
7060
7060
3060
3060
3860
1860
1C60
0FC0
0780
ENDCHAR
STARTCHAR uni1EE7
ENCODING 7911
SWIDTH 361 0
DWIDTH 14 0
BBX 10 37 2 0
BITMAP
1E00
3F80
7180
6180
0780
0E00
0C00
0000
0000
0000
C0C0
C0C0
C0C0
C0C0
C0C0
C0C0
C0C0
C0C0
C0C0
C0C0
C0C0
C0C0
C0C0
C0C0
C0C0
C0C0
C0C0
C1C0
C180
C180
E180
6180
6180
6300
7300
3E00
1C00
ENDCHAR
STARTCHAR uni1EE8
ENCODING 7912
SWIDTH 426 0
DWIDTH 17 0
BBX 14 38 2 -1
BITMAP
0060
00E0
01C0
0388
0E1C
080C
C04C
C0FC
C0F8
C0E0
C060
C060
C060
E060
E060
E060
E060
E060
E060
E060
E060
E060
E060
E060
E060
6060
6060
6060
6060
7060
7060
3060
3060
3860
1860
1C60
0FC0
0780
ENDCHAR
STARTCHAR uni1EE9
ENCODING 7913
SWIDTH 407 0
DWIDTH 16 0
BBX 14 34 2 0
BITMAP
00C0
01C0
0788
0F1C
1C1C
101C
007C
C0F0
C0C0
C0C0
C0C0
C0C0
C0C0
C0C0
C0C0
C0C0
C0C0
C0C0
C0C0
C0C0
C0C0
C0C0
C0C0
C0C0
C1C0
C180
C180
E180
6180
6180
6300
7300
3E00
1C00
ENDCHAR
STARTCHAR uni1EEA
ENCODING 7914
SWIDTH 426 0
DWIDTH 17 0
BBX 14 36 2 -1
BITMAP
C000
F008
3C1C
060C
C04C
C0FC
C0F8
C0E0
C060
C060
C060
E060
E060
E060
E060
E060
E060
E060
E060
E060
E060
E060
E060
6060
6060
6060
6060
7060
7060
3060
3060
3860
1860
1C60
0FC0
0780
ENDCHAR
STARTCHAR uni1EEB
ENCODING 7915
SWIDTH 407 0
DWIDTH 16 0
BBX 16 32 0 0
BITMAP
C002
F007
3C07
0607
001F
303C
3030
3030
3030
3030
3030
3030
3030
3030
3030
3030
3030
3030
3030
3030
3030
3030
3070
3060
3060
3860
1860
1860
18C0
1CC0
0F80
0700
ENDCHAR
STARTCHAR uni1EEC
ENCODING 7916
SWIDTH 426 0
DWIDTH 17 0
BBX 14 40 2 -1
BITMAP
0E00
3F80
31C0
30C0
07C0
0708
0C1C
000C
C04C
C0FC
C0F8
C0E0
C060
C060
C060
E060
E060
E060
E060
E060
E060
E060
E060
E060
E060
E060
E060
6060
6060
6060
6060
7060
7060
3060
3060
3860
1860
1C60
0FC0
0780
ENDCHAR
STARTCHAR uni1EED
ENCODING 7917
SWIDTH 407 0
DWIDTH 16 0
BBX 14 36 2 0
BITMAP
1C00
7F00
E300
E380
0F08
1C1C
181C
001C
007C
C0F0
C0C0
C0C0
C0C0
C0C0
C0C0
C0C0
C0C0
C0C0
C0C0
C0C0
C0C0
C0C0
C0C0
C0C0
C0C0
C0C0
C1C0
C180
C180
E180
6180
6180
6300
7300
3E00
1C00
ENDCHAR
STARTCHAR uni1EEE
ENCODING 7918
SWIDTH 426 0
DWIDTH 17 0
BBX 14 36 2 -1
BITMAP
3080
7CC8
6FDC
678C
C04C
C0FC
C0F8
C0E0
C060
C060
C060
E060
E060
E060
E060
E060
E060
E060
E060
E060
E060
E060
E060
6060
6060
6060
6060
7060
7060
3060
3060
3860
1860
1C60
0FC0
0780
ENDCHAR
STARTCHAR uni1EEF
ENCODING 7919
SWIDTH 407 0
DWIDTH 16 0
BBX 15 32 1 0
BITMAP
3084
798E
CF8E
C70E
003E
6078
6060
6060
6060
6060
6060
6060
6060
6060
6060
6060
6060
6060
6060
6060
6060
6060
60E0
60C0
60C0
70C0
30C0
30C0
3180
3980
1F00
0E00
ENDCHAR
STARTCHAR uni1EF0
ENCODING 7920
SWIDTH 426 0
DWIDTH 17 0
BBX 14 41 2 -7
BITMAP
0008
001C
000C
C04C
C0FC
C0F8
C0E0
C060
C060
C060
E060
E060
E060
E060
E060
E060
E060
E060
E060
E060
E060
E060
6060
6060
6060
6060
7060
7060
3060
3060
3860
1860
1C60
0FC0
0780
0000
0000
0000
0600
0600
0600
ENDCHAR
STARTCHAR uni1EF1
ENCODING 7921
SWIDTH 407 0
DWIDTH 16 0
BBX 14 39 2 -7
BITMAP
0008
001C
001C
001C
007C
C0F0
C0C0
C0C0
C0C0
C0C0
C0C0
C0C0
C0C0
C0C0
C0C0
C0C0
C0C0
C0C0
C0C0
C0C0
C0C0
C0C0
C1C0
C180
C180
E180
6180
6180
6300
7300
3E00
1C00
0000
0000
0000
0000
1800
3800
1800
ENDCHAR
STARTCHAR Ygrave
ENCODING 7922
SWIDTH 265 0
DWIDTH 11 0
BBX 8 36 0 -1
BITMAP
C0
F0
3C
06
43
63
63
63
67
77
77
36
36
36
1E
1E
1E
1C
0C
0C
0C
0C
0C
0C
0C
0C
0C
0C
0C
0C
0C
0C
0C
0E
0E
0C
ENDCHAR
STARTCHAR ygrave
ENCODING 7923
SWIDTH 283 0
DWIDTH 11 0
BBX 9 33 0 -1
BITMAP
C000
F000
3C00
0600
0000
0080
6180
6180
6180
7380
3380
3300
3B00
1F00
1F00
0E00
0E00
0E00
0600
0600
0600
0600
0600
0600
0600
0600
0600
0600
0600
0600
0600
0600
0600
ENDCHAR
STARTCHAR uni1EF4
ENCODING 7924
SWIDTH 265 0
DWIDTH 11 0
BBX 7 38 1 -7
BITMAP
86
C6
C6
C6
CE
EE
EE
6C
6C
6C
3C
3C
3C
38
18
18
18
18
18
18
18
18
18
18
18
18
18
18
18
1C
1C
18
00
00
00
18
1C
18
ENDCHAR
STARTCHAR uni1EF5
ENCODING 7925
SWIDTH 283 0
DWIDTH 11 0
BBX 8 34 1 -7
BITMAP
01
C3
C3
C3
E7
67
66
76
3E
3E
1C
1C
1C
0C
0C
0C
0C
0C
0C
0C
0C
0C
0C
0C
0C
0C
0C
0C
00
00
00
0C
1C
0C
ENDCHAR
STARTCHAR uni1EF6
ENCODING 7926
SWIDTH 265 0
DWIDTH 11 0
BBX 9 40 1 -1
BITMAP
1C00
7F00
6380
6180
0780
0E00
1800
0000
8600
C600
C600
C600
CE00
EE00
EE00
6C00
6C00
6C00
3C00
3C00
3C00
3800
1800
1800
1800
1800
1800
1800
1800
1800
1800
1800
1800
1800
1800
1800
1800
1C00
1C00
1800
ENDCHAR
STARTCHAR uni1EF7
ENCODING 7927
SWIDTH 283 0
DWIDTH 11 0
BBX 9 37 1 -1
BITMAP
1E00
3F80
7180
6180
0780
0E00
0C00
0000
0000
0100
C300
C300
C300
E700
6700
6600
7600
3E00
3E00
1C00
1C00
1C00
0C00
0C00
0C00
0C00
0C00
0C00
0C00
0C00
0C00
0C00
0C00
0C00
0C00
0C00
0C00
ENDCHAR
STARTCHAR uni1EF8
ENCODING 7928
SWIDTH 265 0
DWIDTH 11 0
BBX 9 36 1 -1
BITMAP
6100
F980
DF80
CF00
8600
C600
C600
C600
CE00
EE00
EE00
6C00
6C00
6C00
3C00
3C00
3C00
3800
1800
1800
1800
1800
1800
1800
1800
1800
1800
1800
1800
1800
1800
1800
1800
1C00
1C00
1800
ENDCHAR
STARTCHAR uni1EF9
ENCODING 7929
SWIDTH 283 0
DWIDTH 11 0
BBX 9 33 1 -1
BITMAP
3080
F980
CF80
C700
0000
0100
C300
C300
C300
E700
6700
6600
7600
3E00
3E00
1C00
1C00
1C00
0C00
0C00
0C00
0C00
0C00
0C00
0C00
0C00
0C00
0C00
0C00
0C00
0C00
0C00
0C00
ENDCHAR
STARTCHAR endash
ENCODING 8211
SWIDTH 465 0
DWIDTH 19 0
BBX 13 2 3 13
BITMAP
FFE0
FFF8
ENDCHAR
STARTCHAR emdash
ENCODING 8212
SWIDTH 535 0
DWIDTH 21 0
BBX 18 2 2 13
BITMAP
FFFF00
FFFFC0
ENDCHAR
STARTCHAR quoteleft
ENCODING 8216
SWIDTH 298 0
DWIDTH 12 0
BBX 4 10 4 21
BITMAP
10
30
30
70
60
E0
E0
E0
C0
80
ENDCHAR
STARTCHAR quoteright
ENCODING 8217
SWIDTH 289 0
DWIDTH 12 0
BBX 4 9 4 22
BITMAP
30
30
70
70
60
E0
E0
C0
C0
ENDCHAR
STARTCHAR quotesinglbase
ENCODING 8218
SWIDTH 324 0
DWIDTH 13 0
BBX 4 10 5 -7
BITMAP
10
30
70
70
60
E0
E0
C0
C0
80
ENDCHAR
STARTCHAR quotedblleft
ENCODING 8220
SWIDTH 377 0
DWIDTH 15 0
BBX 9 9 3 22
BITMAP
1880
1180
3180
3380
7380
7300
6300
E700
C600
ENDCHAR
STARTCHAR quotedblright
ENCODING 8221
SWIDTH 386 0
DWIDTH 15 0
BBX 10 10 3 21
BITMAP
10C0
31C0
3180
3380
7380
7380
6300
6300
C200
C600
ENDCHAR
STARTCHAR quotedblbase
ENCODING 8222
SWIDTH 386 0
DWIDTH 15 0
BBX 10 10 2 -7
BITMAP
10C0
31C0
31C0
7180
7380
7380
6300
E300
C200
8200
ENDCHAR
STARTCHAR dagger
ENCODING 8224
SWIDTH 333 0
DWIDTH 13 0
BBX 11 21 1 -2
BITMAP
0C00
0C00
0C00
0C00
0C00
FFE0
FFE0
0E00
0E00
0E00
0E00
0E00
0E00
0E00
0E00
0E00
0E00
0600
0600
0600
0600
ENDCHAR
STARTCHAR daggerdbl
ENCODING 8225
SWIDTH 364 0
DWIDTH 15 0
BBX 11 21 2 -2
BITMAP
0C00
0C00
0C00
0C00
0C00
FFC0
FFE0
0C00
0C00
0C00
0C00
0C00
0C00
0E00
FFE0
7FE0
0C00
0E00
0E00
0E00
0E00
ENDCHAR
STARTCHAR bullet
ENCODING 8226
SWIDTH 368 0
DWIDTH 15 0
BBX 8 10 3 10
BITMAP
1C
3F
7F
FF
FF
FF
FF
FF
7E
3C
ENDCHAR
STARTCHAR ellipsis
ENCODING 8230
SWIDTH 526 0
DWIDTH 21 0
BBX 15 3 3 0
BITMAP
630C
E38E
638C
ENDCHAR
STARTCHAR perthousand
ENCODING 8240
SWIDTH 811 0
DWIDTH 32 0
BBX 29 31 1 0
BITMAP
1C040000
3E0E0000
660C0000
630C0000
630C0000
631C0000
631C0000
C31C0000
C3180000
C3380000
43380000
63380000
63300000
63700000
67700000
3E7180C0
1C63E1F0
00E66338
00E67318
00CC3318
00CC3318
01CC3318
01CC3318
018C3218
018C3218
038C3318
038C3318
03866318
03066330
0307E1F0
000380E0
ENDCHAR
STARTCHAR guilsinglleft
ENCODING 8249
SWIDTH 368 0
DWIDTH 15 0
BBX 9 29 3 -1
BITMAP
0600
0600
0600
0E00
0C00
0C00
1800
1800
3000
3000
7000
6000
6000
C000
C000
C000
6000
6000
7000
3000
3800
1800
1C00
0C00
0E00
0600
0700
0380
0100
ENDCHAR
STARTCHAR guilsinglright
ENCODING 8250
SWIDTH 368 0
DWIDTH 15 0
BBX 9 29 3 -1
BITMAP
6000
7000
3000
3000
3000
1800
1800
0C00
0C00
0600
0600
0200
0300
0300
0380
0300
0700
0600
0600
0C00
0C00
1800
1800
3000
3000
6000
6000
C000
C000
ENDCHAR
STARTCHAR fraction
ENCODING 8260
SWIDTH 359 0
DWIDTH 14 0
BBX 9 31 3 0
BITMAP
0180
0180
0300
0300
0300
0300
0600
0600
0600
0600
0E00
0C00
0C00
1C00
1C00
1800
1800
3800
3800
3000
3000
7000
7000
7000
6000
6000
E000
E000
E000
C000
C000
ENDCHAR
STARTCHAR colonmonetary
ENCODING 8353
SWIDTH 337 0
DWIDTH 13 0
BBX 12 35 2 -4
BITMAP
0F00
3F80
7180
E1B0
E1A0
C120
C320
C360
C360
C240
C640
C6C0
C6C0
C480
CC80
CD80
CD80
C900
C900
DB00
DB00
D200
D200
F600
F600
6400
6400
7C40
7CE0
5FC0
4F80
D800
9000
1000
1000
ENDCHAR
STARTCHAR franc
ENCODING 8355
SWIDTH 265 0
DWIDTH 11 0
BBX 6 31 2 0
BITMAP
7C
F8
E0
E0
60
60
60
60
60
60
60
60
60
7C
7C
60
60
60
60
60
60
7C
F8
70
70
70
70
70
70
70
30
ENDCHAR
STARTCHAR lira
ENCODING 8356
SWIDTH 397 0
DWIDTH 16 0
BBX 14 32 2 1
BITMAP
0C00
1E00
3300
3300
3180
2080
6000
6000
6000
6000
2000
2000
3000
7F80
FE00
3000
1000
1800
1800
7F80
7C00
0C00
0C00
0C00
0C00
0C00
0C00
0C00
0C00
1C00
7FFC
71F8
ENDCHAR
STARTCHAR uni20A6
ENCODING 8358
SWIDTH 412 0
DWIDTH 16 0
BBX 16 32 0 0
BITMAP
000C
100C
380C
380C
380C
3C0C
3C0C
3C0C
360C
360C
360C
330C
330C
330C
3308
3188
7FFF
FFFF
3098
30D8
30D8
30D8
3058
3078
1078
1038
1838
1838
1818
1818
1818
3808
ENDCHAR
STARTCHAR peseta
ENCODING 8359
SWIDTH 288 0
DWIDTH 12 0
BBX 12 31 0 0
BITMAP
3C00
3E00
3700
3380
3180
10C0
10C0
3FF0
FFF0
7FC0
1980
1980
1B80
1B00
1E00
1E00
1800
1800
1800
1800
1800
1800
1800
1800
1800
1800
1800
1800
1800
1800
1800
ENDCHAR
STARTCHAR uni20A9
ENCODING 8361
SWIDTH 494 0
DWIDTH 20 0
BBX 18 32 1 -1
BITMAP
400380
E00300
E00300
600300
618300
618300
718300
718300
738300
738300
338700
33C700
3FFFC0
FFFFC0
3BC600
3BE600
1BE600
1B6600
1E6C00
1E7C00
1E7C00
1E7C00
1E7C00
1E3C00
0E3C00
0E3C00
0E3800
0E3800
0E1800
0E1800
0E1800
0C0800
ENDCHAR
STARTCHAR uni20AA
ENCODING 8362
SWIDTH 387 0
DWIDTH 15 0
BBX 14 28 1 -1
BITMAP
FF0C
FFDC
EFDC
E1DC
E0D8
E0D8
ECD8
ECD8
ECD8
ECD8
ECDC
ECDC
ECDC
ECDC
ECDC
ECDC
ECDC
ECDC
ECDC
ECDC
EEDC
EEDC
EE1C
EE1C
E618
E738
63F8
01E0
ENDCHAR
STARTCHAR dong
ENCODING 8363
SWIDTH 368 0
DWIDTH 15 0
BBX 12 30 1 1
BITMAP
0300
0380
0380
0380
0380
0FE0
1FF0
0380
0380
0380
0380
0F80
1F80
3B00
3300
3300
3300
3300
3300
3300
3300
3300
3B00
1F80
0F00
0000
0000
0000
FFE0
7FE0
ENDCHAR
STARTCHAR Euro
ENCODING 8364
SWIDTH 429 0
DWIDTH 17 0
BBX 13 31 2 0
BITMAP
07C0
0FE0
1800
3800
3000
3000
3000
3000
3000
3000
3000
3000
3000
FF00
FE00
3000
FF00
FE00
3000
3000
3000
3000
3000
3800
3800
1800
1800
1808
0E38
0FF0
03E0
ENDCHAR
STARTCHAR uni20AD
ENCODING 8365
SWIDTH 356 0
DWIDTH 14 0
BBX 12 33 1 -1
BITMAP
0040
2060
70E0
70C0
71C0
3180
3380
3300
3300
3600
3600
3E00
3C00
3F00
FF80
FE00
3200
3300
3100
3100
3180
3180
3080
30C0
30C0
70C0
7060
7060
7060
7060
7070
3030
0030
ENDCHAR
STARTCHAR uni20AE
ENCODING 8366
SWIDTH 262 0
DWIDTH 10 0
BBX 10 31 0 0
BITMAP
7F80
FF00
0C00
0C00
0C00
0C00
0C00
0C00
0DC0
0F80
0E00
3C00
6C00
CDC0
0F00
1E00
3C00
EC00
0C00
0C00
0C00
0C00
0C00
0C00
0C00
0C00
0C00
0E00
0E00
0E00
0400
ENDCHAR
STARTCHAR uni20B1
ENCODING 8369
SWIDTH 288 0
DWIDTH 12 0
BBX 11 31 0 0
BITMAP
3C00
3E00
3700
3380
3180
7FE0
FFC0
10C0
10C0
3FC0
FFE0
7F80
1980
1B00
1F00
1E00
1C00
1800
1800
1800
1800
1800
1800
1800
1800
1800
1800
1800
1800
1800
1800
ENDCHAR
STARTCHAR uni20B2
ENCODING 8370
SWIDTH 371 0
DWIDTH 15 0
BBX 12 32 2 -1
BITMAP
0F00
1F00
3C00
7C00
6C00
6C00
EC00
EC00
CC00
CC00
CC00
CC00
CC00
CC00
CC00
CC00
CC00
CC00
CC00
CC00
CC00
CC00
CDE0
CFE0
CC60
CC60
6C20
6C30
6C30
3C70
1FF0
0FB0
ENDCHAR
STARTCHAR uni20B4
ENCODING 8372
SWIDTH 378 0
DWIDTH 15 0
BBX 11 31 2 -1
BITMAP
0E00
3F00
7180
6180
6180
4180
0180
0380
0300
0300
0600
0600
FF80
7FC0
1C00
1800
FF80
FF00
3000
6000
6000
6000
6040
6060
6060
60E0
60C0
61C0
71C0
3F80
0F00
ENDCHAR
STARTCHAR uni20B5
ENCODING 8373
SWIDTH 337 0
DWIDTH 13 0
BBX 11 32 2 -1
BITMAP
0F00
3F80
7D80
EC00
CC00
CC00
CC00
CC00
CC00
CC00
CC00
CC00
CC00
CC00
CC00
CC00
CC00
CC00
CC00
CC00
CC00
CC00
CC00
CC00
EC00
6C00
6C00
7C40
3DE0
1FC0
0F80
0C00
ENDCHAR
STARTCHAR uni20B8
ENCODING 8376
SWIDTH 261 0
DWIDTH 10 0
BBX 9 31 0 0
BITMAP
7F00
FF80
7E00
0000
7F80
FF80
0C00
0C00
0C00
0C00
0C00
0C00
0C00
0C00
0C00
0C00
0C00
0C00
0C00
0C00
0C00
0C00
0400
0C00
0C00
0C00
0E00
0E00
0E00
0E00
0400
ENDCHAR
STARTCHAR uni20B9
ENCODING 8377
SWIDTH 306 0
DWIDTH 12 0
BBX 12 31 -1 0
BITMAP
0020
FFF0
FFC0
0180
0180
0180
7FF0
7FE0
0180
0180
0180
0380
0700
0F00
0700
0700
0300
0300
0100
0180
0180
0180
0080
00C0
00C0
0040
0060
0060
0060
0070
0070
ENDCHAR
STARTCHAR uni20BA
ENCODING 8378
SWIDTH 368 0
DWIDTH 15 0
BBX 14 31 0 0
BITMAP
1800
1800
1800
1800
1800
1800
1800
1800
1800
1800
1800
1860
19F0
1FC0
3E00
F800
19F0
1FE0
1F00
FC00
7800
1800
1C00
1C00
0C00
0C00
0E00
060C
07BC
03F8
01F0
ENDCHAR
STARTCHAR uni20BC
ENCODING 8380
SWIDTH 401 0
DWIDTH 16 0
BBX 11 32 3 -1
BITMAP
3800
7E00
DF00
DB00
DB80
D980
D980
D9C0
D8C0
D8C0
D8C0
D8C0
D8C0
D8E0
D8E0
D8E0
D8E0
D8E0
D8E0
D8E0
D8E0
D8E0
D8E0
D8E0
D860
D860
D860
F860
F860
E860
4860
0800
ENDCHAR
STARTCHAR uni20BD
ENCODING 8381
SWIDTH 288 0
DWIDTH 12 0
BBX 10 31 0 0
BITMAP
3C00
3E00
3700
3380
3180
11C0
10C0
10C0
10C0
10C0
1980
1980
1980
1B00
1F00
1E00
F800
1800
1800
1800
1800
1800
7F80
FF00
1800
1800
1800
1800
1800
1800
1800
ENDCHAR
STARTCHAR uni2113
ENCODING 8467
SWIDTH 334 0
DWIDTH 13 0
BBX 7 28 4 -1
BITMAP
40
C0
C0
C0
C0
C0
C0
C0
C0
C0
C0
C0
C0
C0
C0
C0
C0
C0
C0
C0
C0
C0
C0
C0
C0
FC
FE
04
ENDCHAR
STARTCHAR uni2116
ENCODING 8470
SWIDTH 704 0
DWIDTH 28 0
BBX 25 32 2 0
BITMAP
00300000
40307800
E0307E00
E0306600
E0306600
F030E300
F030E300
F030C300
D830C300
D830C300
D830E300
D8306300
CC306300
CC206600
CC206600
C6203E00
C6201800
C6200000
C6603F00
C360FF80
C360FE00
C3600000
C1600000
C1600000
41E00000
41E00000
60E00000
60E00000
60E00000
60600000
60600000
E0200000
ENDCHAR
STARTCHAR trademark
ENCODING 8482
SWIDTH 536 0
DWIDTH 21 0
BBX 18 20 0 12
BITMAP
0020C0
7FF0C0
FFF0C0
0C71C0
0C71C0
0C71C0
0C79C0
0C7BC0
0C7BC0
0C7BC0
0C7FC0
0C7EC0
0C6EC0
0C6EC0
0C6EC0
0C64C0
0C60C0
0CE0C0
0CE0C0
0C40C0
ENDCHAR
STARTCHAR estimated
ENCODING 8494
SWIDTH 446 0
DWIDTH 18 0
BBX 13 28 2 -1
BITMAP
07C0
0FE0
1C70
3838
3018
7018
6018
6018
6018
6018
E018
E018
E038
E030
FFF0
FFC0
E000
E000
E000
6000
6000
6000
6000
7000
3018
3878
1FE0
0780
ENDCHAR
STARTCHAR partialdiff
ENCODING 8706
SWIDTH 332 0
DWIDTH 13 0
BBX 7 32 3 -1
BITMAP
60
70
18
18
0C
0C
0C
0C
06
06
06
06
06
1E
36
26
66
66
66
C6
C6
C6
C6
C6
C6
C6
C6
CE
CC
CC
CC
78
ENDCHAR
STARTCHAR emptyset
ENCODING 8709
SWIDTH 584 0
DWIDTH 23 0
BBX 22 25 0 2
BITMAP
00F800
03FE00
070300
060180
0C00C4
0C00CC
180078
180070
1801E0
1803E0
180720
181C30
183830
186030
19C030
1B8030
1E0020
1C0060
380060
EC0060
CC00C0
0600C0
070380
01FF00
00FC00
ENDCHAR
STARTCHAR product
ENCODING 8719
SWIDTH 361 0
DWIDTH 14 0
BBX 8 31 3 0
BITMAP
FE
FF
C3
C3
C3
C3
C3
C3
C3
C3
C3
C3
C3
C3
C3
C3
C3
C3
C3
C3
E3
63
63
63
63
63
63
63
63
63
63
ENDCHAR
STARTCHAR summation
ENCODING 8721
SWIDTH 392 0
DWIDTH 16 0
BBX 13 31 1 -1
BITMAP
7FF8
7FF8
3000
3000
1800
1800
0C00
0600
0600
0300
0300
0180
00C0
00E0
0060
0060
00E0
00C0
0180
0380
0300
0600
0C00
1C00
1800
3000
6000
6000
F800
7FF0
01F0
ENDCHAR
STARTCHAR minus
ENCODING 8722
SWIDTH 439 0
DWIDTH 18 0
BBX 11 2 3 12
BITMAP
FFE0
FFE0
ENDCHAR
STARTCHAR uni2215
ENCODING 8725
SWIDTH 293 0
DWIDTH 12 0
BBX 8 31 3 -1
BITMAP
01
03
03
02
06
06
06
06
0C
0C
0C
0C
18
18
18
18
10
30
30
30
30
60
60
60
60
C0
C0
C0
C0
80
80
ENDCHAR
STARTCHAR uni2219
ENCODING 8729
SWIDTH 293 0
DWIDTH 12 0
BBX 2 2 4 12
BITMAP
C0
C0
ENDCHAR
STARTCHAR radical
ENCODING 8730
SWIDTH 391 0
DWIDTH 16 0
BBX 10 27 3 -1
BITMAP
00C0
00C0
00C0
0080
0180
0180
0180
0180
0100
0300
0300
0300
0300
0200
0600
C600
C600
6600
6400
6400
6C00
3C00
3C00
3C00
3800
1800
1800
ENDCHAR
STARTCHAR infinity
ENCODING 8734
SWIDTH 666 0
DWIDTH 27 0
BBX 25 5 1 12
BITMAP
7F80FE00
80FF8180
803E0080
83E3C180
7E003F00
ENDCHAR
STARTCHAR integral
ENCODING 8747
SWIDTH 293 0
DWIDTH 12 0
BBX 13 36 -1 -4
BITMAP
00F8
01F8
03E0
0380
0300
0300
0300
0300
0300
0300
0300
0700
0700
0700
0700
0700
0700
0700
0700
0700
0600
0600
0600
0600
0600
0600
0600
0600
0600
0600
0600
0600
0E00
3C00
FC00
F000
ENDCHAR
STARTCHAR approxequal
ENCODING 8776
SWIDTH 386 0
DWIDTH 15 0
BBX 9 9 3 12
BITMAP
2100
7980
DD80
CF80
8200
2100
7980
CD80
C700
ENDCHAR
STARTCHAR notequal
ENCODING 8800
SWIDTH 431 0
DWIDTH 17 0
BBX 11 13 3 7
BITMAP
0100
0200
0200
FFC0
FFE0
0400
0800
FFC0
FFE0
0800
1000
1000
1000
ENDCHAR
STARTCHAR lessequal
ENCODING 8804
SWIDTH 293 0
DWIDTH 12 0
BBX 8 24 2 0
BITMAP
0C
0C
18
18
30
30
60
60
C0
C0
C0
C0
60
60
30
18
18
0C
06
06
00
00
00
FF
ENDCHAR
STARTCHAR greaterequal
ENCODING 8805
SWIDTH 293 0
DWIDTH 12 0
BBX 8 24 2 0
BITMAP
60
30
30
18
18
1C
0C
0E
06
07
03
07
06
0C
1C
18
30
60
60
C0
00
00
00
FF
ENDCHAR
STARTCHAR lozenge
ENCODING 9674
SWIDTH 348 0
DWIDTH 14 0
BBX 10 28 2 -1
BITMAP
0C00
0C00
1E00
1E00
3600
3600
3200
3300
3300
6300
6180
6180
6180
C0C0
C180
4180
6180
6100
6300
2300
3300
3300
3600
1600
1E00
1E00
1C00
0C00
ENDCHAR
STARTCHAR fi
ENCODING 64257
SWIDTH 473 0
DWIDTH 19 0
BBX 16 27 2 0
BITMAP
7C3E
7F7E
6418
6018
6018
6018
6018
6018
6018
6018
6018
E018
F818
F818
C018
C018
C018
C018
C018
C018
C018
C01C
C01C
C01C
C01C
C07F
C07F
ENDCHAR
STARTCHAR fl
ENCODING 64258
SWIDTH 515 0
DWIDTH 21 0
BBX 18 28 2 -1
BITMAP
7C1800
7F1800
641800
601800
601800
601800
601800
601800
601800
601800
601800
E01800
F81800
F81800
C01800
C01800
C01800
C01800
C01800
C01800
C03800
C03800
C03800
C03800
C03800
C03F00
C03FC0
001980
ENDCHAR
STARTCHAR uniFB2A
ENCODING 64298
SWIDTH 377 0
DWIDTH 15 0
BBX 11 31 2 0
BITMAP
0060
0060
0000
0000
0000
C660
C660
C660
C660
C660
C660
C660
C660
C460
C460
C460
C460
C460
CC60
CC60
D860
F060
C060
C0E0
E0E0
E0C0
60C0
61C0
71C0
3F80
1F00
ENDCHAR
STARTCHAR uniFB2B
ENCODING 64299
SWIDTH 377 0
DWIDTH 15 0
BBX 11 31 2 0
BITMAP
C000
C000
0000
0000
0000
C660
C660
C660
C660
C660
C660
C660
C660
C460
C460
C460
C460
C460
CC60
CC60
D860
F060
C060
C0E0
E0E0
E0C0
60C0
61C0
71C0
3F80
1F00
ENDCHAR
STARTCHAR uniFB2C
ENCODING 64300
SWIDTH 377 0
DWIDTH 15 0
BBX 11 31 2 0
BITMAP
0060
0060
0000
0000
0000
C660
C660
C660
C660
C660
C660
C660
C660
C460
C460
C460
C460
C460
CC60
CC60
D860
F060
C060
C4E0
E6E0
E0C0
60C0
61C0
71C0
3F80
1F00
ENDCHAR
STARTCHAR uniFB2D
ENCODING 64301
SWIDTH 377 0
DWIDTH 15 0
BBX 11 31 2 0
BITMAP
C000
C000
0000
0000
0000
C660
C660
C660
C660
C660
C660
C660
C660
C460
C460
C460
C460
C460
CC60
CC60
D860
F060
C060
C4E0
E6E0
E0C0
60C0
61C0
71C0
3F80
1F00
ENDCHAR
STARTCHAR uniFB2E
ENCODING 64302
SWIDTH 343 0
DWIDTH 14 0
BBX 11 29 1 -3
BITMAP
6060
70C0
30C0
30C0
30C0
18C0
18C0
18C0
1C80
1C80
1F80
1F80
1780
3780
3380
3380
3380
7180
6180
61C0
60C0
60C0
60E0
E060
E060
C060
0000
0000
0F00
ENDCHAR
STARTCHAR uniFB2F
ENCODING 64303
SWIDTH 343 0
DWIDTH 14 0
BBX 11 31 1 -5
BITMAP
6060
70C0
30C0
30C0
30C0
18C0
18C0
18C0
1C80
1C80
1F80
1F80
1780
3780
3380
3380
3380
7180
6180
61C0
60C0
60C0
60E0
E060
E060
C060
0000
0000
0F00
0400
0400
ENDCHAR
STARTCHAR uniFB30
ENCODING 64304
SWIDTH 343 0
DWIDTH 14 0
BBX 11 26 1 0
BITMAP
6060
70C0
30C0
30C0
30C0
18C0
18C0
18C0
1C80
1C80
1F80
1F80
1780
3780
3380
3380
3380
7180
6180
65C0
64C0
60C0
60E0
E060
E060
C060
ENDCHAR
STARTCHAR uniFB31
ENCODING 64305
SWIDTH 320 0
DWIDTH 13 0
BBX 10 26 1 0
BITMAP
F000
7C00
0E00
0600
0600
0200
0300
0300
0300
3300
3300
0300
0300
0300
0300
0300
0300
0300
0300
0300
0300
0300
0300
0300
7F00
7FC0
ENDCHAR
STARTCHAR uniFB32
ENCODING 64306
SWIDTH 268 0
DWIDTH 11 0
BBX 7 26 2 0
BITMAP
70
F8
18
0C
0C
0C
0C
4C
4C
0C
0C
0C
0C
0C
0C
0C
3C
7C
6E
C6
C6
C6
C6
C6
C6
C6
ENDCHAR
STARTCHAR uniFB33
ENCODING 64307
SWIDTH 293 0
DWIDTH 12 0
BBX 9 26 1 0
BITMAP
FF80
3F80
0600
0600
0600
0600
0600
0600
0200
2300
6300
0300
0300
0300
0300
0300
0300
0300
0300
0300
0300
0300
0300
0300
0380
0300
ENDCHAR
STARTCHAR uniFB34
ENCODING 64308
SWIDTH 301 0
DWIDTH 12 0
BBX 8 26 2 0
BITMAP
FE
FE
06
06
06
06
C6
C6
C6
D6
D6
C6
C6
C6
C6
C6
C6
C6
C6
C2
C3
C3
C3
C3
C7
C2
ENDCHAR
STARTCHAR uniFB35
ENCODING 64309
SWIDTH 257 0
DWIDTH 10 0
BBX 6 26 2 0
BITMAP
F8
78
18
18
18
1C
1C
1C
1C
8C
8C
0C
0C
0C
0C
0C
0C
0C
0C
0C
0C
0C
0C
0C
0C
0C
ENDCHAR
STARTCHAR uniFB36
ENCODING 64310
SWIDTH 273 0
DWIDTH 11 0
BBX 8 26 1 0
BITMAP
7F
3F
08
18
18
18
18
18
18
D8
D8
18
18
18
18
18
18
18
18
18
18
18
1C
1C
0C
0C
ENDCHAR
STARTCHAR uniFB38
ENCODING 64312
SWIDTH 327 0
DWIDTH 13 0
BBX 9 26 2 0
BITMAP
CF00
CF80
C180
C180
C180
C180
C180
C180
C180
C980
C980
C180
C180
C180
C180
C180
C180
C180
E100
6300
6300
6300
6300
6300
3E00
1C00
ENDCHAR
STARTCHAR uniFB39
ENCODING 64313
SWIDTH 260 0
DWIDTH 10 0
BBX 6 18 2 8
BITMAP
F8
FC
1C
0C
0C
8C
CC
0C
0C
0C
0C
0C
0C
0C
0C
0C
0C
0C
ENDCHAR
STARTCHAR uniFB3A
ENCODING 64314
SWIDTH 318 0
DWIDTH 13 0
BBX 9 32 2 -6
BITMAP
FF00
7F80
0300
0300
0300
0300
0300
0300
0300
2300
3300
0300
0300
0300
0300
0300
0300
0300
0300
0300
0380
0380
0380
0380
0380
0380
0380
0380
0380
0380
0380
0180
ENDCHAR
STARTCHAR uniFB3B
ENCODING 64315
SWIDTH 340 0
DWIDTH 14 0
BBX 11 26 1 0
BITMAP
7C00
FE00
0300
0180
01C0
00C0
00C0
00E0
00E0
10E0
18E0
00E0
00E0
00E0
00E0
00E0
00E0
00E0
00E0
00C0
00C0
0180
0180
0300
FE00
7800
ENDCHAR
STARTCHAR uniFB3C
ENCODING 64316
SWIDTH 311 0
DWIDTH 12 0
BBX 9 33 1 0
BITMAP
4000
6000
E000
6000
6000
6000
6000
7F80
3F80
0180
0180
1180
3180
0180
0180
0380
0300
0300
0700
0600
0E00
0E00
0C00
0C00
1C00
1800
1800
3800
3000
3000
3000
3E00
1E00
ENDCHAR
STARTCHAR uniFB3E
ENCODING 64318
SWIDTH 335 0
DWIDTH 13 0
BBX 9 27 2 -1
BITMAP
7F00
7F80
0B80
1980
1980
1980
1980
1980
1180
3180
3180
3180
3180
3180
3180
2180
6180
6180
6180
6980
6D80
E180
E180
C180
CF80
CF80
C000
ENDCHAR
STARTCHAR uniFB40
ENCODING 64320
SWIDTH 254 0
DWIDTH 10 0
BBX 7 26 1 0
BITMAP
3C
7E
0E
0E
0E
0E
0E
0E
0E
46
46
06
06
06
06
06
06
06
06
06
06
06
0E
1C
78
F0
ENDCHAR
STARTCHAR uniFB41
ENCODING 64321
SWIDTH 327 0
DWIDTH 13 0
BBX 10 26 1 0
BITMAP
FF80
7FC0
30C0
30C0
30C0
30C0
30C0
30C0
30C0
34C0
36C0
30C0
30C0
30C0
30C0
30C0
30C0
30C0
30C0
3080
3080
3080
1180
1980
1F80
0700
ENDCHAR
STARTCHAR uniFB43
ENCODING 64323
SWIDTH 342 0
DWIDTH 14 0
BBX 10 32 2 -6
BITMAP
1C00
7F00
6300
E380
C180
C980
C980
C180
C180
C180
C180
C180
E180
7180
3980
0180
0180
0180
0180
0180
0180
0180
0180
0180
0180
0180
0180
0180
0180
0180
01C0
0180
ENDCHAR
STARTCHAR uniFB44
ENCODING 64324
SWIDTH 344 0
DWIDTH 14 0
BBX 9 26 2 0
BITMAP
7800
7E00
4300
C300
C180
C980
C980
C180
C180
C180
E180
6180
7180
6180
0180
0180
0180
0180
0180
0180
0180
0180
0300
8300
FE00
7C00
ENDCHAR
STARTCHAR uniFB46
ENCODING 64326
SWIDTH 282 0
DWIDTH 11 0
BBX 8 26 2 0
BITMAP
C2
C7
C7
66
6E
6C
6C
38
38
38
30
30
18
18
18
18
18
08
08
48
4C
0C
0C
0C
FC
FC
ENDCHAR
STARTCHAR uniFB47
ENCODING 64327
SWIDTH 327 0
DWIDTH 13 0
BBX 9 32 2 -6
BITMAP
FE00
7F80
0180
0980
0D80
0180
6180
E180
6180
6180
6180
6180
6180
6180
6100
6300
6300
6300
6600
6600
6600
6C00
6C00
6C00
6C00
4E00
6400
E000
E000
E000
E000
4000
ENDCHAR
STARTCHAR uniFB48
ENCODING 64328
SWIDTH 317 0
DWIDTH 13 0
BBX 8 26 2 0
BITMAP
F0
FC
06
06
03
03
03
03
03
23
23
03
03
03
03
03
03
03
03
03
03
03
03
03
03
03
ENDCHAR
STARTCHAR uniFB49
ENCODING 64329
SWIDTH 377 0
DWIDTH 15 0
BBX 11 26 2 0
BITMAP
C660
C660
C660
C660
C660
C660
C660
C660
C460
C460
C460
C460
C460
CC60
CC60
D860
F060
C060
C4E0
E6E0
E0C0
60C0
61C0
71C0
3F80
1F00
ENDCHAR
STARTCHAR uniFB4A
ENCODING 64330
SWIDTH 360 0
DWIDTH 14 0
BBX 11 26 1 0
BITMAP
7FE0
3FE0
1860
1860
1860
1860
1860
1860
1860
1960
1B60
1860
1860
1860
1860
1860
1860
1860
1860
1860
1860
1860
1860
3860
7060
E060
ENDCHAR
STARTCHAR uniFB4B
ENCODING 64331
SWIDTH 257 0
DWIDTH 10 0
BBX 7 31 1 0
BITMAP
80
C0
00
00
00
7C
3C
0C
0C
0C
0E
0E
0E
0E
06
06
06
06
06
06
06
06
06
06
06
06
06
06
06
06
06
ENDCHAR
STARTCHAR .notdef
ENCODING -1
SWIDTH 365 0
DWIDTH 15 0
BBX 11 27 1 0
BITMAP
FFE0
C020
C020
C020
C020
C020
C020
C020
C020
C020
C020
C020
C020
C020
C020
C020
C020
C020
C020
C020
C020
C020
C020
C020
C020
C020
FFE0
ENDCHAR
STARTCHAR i.loclTRK
ENCODING -1
SWIDTH 226 0
DWIDTH 9 0
BBX 7 32 1 0
BITMAP
30
38
30
00
00
7C
FC
30
30
30
30
30
30
30
30
30
30
30
30
30
30
30
30
30
38
38
38
18
18
18
FE
FE
ENDCHAR
STARTCHAR e_e
ENCODING -1
SWIDTH 568 0
DWIDTH 23 0
BBX 18 28 3 -1
BITMAP
F00F00
FC1FC0
FC1B80
C01800
C01800
C01800
C01800
C01800
C01800
C01800
C01800
F81F00
F81F80
C01800
C01800
C01800
C01800
C01800
C01800
C01800
C01800
C01800
C01800
C01800
C01800
C01800
FC1F80
FC1FC0
ENDCHAR
STARTCHAR f_f
ENCODING -1
SWIDTH 494 0
DWIDTH 20 0
BBX 17 27 2 0
BITMAP
7C1F00
7F1F80
641900
601800
601800
601800
601800
601800
603800
603800
603800
E03800
F83E00
F83E00
C03000
C03000
C03000
C03000
C03000
C03000
C03000
C03000
C03000
C03000
C03000
C03000
C03000
ENDCHAR
STARTCHAR f_f_i
ENCODING -1
SWIDTH 720 0
DWIDTH 29 0
BBX 26 27 2 0
BITMAP
7C1F0F80
7F1F9F00
64190400
60180400
60180400
60180400
60180600
60180600
60380600
60380600
60380600
E0380600
F83E0600
F83E0600
C0300600
C0300600
C0300600
C0300600
C0300600
C0300600
C0300600
C0300600
C0300600
C0300600
C0300600
C0301FC0
C0301FC0
ENDCHAR
STARTCHAR f_f_l
ENCODING -1
SWIDTH 762 0
DWIDTH 30 0
BBX 28 28 2 -1
BITMAP
7C1F0600
7F1F8600
64190600
60180600
60180600
60180600
60180600
60180600
60380600
60380600
60380600
E0380600
F83E0600
F83E0600
C0300600
C0300600
C0300600
C0300600
C0300E00
C0300E00
C0300C00
C0300C00
C0300C00
C0300C00
C0300E00
C0300FC0
C0300FF0
00000460
ENDCHAR
STARTCHAR l_l
ENCODING -1
SWIDTH 536 0
DWIDTH 21 0
BBX 18 28 3 -1
BITMAP
C01800
C01800
C01800
C01800
C01800
C01800
C01800
C01800
C01800
C01800
C01800
C01800
C01800
C01800
C01800
C01800
C01800
C03800
C03800
C03000
C03000
C03000
C03000
C03000
C03800
FC3F00
FE3FC0
C61180
ENDCHAR
STARTCHAR m_m
ENCODING -1
SWIDTH 1122 0
DWIDTH 45 0
BBX 40 29 2 -2
BITMAP
200180C006
700380C006
300380E00E
380380E00E
780780E00E
780780F01E
6C0780F01F
6C0F80F01F
6C0D80D81F
660D80D837
660D80D837
661D80CC37
671981CC37
631981CC77
6319818E67
6339818667
63B1818667
61B18186E3
61B1C187C3
61F1C187C3
61E1C183C3
E1E1818383
E1E1818383
E0C1818383
E0C1818103
E001C18003
E001C18003
6001C18003
0001C00003
ENDCHAR
STARTCHAR zero.zero
ENCODING -1
SWIDTH 321 0
DWIDTH 13 0
BBX 9 31 2 0
BITMAP
7800
5C00
CC00
C600
C600
C200
C300
C300
C300
C300
C100
C100
C180
C180
DD80
DD80
DD80
C180
C180
C180
C180
C180
E180
6180
6180
6180
6300
2300
3300
3E00
1C00
ENDCHAR
STARTCHAR periodcentered.loclCAT
ENCODING -1
SWIDTH 289 0
DWIDTH 12 0
BBX 3 3 4 13
BITMAP
60
E0
60
ENDCHAR
STARTCHAR uni0308.case
ENCODING -1
SWIDTH 0 0
DWIDTH 0 0
BBX 9 3 -12 27
BITMAP
E180
E380
E180
ENDCHAR
STARTCHAR uni0307.case
ENCODING -1
SWIDTH 0 0
DWIDTH 0 0
BBX 3 3 -9 27
BITMAP
C0
E0
C0
ENDCHAR
STARTCHAR gravecomb.case
ENCODING -1
SWIDTH 0 0
DWIDTH 0 0
BBX 8 4 -10 27
BITMAP
C0
F0
3C
07
ENDCHAR
STARTCHAR acutecomb.case
ENCODING -1
SWIDTH 0 0
DWIDTH 0 0
BBX 7 6 -10 26
BITMAP
06
0E
1E
38
60
C0
ENDCHAR
STARTCHAR uni030B.case
ENCODING -1
SWIDTH 0 0
DWIDTH 0 0
BBX 14 9 -15 26
BITMAP
0408
061C
0C38
1C70
18E0
31C0
6380
4300
8400
ENDCHAR
STARTCHAR uni0302.case
ENCODING -1
SWIDTH 0 0
DWIDTH 0 0
BBX 7 8 -10 27
BITMAP
18
38
38
6C
6C
C4
C6
44
ENDCHAR
STARTCHAR uni030C.case
ENCODING -1
SWIDTH 0 0
DWIDTH 0 0
BBX 6 8 -10 26
BITMAP
8C
CC
C8
68
78
78
30
10
ENDCHAR
STARTCHAR uni0306.case
ENCODING -1
SWIDTH 0 0
DWIDTH 0 0
BBX 7 6 -10 27
BITMAP
42
C6
66
66
7C
3C
ENDCHAR
STARTCHAR uni030A.case
ENCODING -1
SWIDTH 0 0
DWIDTH 0 0
BBX 7 8 -12 26
BITMAP
38
7C
C6
C2
82
C6
7C
78
ENDCHAR
STARTCHAR tildecomb.case
ENCODING -1
SWIDTH 0 0
DWIDTH 0 0
BBX 9 4 -12 27
BITMAP
6100
F980
DF80
CF00
ENDCHAR
STARTCHAR uni0304.case
ENCODING -1
SWIDTH 0 0
DWIDTH 0 0
BBX 12 2 -15 28
BITMAP
FFE0
7FF0
ENDCHAR
STARTCHAR hookabovecomb.case
ENCODING -1
SWIDTH 0 0
DWIDTH 0 0
BBX 8 7 -10 24
BITMAP
38
FE
C7
C3
1F
3C
30
ENDCHAR
STARTCHAR uni030F.case
ENCODING -1
SWIDTH 0 0
DWIDTH 0 0
BBX 11 8 -18 27
BITMAP
8000
C200
E300
7180
3980
18C0
0C60
0220
ENDCHAR
STARTCHAR uni0311.case
ENCODING -1
SWIDTH 0 0
DWIDTH 0 0
BBX 7 5 -11 27
BITMAP
18
7C
66
C6
C6
ENDCHAR
STARTCHAR uni031B.case
ENCODING -1
SWIDTH 0 0
DWIDTH 0 0
BBX 5 6 -9 24
BITMAP
10
38
38
38
F0
E0
ENDCHAR
STARTCHAR dotbelowcomb.case
ENCODING -1
SWIDTH 0 0
DWIDTH 0 0
BBX 3 3 -7 -7
BITMAP
C0
E0
C0
ENDCHAR
STARTCHAR uni0324.case
ENCODING -1
SWIDTH 0 0
DWIDTH 0 0
BBX 9 3 -12 -6
BITMAP
E180
E380
E180
ENDCHAR
STARTCHAR uni0326.case
ENCODING -1
SWIDTH 0 0
DWIDTH 0 0
BBX 5 8 -10 -11
BITMAP
08
18
18
30
30
60
40
80
ENDCHAR
STARTCHAR uni0327.case
ENCODING -1
SWIDTH 0 0
DWIDTH 0 0
BBX 5 9 -11 -9
BITMAP
40
40
70
78
08
08
18
18
F0
ENDCHAR
STARTCHAR uni0328.case
ENCODING -1
SWIDTH 0 0
DWIDTH 0 0
BBX 5 8 -9 -7
BITMAP
18
30
60
C0
C0
C0
F0
60
ENDCHAR
STARTCHAR uni032E.case
ENCODING -1
SWIDTH 0 0
DWIDTH 0 0
BBX 7 6 -10 -7
BITMAP
42
C6
66
66
7C
3C
ENDCHAR
STARTCHAR uni0331.case
ENCODING -1
SWIDTH 0 0
DWIDTH 0 0
BBX 12 2 -15 -6
BITMAP
FFE0
7FF0
ENDCHAR
STARTCHAR brevecombcy
ENCODING -1
SWIDTH 0 0
DWIDTH 0 0
BBX 7 5 -9 29
BITMAP
04
0E
EC
FC
78
ENDCHAR
STARTCHAR brevecombcy.case
ENCODING -1
SWIDTH 0 0
DWIDTH 0 0
BBX 6 4 -9 32
BITMAP
8C
CC
F8
70
ENDCHAR
STARTCHAR uni03060301
ENCODING -1
SWIDTH 0 0
DWIDTH 0 0
BBX 10 12 -8 27
BITMAP
0180
03C0
0780
0E00
1800
3000
8400
C600
C600
EE00
7C00
3800
ENDCHAR
STARTCHAR uni03060300
ENCODING -1
SWIDTH 0 0
DWIDTH 0 0
BBX 10 10 -11 27
BITMAP
6000
F800
3E00
0300
1080
18C0
18C0
1DC0
0F80
0700
ENDCHAR
STARTCHAR uni03060309
ENCODING -1
SWIDTH 0 0
DWIDTH 0 0
BBX 8 14 -8 27
BITMAP
3C
7F
C3
C3
0F
1C
18
00
84
C6
C6
EE
7C
38
ENDCHAR
STARTCHAR uni03060303
ENCODING -1
SWIDTH 0 0
DWIDTH 0 0
BBX 9 10 -9 27
BITMAP
6100
F980
DF80
CF00
4200
6300
6300
7700
3E00
1C00
ENDCHAR
STARTCHAR uni03020301
ENCODING -1
SWIDTH 0 0
DWIDTH 0 0
BBX 13 10 -8 27
BITMAP
0018
0038
1878
38E0
3980
6E00
6C00
C400
C600
4400
ENDCHAR
STARTCHAR uni03020300
ENCODING -1
SWIDTH 0 0
DWIDTH 0 0
BBX 13 9 -14 27
BITMAP
C000
E060
70E0
18E0
0DB0
05B0
0310
0318
0110
ENDCHAR
STARTCHAR uni03020309
ENCODING -1
SWIDTH 0 0
DWIDTH 0 0
BBX 14 11 -8 27
BITMAP
00E0
03F8
031C
1B0C
387C
38F0
6CC0
6C00
C400
C600
4400
ENDCHAR
STARTCHAR uni03020303
ENCODING -1
SWIDTH 0 0
DWIDTH 0 0
BBX 9 13 -9 27
BITMAP
6100
F980
DF80
CF00
0000
0C00
1C00
1C00
3600
3600
6200
6300
2200
ENDCHAR
ENDFONT
